<?xml version="1.0" encoding="utf-8"?>
<!-- Generator: Adobe Illustrator 23.0.1, SVG Export Plug-In . SVG Version: 6.00 Build 0)  -->
<svg version="1.1" id="Layer_1" xmlns="http://www.w3.org/2000/svg" xmlns:xlink="http://www.w3.org/1999/xlink" x="0px" y="0px"
	 viewBox="0 0 470 470" style="enable-background:new 0 0 470 470;" xml:space="preserve">
<style type="text/css">
	.st0{stroke:#000000;stroke-width:9;stroke-miterlimit:10;}
	.st1{fill:none;}
</style>
<path d="M16.1,219.4h50.8l18.3,36.5c1.3,2.5,3.9,4.1,6.7,4.1s5.4-1.6,6.7-4.1l18.3-36.5h3.7c4.1,0,7.5-3.4,7.5-7.5s-3.4-7.5-7.5-7.5
	h-8.4c-2.8,0-5.4,1.6-6.7,4.1l-13.6,27.2l-13.6-27.2c-1.3-2.5-3.9-4.1-6.7-4.1H16.1c-0.6,0-1.1-0.5-1.1-1.1V16.1
	c0-0.6,0.5-1.1,1.1-1.1h151.6c0.6,0,1.1,0.5,1.1,1.1v81.3c0,4.1,3.4,7.5,7.5,7.5s7.5-3.4,7.5-7.5V16.1c0-8.9-7.2-16.1-16.1-16.1
	H16.1C7.2,0,0,7.2,0,16.1v187.2C0,212.2,7.2,219.4,16.1,219.4z"/>
<path d="M453.9,0H302.3c-8.9,0-16.1,7.2-16.1,16.1v81.3c0,4.1,3.4,7.5,7.5,7.5s7.5-3.4,7.5-7.5V16.1c0-0.6,0.5-1.1,1.1-1.1h151.6
	c0.6,0,1.1,0.5,1.1,1.1v187.2c0,0.6-0.5,1.1-1.1,1.1h-55.5c-2.8,0-5.4,1.6-6.7,4.1l-13.6,27.2l-13.6-27.2c-1.3-2.5-3.9-4.1-6.7-4.1
	h-8.4c-4.1,0-7.5,3.4-7.5,7.5s3.4,7.5,7.5,7.5h3.7l18.3,36.5c1.3,2.5,3.9,4.1,6.7,4.1s5.4-1.6,6.7-4.1l18.3-36.5h50.8
	c8.9,0,16.1-7.2,16.1-16.1V16.1C470,7.2,462.8,0,453.9,0z"/>
<path d="M143.1,136v187.2c0,8.9,7.2,16.1,16.1,16.1H210l18.3,36.5c1.3,2.5,3.9,4.1,6.7,4.1c2.8,0,5.4-1.6,6.7-4.1l18.3-36.5h50.8
	c8.9,0,16.1-7.2,16.1-16.1V136c0-8.9-7.2-16.1-16.1-16.1H159.2C150.3,119.9,143.1,127.1,143.1,136z M311.9,136v187.2
	c0,0.6-0.5,1.1-1.1,1.1h-55.5c-2.8,0-5.4,1.6-6.7,4.1L235,355.7l-13.6-27.2c-1.3-2.5-3.9-4.1-6.7-4.1h-55.5c-0.6,0-1.1-0.5-1.1-1.1
	V136c0-0.6,0.5-1.1,1.1-1.1h151.6C311.4,134.9,311.9,135.4,311.9,136L311.9,136z"/>
<path d="M381.5,440.5c4.4,0,8-3.6,8-8s-3.6-8-8-8s-8,3.6-8,8S377.1,440.5,381.5,440.5z"/>
<path d="M340.5,440.5c4.4,0,8-3.6,8-8s-3.6-8-8-8s-8,3.6-8,8S336.1,440.5,340.5,440.5z"/>
<path d="M422.5,440.5c4.4,0,8-3.6,8-8s-3.6-8-8-8s-8,3.6-8,8S418.1,440.5,422.5,440.5z"/>
<path d="M462.5,395H7.5c-4.1,0-7.5,3.4-7.5,7.5v60c0,4.1,3.4,7.5,7.5,7.5h455c4.1,0,7.5-3.4,7.5-7.5v-60
	C470,398.4,466.6,395,462.5,395z M15,410h277.5v45H15V410z M455,455H307.5v-45H455V455z"/>
<g>
	<path class="st0" d="M209,251.5L209,251.5C209,251.5,209,251.5,209,251.5l59.8,0c1.5,0,2.8-1,3.2-2.4l13.2-46.2
		c0.3-1,0.1-2.1-0.5-2.9c-0.6-0.8-1.6-1.3-2.6-1.3h-80.6l-2.4-10.6c-0.3-1.5-1.7-2.6-3.2-2.6H176c-1.8,0-3.3,1.5-3.3,3.3
		c0,1.8,1.5,3.3,3.3,3.3h17.1c0.4,1.9,11.3,50.8,11.9,53.6C205.3,248.1,207.2,251.5,209,251.5z M277.6,205.3l-11.3,39.6h-54.7
		l-8.8-39.6H277.6z"/>
	<g>
		<path class="st1" d="M215.6,273.4c-0.7,0-1.2,0.5-1.2,1.2c0,0.7,0.5,1.2,1.2,1.2c0.7,0,1.2-0.5,1.2-1.2
			C216.8,273.9,216.3,273.4,215.6,273.4z"/>
		<path d="M215.6,260.2c-7.9,0-14.4,6.5-14.4,14.4s6.5,14.4,14.4,14.4s14.4-6.5,14.4-14.4S223.5,260.2,215.6,260.2z M215.6,284.5
			c-5.5,0-9.9-4.4-9.9-9.9c0-5.5,4.4-9.9,9.9-9.9c5.5,0,9.9,4.4,9.9,9.9C225.5,280,221,284.5,215.6,284.5z"/>
		<path d="M215.6,264.7c-5.5,0-9.9,4.4-9.9,9.9c0,5.5,4.4,9.9,9.9,9.9c5.5,0,9.9-4.4,9.9-9.9C225.5,269.1,221,264.7,215.6,264.7z
			 M215.6,277.9c-1.8,0-3.3-1.5-3.3-3.3c0-1.8,1.5-3.3,3.3-3.3s3.3,1.5,3.3,3.3C218.9,276.4,217.4,277.9,215.6,277.9z"/>
	</g>
	<g>
		<path class="st1" d="M263.1,273.4c-0.7,0-1.2,0.5-1.2,1.2c0,0.7,0.5,1.2,1.2,1.2c0.7,0,1.2-0.5,1.2-1.2
			C264.3,273.9,263.7,273.4,263.1,273.4z"/>
		<path d="M263.1,260.2c-7.9,0-14.4,6.5-14.4,14.4s6.5,14.4,14.4,14.4c7.9,0,14.4-6.5,14.4-14.4S271,260.2,263.1,260.2z
			 M263.1,284.5c-5.5,0-9.9-4.4-9.9-9.9c0-5.5,4.4-9.9,9.9-9.9c5.5,0,9.9,4.4,9.9,9.9C273,280,268.5,284.5,263.1,284.5z"/>
		<path d="M263.1,264.7c-5.5,0-9.9,4.4-9.9,9.9c0,5.5,4.4,9.9,9.9,9.9c5.5,0,9.9-4.4,9.9-9.9C273,269.1,268.5,264.7,263.1,264.7z
			 M263.1,277.9c-1.8,0-3.3-1.5-3.3-3.3c0-1.8,1.5-3.3,3.3-3.3s3.3,1.5,3.3,3.3C266.4,276.4,264.9,277.9,263.1,277.9z"/>
	</g>
</g>
<g>
	<path class="st0" d="M63.5,126.4L63.5,126.4C63.5,126.4,63.5,126.4,63.5,126.4l59.8,0c1.5,0,2.8-1,3.2-2.4l13.2-46.2
		c0.3-1,0.1-2.1-0.5-2.9c-0.6-0.8-1.6-1.3-2.6-1.3H55.9l-2.4-10.6c-0.3-1.5-1.7-2.6-3.2-2.6H30.5c-1.8,0-3.3,1.5-3.3,3.3
		c0,1.8,1.5,3.3,3.3,3.3h17.1c0.4,1.9,11.3,50.8,11.9,53.6C59.8,123.1,61.7,126.4,63.5,126.4z M132.1,80.3l-11.3,39.6H66.1
		l-8.8-39.6H132.1z"/>
	<g>
		<path class="st1" d="M70.1,148.3c-0.7,0-1.2,0.5-1.2,1.2c0,0.7,0.5,1.2,1.2,1.2c0.7,0,1.2-0.5,1.2-1.2
			C71.3,148.9,70.7,148.3,70.1,148.3z"/>
		<path d="M70.1,135.1c-7.9,0-14.4,6.5-14.4,14.4s6.5,14.4,14.4,14.4s14.4-6.5,14.4-14.4S78,135.1,70.1,135.1z M70.1,159.4
			c-5.5,0-9.9-4.4-9.9-9.9c0-5.5,4.4-9.9,9.9-9.9c5.5,0,9.9,4.4,9.9,9.9C80,155,75.5,159.4,70.1,159.4z"/>
		<path d="M70.1,139.6c-5.5,0-9.9,4.4-9.9,9.9c0,5.5,4.4,9.9,9.9,9.9c5.5,0,9.9-4.4,9.9-9.9C80,144.1,75.5,139.6,70.1,139.6z
			 M70.1,152.8c-1.8,0-3.3-1.5-3.3-3.3c0-1.8,1.5-3.3,3.3-3.3s3.3,1.5,3.3,3.3C73.4,151.3,71.9,152.8,70.1,152.8z"/>
	</g>
	<g>
		<path class="st1" d="M117.6,148.3c-0.7,0-1.2,0.5-1.2,1.2c0,0.7,0.5,1.2,1.2,1.2c0.7,0,1.2-0.5,1.2-1.2
			C118.8,148.9,118.2,148.3,117.6,148.3z"/>
		<path d="M117.6,135.1c-7.9,0-14.4,6.5-14.4,14.4s6.5,14.4,14.4,14.4s14.4-6.5,14.4-14.4S125.5,135.1,117.6,135.1z M117.6,159.4
			c-5.5,0-9.9-4.4-9.9-9.9c0-5.5,4.4-9.9,9.9-9.9c5.5,0,9.9,4.4,9.9,9.9C127.5,155,123,159.4,117.6,159.4z"/>
		<path d="M117.6,139.6c-5.5,0-9.9,4.4-9.9,9.9c0,5.5,4.4,9.9,9.9,9.9c5.5,0,9.9-4.4,9.9-9.9C127.5,144.1,123,139.6,117.6,139.6z
			 M117.6,152.8c-1.8,0-3.3-1.5-3.3-3.3c0-1.8,1.5-3.3,3.3-3.3s3.3,1.5,3.3,3.3C120.9,151.3,119.4,152.8,117.6,152.8z"/>
	</g>
</g>
<g>
	<path class="st0" d="M356.8,126.4L356.8,126.4C356.8,126.4,356.8,126.4,356.8,126.4l59.8,0c1.5,0,2.8-1,3.2-2.4L433,77.9
		c0.3-1,0.1-2.1-0.5-2.9c-0.6-0.8-1.6-1.3-2.6-1.3h-80.6l-2.4-10.6c-0.3-1.5-1.7-2.6-3.2-2.6h-19.8c-1.8,0-3.3,1.5-3.3,3.3
		c0,1.8,1.5,3.3,3.3,3.3h17.1c0.4,1.9,11.3,50.8,11.9,53.6C353.1,123.1,355,126.4,356.8,126.4z M425.4,80.3l-11.3,39.6h-54.7
		l-8.8-39.6H425.4z"/>
	<g>
		<path class="st1" d="M363.4,148.3c-0.7,0-1.2,0.5-1.2,1.2c0,0.7,0.5,1.2,1.2,1.2c0.7,0,1.2-0.5,1.2-1.2
			C364.6,148.9,364,148.3,363.4,148.3z"/>
		<path d="M363.4,135.1c-7.9,0-14.4,6.5-14.4,14.4s6.5,14.4,14.4,14.4s14.4-6.5,14.4-14.4S371.3,135.1,363.4,135.1z M363.4,159.4
			c-5.5,0-9.9-4.4-9.9-9.9c0-5.5,4.4-9.9,9.9-9.9c5.5,0,9.9,4.4,9.9,9.9C373.3,155,368.8,159.4,363.4,159.4z"/>
		<path d="M363.4,139.6c-5.5,0-9.9,4.4-9.9,9.9c0,5.5,4.4,9.9,9.9,9.9c5.5,0,9.9-4.4,9.9-9.9C373.3,144.1,368.8,139.6,363.4,139.6z
			 M363.4,152.8c-1.8,0-3.3-1.5-3.3-3.3c0-1.8,1.5-3.3,3.3-3.3s3.3,1.5,3.3,3.3C366.7,151.3,365.2,152.8,363.4,152.8z"/>
	</g>
	<g>
		<path class="st1" d="M410.9,148.3c-0.7,0-1.2,0.5-1.2,1.2c0,0.7,0.5,1.2,1.2,1.2c0.7,0,1.2-0.5,1.2-1.2
			C412.1,148.9,411.5,148.3,410.9,148.3z"/>
		<path d="M410.9,135.1c-7.9,0-14.4,6.5-14.4,14.4s6.5,14.4,14.4,14.4s14.4-6.5,14.4-14.4S418.8,135.1,410.9,135.1z M410.9,159.4
			c-5.5,0-9.9-4.4-9.9-9.9c0-5.5,4.4-9.9,9.9-9.9c5.5,0,9.9,4.4,9.9,9.9C420.8,155,416.3,159.4,410.9,159.4z"/>
		<path d="M410.9,139.6c-5.5,0-9.9,4.4-9.9,9.9c0,5.5,4.4,9.9,9.9,9.9c5.5,0,9.9-4.4,9.9-9.9C420.8,144.1,416.3,139.6,410.9,139.6z
			 M410.9,152.8c-1.8,0-3.3-1.5-3.3-3.3c0-1.8,1.5-3.3,3.3-3.3s3.3,1.5,3.3,3.3C414.2,151.3,412.7,152.8,410.9,152.8z"/>
	</g>
</g>
</svg>
