<svg height="512pt" viewBox="0 -34 512 512" width="512pt" xmlns="http://www.w3.org/2000/svg"><path d="m494.933594 281.601562h-8.535156v-17.066406h17.066406c2.511718-.003906 4.890625-1.105468 6.511718-3.019531 1.621094-1.914063 2.320313-4.445313 1.90625-6.921875l-8.53125-51.199219c-.6875-4.113281-4.246093-7.128906-8.417968-7.128906h-34.132813c-4.171875 0-7.730469 3.015625-8.417969 7.128906l-8.53125 51.199219c-.414062 2.476562.28125 5.007812 1.902344 6.921875s4.003906 3.015625 6.511719 3.019531h17.066406v17.066406h-51.199219v-68.269531c-.027343-23.550781-19.113281-42.636719-42.667968-42.664062h-238.929688c-23.554687.027343-42.640625 19.113281-42.667968 42.664062v68.269531h-51.199219v-17.066406h17.066406c2.507813-.003906 4.890625-1.105468 6.511719-3.019531s2.316406-4.445313 1.902344-6.921875l-8.53125-51.199219c-.6875-4.113281-4.246094-7.128906-8.417969-7.128906h-34.132813c-4.171875 0-7.730468 3.015625-8.417968 7.128906l-8.53125 51.199219c-.414063 2.476562.285156 5.007812 1.90625 6.921875 1.621093 1.914063 4 3.015625 6.511718 3.019531h17.066406v17.066406h-8.535156c-9.421875.007813-17.0585935 7.644532-17.066406 17.066407v93.867187c.0078125 9.421875 7.644531 17.054688 17.066406 17.066406v17.066407h-8.53125c-4.714844 0-8.535156 3.820312-8.535156 8.53125 0 4.714843 3.820312 8.535156 8.535156 8.535156h494.929688c4.714844 0 8.535156-3.820313 8.535156-8.535156 0-4.710938-3.820312-8.53125-8.535156-8.53125h-8.53125v-17.066407c9.421875-.011718 17.058594-7.644531 17.066406-17.066406v-93.867187c-.007812-9.421875-7.644531-17.058594-17.066406-17.066407zm-26.902344-68.269531h19.671875l5.6875 34.132813h-31.046875zm-443.734375 0h19.671875l5.6875 34.132813h-31.046875zm470.636719 85.335938v25.597656h-76.800782v-25.597656zm-76.800782 128h-25.597656v-25.601563h8.53125c.753906-.023437 1.503906-.101562 2.25-.226562 2.988282 5.386718 8.65625 8.738281 14.816406 8.761718zm-309.449218-25.828125c.746094.125 1.496094.203125 2.25.226562h8.53125v25.601563h-25.597656v-17.066407c6.160156-.023437 11.828124-3.375 14.816406-8.761718zm36.382812-119.238282c.007813-9.421874 7.644532-17.058593 17.066406-17.066406h68.265626c9.421874.007813 17.058593 7.644532 17.066406 17.066406zm-8.53125 17.066407h238.929688c14.132812.015625 25.585937 11.464843 25.601562 25.597656v25.601563h-290.132812v-25.601563c.015625-14.132813 11.46875-25.582031 25.601562-25.597656zm128-17.066407c.007813-9.421874 7.644532-17.058593 17.066406-17.066406h68.265626c9.421874.007813 17.058593 7.644532 17.066406 17.066406zm-153.601562 102.398438v-17.066406h290.132812v17.066406zm25.601562 17.066406h238.929688v25.601563h-238.929688zm0-213.332031h238.929688c14.132812.015625 25.585937 11.46875 25.601562 25.597656v77.019531c-5.023437-3.878906-10.855468-6.574218-17.066406-7.890624v-.859376c-.019531-18.84375-15.289062-34.113281-34.132812-34.136718h-68.265626c-9.84375.035156-19.183593 4.339844-25.601562 11.796875-6.417969-7.457031-15.757812-11.761719-25.601562-11.796875h-68.265626c-18.84375.023437-34.113281 15.292968-34.132812 34.136718v.859376c-6.210938 1.316406-12.042969 4.011718-17.066406 7.890624v-77.019531c.015625-14.128906 11.46875-25.582031 25.601562-25.597656zm-119.46875 110.933594h76.800782v25.597656h-76.808594l-.003906-25.597656zm-.007812 42.664062h76.808594v51.203125h-76.800782zm17.074218 68.269531h42.667969v17.066407h-42.667969zm443.734376 17.066407h-42.667969v-17.066407h42.667969zm-59.734376-34.132813v-51.203125h76.800782v51.203125zm0 0"/><path d="m153.601562 153.601562h204.796876c9.421874-.011718 17.058593-7.644531 17.066406-17.066406v-119.46875c-.007813-9.421875-7.644532-17.0585935-17.066406-17.066406h-204.796876c-9.421874.0078125-17.058593 7.644531-17.066406 17.066406v119.46875c.007813 9.421875 7.644532 17.054688 17.066406 17.066406zm0-136.535156h204.796876v119.46875h-204.796876zm0 0"/><path d="m332.800781 34.132812h-153.601562c-4.710938 0-8.53125 3.820313-8.53125 8.535157v68.265625c0 4.710937 3.820312 8.53125 8.53125 8.53125h153.601562c4.710938 0 8.53125-3.820313 8.53125-8.53125v-68.265625c0-4.714844-3.820312-8.535157-8.53125-8.535157zm-8.535156 68.265626h-17.066406v-17.066407c0-4.710937-3.820313-8.53125-8.53125-8.53125-4.714844 0-8.535157 3.820313-8.535157 8.53125v17.066407h-25.597656v-17.066407c0-4.710937-3.824218-8.53125-8.535156-8.53125s-8.535156 3.820313-8.535156 8.53125v17.066407h-25.597656v-17.066407c0-4.710937-3.820313-8.53125-8.535157-8.53125-4.710937 0-8.53125 3.820313-8.53125 8.53125v17.066407h-17.066406v-51.199219h136.53125zm0 0"/></svg>