<svg height="681pt" viewBox="-21 -41 681.33464 681" width="681pt" xmlns="http://www.w3.org/2000/svg"><path d="m601.222656-1.171875h-23.398437c-6.921875 0-12.539063 5.613281-12.539063 12.539063 0 6.925781 5.617188 12.539062 12.539063 12.539062h23.398437c6.914063 0 12.539063 5.621094 12.539063 12.53125v390.308594c0 6.914062-5.625 12.539062-12.539063 12.539062h-563.527344c-6.914062 0-12.539062-5.625-12.539062-12.539062v-390.308594c0-6.910156 5.625-12.53125 12.539062-12.53125h438.78125c6.917969 0 12.539063-5.613281 12.539063-12.539062 0-6.925782-5.621094-12.539063-12.539063-12.539063h-438.78125c-20.742187 0-37.6132808 16.875-37.6132808 37.609375v390.308594c0 20.742187 16.8710938 37.613281 37.6132808 37.613281h202.929688v107.515625h-67.824219c-6.921875 0-12.539062 5.617188-12.539062 12.539062 0 6.925782 5.617187 12.539063 12.539062 12.539063h298.691407c6.917968 0 12.53125-5.613281 12.53125-12.539063 0-6.921874-5.613282-12.539062-12.53125-12.539062h-73.199219v-107.515625h202.929687c20.734375 0 37.613282-16.871094 37.613282-37.613281v-390.308594c0-20.734375-16.871094-37.609375-37.613282-37.609375zm-228 573.046875h-107.527344v-107.515625h107.527344zm0 0"/><path d="m51.0625 63.660156v335.585938c0 6.925781 5.613281 12.539062 12.535156 12.539062h511.71875c6.925782 0 12.539063-5.613281 12.539063-12.539062v-335.585938c0-6.921875-5.613281-12.539062-12.539063-12.539062h-511.71875c-6.921875 0-12.535156 5.617187-12.535156 12.539062zm25.074219 12.539063h486.644531v310.511719h-486.644531zm0 0"/><path d="m319.457031 553.601562c19.566407 0 35.484375-15.914062 35.484375-35.480468s-15.917968-35.488282-35.484375-35.488282c-19.566406 0-35.484375 15.921876-35.484375 35.488282s15.917969 35.480468 35.484375 35.480468zm0-45.890624c5.742188 0 10.410157 4.667968 10.410157 10.410156 0 5.738281-4.667969 10.40625-10.410157 10.40625-5.738281 0-10.40625-4.667969-10.40625-10.40625 0-5.742188 4.667969-10.410156 10.40625-10.410156zm0 0"/><path d="m223.339844 105.332031h-93.601563c-6.925781 0-12.539062 5.609375-12.539062 12.535157v93.601562c0 6.925781 5.613281 12.539062 12.539062 12.539062h93.601563c6.917968 0 12.53125-5.613281 12.53125-12.539062v-93.601562c0-6.925782-5.609375-12.535157-12.53125-12.535157zm-12.539063 93.597657h-68.523437v-68.523438h68.523437zm0 0"/><path d="m528.191406 23.976562c.949219 0 1.914063-.109374 2.878906-.335937l.609376-.144531c6.742187-1.585938 10.917968-8.332032 9.332031-15.074219-1.585938-6.738281-8.347657-10.921875-15.078125-9.332031l-.601563.140625c-6.746093 1.589843-10.921875 8.339843-9.332031 15.078125 1.359375 5.777344 6.503906 9.667968 12.191406 9.667968zm0 0"/><path d="m223.339844 243.8125h-89.941406c-6.925782 0-12.539063 5.613281-12.539063 12.539062 0 6.925782 5.613281 12.539063 12.539063 12.539063h89.941406c6.917968 0 12.53125-5.613281 12.53125-12.539063 0-6.925781-5.609375-12.539062-12.53125-12.539062zm0 0"/><path d="m223.339844 288.117188h-89.941406c-6.925782 0-12.539063 5.613281-12.539063 12.53125 0 6.925781 5.613281 12.539062 12.539063 12.539062h89.941406c6.917968 0 12.53125-5.613281 12.53125-12.539062 0-6.925782-5.609375-12.53125-12.53125-12.53125zm0 0"/><path d="m223.339844 329.339844h-89.941406c-6.925782 0-12.539063 5.613281-12.539063 12.53125 0 6.925781 5.613281 12.539062 12.539063 12.539062h89.941406c6.917968 0 12.53125-5.613281 12.53125-12.539062 0-6.917969-5.609375-12.53125-12.53125-12.53125zm0 0"/><path d="m487.773438 288.5c-14.292969 0-26.542969 8.878906-31.535157 21.410156h-32.085937c-5-12.53125-17.246094-21.410156-31.535156-21.410156-14.289063 0-26.535157 8.878906-31.535157 21.410156h-11.160156v-41.902344h128.183594c5.894531 0 10.996093-4.109374 12.25-9.871093l15.296875-70.425781c.804687-3.707032-.113282-7.578126-2.488282-10.53125-2.378906-2.953126-5.972656-4.667969-9.761718-4.667969h-24.332032c-6.921874 0-12.535156 5.613281-12.535156 12.539062s5.613282 12.535157 12.535156 12.535157h8.78125l-9.855468 45.347656h-118.074219v-45.347656h18.777344c6.925781 0 12.539062-5.609376 12.539062-12.535157s-5.613281-12.539062-12.539062-12.539062h-18.777344v-25.996094c0-3.457031-1.429687-6.761719-3.949219-9.132813l-27.609375-25.976562c-5.050781-4.746094-12.984375-4.503906-17.726562.535156-4.746094 5.042969-4.5 12.976563.542969 17.722656l23.667968 22.265626v32.429687c-.011718.226563-.03125.460937-.03125.695313l.03125 70.425781v66.960937c0 6.925782 5.613282 12.539063 12.535156 12.539063h23.699219c5 12.53125 17.246094 21.40625 31.535157 21.40625 14.292968 0 26.539062-8.878907 31.535156-21.40625h32.085937c5 12.53125 17.246094 21.40625 31.535157 21.40625 18.71875 0 33.945312-15.226563 33.945312-33.945313s-15.226562-33.941406-33.945312-33.941406zm-95.15625 42.8125c-4.894532 0-8.871094-3.976562-8.871094-8.871094 0-4.886718 3.976562-8.867187 8.871094-8.867187 4.8125 0 8.730468 3.855469 8.859374 8.640625 0 .078125-.015624.148437-.015624.226562s.015624.15625.015624.230469c-.128906 4.785156-4.046874 8.640625-8.859374 8.640625zm95.15625 0c-4.894532 0-8.871094-3.976562-8.871094-8.871094 0-4.886718 3.976562-8.867187 8.871094-8.867187 4.886718 0 8.867187 3.980469 8.867187 8.867187 0 4.894532-3.976563 8.871094-8.867187 8.871094zm0 0"/><path d="m418.722656 197.929688c.949219 0 1.921875-.105469 2.886719-.335938l.609375-.140625c6.738281-1.589844 10.914062-8.339844 9.324219-15.078125-1.585938-6.738281-8.339844-10.921875-15.070313-9.332031l-.609375.144531c-6.742187 1.585938-10.917969 8.335938-9.332031 15.074219 1.359375 5.773437 6.507812 9.667969 12.191406 9.667969zm0 0"/></svg>