<?xml version="1.0" encoding="utf-8"?>
<!-- Generator: Adobe Illustrator 23.0.1, SVG Export Plug-In . SVG Version: 6.00 Build 0)  -->
<svg version="1.1" id="Layer_1" xmlns="http://www.w3.org/2000/svg" xmlns:xlink="http://www.w3.org/1999/xlink" x="0px" y="0px"
	 viewBox="0 0 512 512" style="enable-background:new 0 0 512 512;" xml:space="preserve">
<style type="text/css">
	.st0{fill:none;}
</style>
<path d="M110.9,322.1c4.7,0,8.5,3.8,8.5,8.5s3.8,8.5,8.5,8.5c4.7,0,8.5-3.8,8.5-8.5s3.8-8.5,8.5-8.5s8.5-3.8,8.5-8.5
	c0-4.7-3.8-8.5-8.5-8.5s-8.5-3.8-8.5-8.5c0-4.7-3.8-8.5-8.5-8.5s-8.5,3.8-8.5,8.5c0,4.7-3.8,8.5-8.5,8.5s-8.5,3.8-8.5,8.5
	C102.4,318.3,106.2,322.1,110.9,322.1z"/>
<path d="M366.9,322.1c4.7,0,8.5,3.8,8.5,8.5s3.8,8.5,8.5,8.5s8.5-3.8,8.5-8.5s3.8-8.5,8.5-8.5s8.5-3.8,8.5-8.5
	c0-4.7-3.8-8.5-8.5-8.5s-8.5-3.8-8.5-8.5c0-4.7-3.8-8.5-8.5-8.5s-8.5,3.8-8.5,8.5c0,4.7-3.8,8.5-8.5,8.5s-8.5,3.8-8.5,8.5
	S362.2,322.1,366.9,322.1z"/>
<path d="M196.3,322.1c4.7,0,8.5,3.8,8.5,8.5s3.8,8.5,8.5,8.5s8.5-3.8,8.5-8.5s3.8-8.5,8.5-8.5s8.5-3.8,8.5-8.5
	c0-4.7-3.8-8.5-8.5-8.5s-8.5-3.8-8.5-8.5c0-4.7-3.8-8.5-8.5-8.5s-8.5,3.8-8.5,8.5c0,4.7-3.8,8.5-8.5,8.5s-8.5,3.8-8.5,8.5
	C187.7,318.3,191.6,322.1,196.3,322.1z"/>
<path d="M281.6,322.1c4.7,0,8.5,3.8,8.5,8.5s3.8,8.5,8.5,8.5s8.5-3.8,8.5-8.5s3.8-8.5,8.5-8.5s8.5-3.8,8.5-8.5
	c0-4.7-3.8-8.5-8.5-8.5s-8.5-3.8-8.5-8.5c0-4.7-3.8-8.5-8.5-8.5s-8.5,3.8-8.5,8.5c0,4.7-3.8,8.5-8.5,8.5s-8.5,3.8-8.5,8.5
	S276.9,322.1,281.6,322.1z"/>
<path d="M366.9,239.7c4.7,0,8.5,3.8,8.5,8.5s3.8,8.5,8.5,8.5s8.5-3.8,8.5-8.5s3.8-8.5,8.5-8.5s8.5-3.8,8.5-8.5s-3.8-8.5-8.5-8.5
	s-8.5-3.8-8.5-8.5s-3.8-8.5-8.5-8.5s-8.5,3.8-8.5,8.5s-3.8,8.5-8.5,8.5s-8.5,3.8-8.5,8.5S362.2,239.7,366.9,239.7z"/>
<path d="M281.6,239.7c4.7,0,8.5,3.8,8.5,8.5s3.8,8.5,8.5,8.5s8.5-3.8,8.5-8.5s3.8-8.5,8.5-8.5s8.5-3.8,8.5-8.5s-3.8-8.5-8.5-8.5
	s-8.5-3.8-8.5-8.5s-3.8-8.5-8.5-8.5s-8.5,3.8-8.5,8.5s-3.8,8.5-8.5,8.5s-8.5,3.8-8.5,8.5S276.9,239.7,281.6,239.7z"/>
<g>
	<g>
		<g>
			<path d="M258.6,144.9c-1.1-2.3-1.1-5,0-7.3l10.5-21.4c5.8-11.9,1.2-26.1-10.5-32.3l-21-11.2c-2.3-1.2-3.8-3.3-4.3-5.9l-4.1-23.5
				c-2.3-13.1-14.4-21.8-27.5-20L178,26.7c-2.5,0.4-5.1-0.5-6.9-2.2L153.9,7.9c-9.5-9.2-24.5-9.2-34,0l-17.1,16.6
				c-1.8,1.8-4.4,2.6-6.9,2.2l-23.6-3.3c-13.1-1.9-25.2,6.9-27.5,20l-4.1,23.5c-0.4,2.5-2,4.7-4.3,5.9l-21,11.2
				C3.7,90.1-1,104.3,4.9,116.2l10.5,21.4c1.1,2.3,1.1,5,0,7.3L4.9,166.3c-5.8,11.9-1.2,26.1,10.5,32.3l21,11.2
				c2.3,1.2,3.8,3.3,4.3,5.9l4.1,23.5c2.1,11.9,12.3,20.2,24,20.2c1.2,0,2.3-0.1,3.5-0.2l23.6-3.3c2.5-0.4,5.1,0.5,6.9,2.2
				l17.1,16.6c4.8,4.6,10.9,6.9,17,6.9c6.1,0,12.2-2.3,17-6.9l17.1-16.6c1.8-1.8,4.4-2.6,6.9-2.2l23.6,3.3
				c13.1,1.9,25.2-6.9,27.5-20l4.1-23.5c0.4-2.5,2-4.7,4.3-5.9l21-11.2c11.7-6.2,16.3-20.4,10.5-32.3L258.6,144.9z M250.9,184.3
				l-21,11.2c-6.7,3.6-11.3,9.9-12.6,17.4l-4.1,23.5c-0.8,4.4-4.9,7.4-9.3,6.8l-23.6-3.3c-7.5-1.1-15,1.4-20.4,6.6L142.7,263
				c-3.2,3.1-8.3,3.1-11.5,0l-17.1-16.6c-4.6-4.5-10.6-6.9-16.9-6.9c-1.2,0-2.3,0.1-3.5,0.2l-23.6,3.3c-4.4,0.6-8.5-2.3-9.3-6.8
				l-4.1-23.5c-1.3-7.5-5.9-13.8-12.6-17.4l-21-11.2c-4-2.1-5.5-6.9-3.6-10.9L29.9,152c3.3-6.8,3.3-14.7,0-21.5l-10.5-21.4
				c-2-4-0.4-8.8,3.6-10.9L44,87c6.7-3.6,11.3-9.9,12.6-17.4l4.1-23.5c0.8-4.4,4.9-7.4,9.3-6.8l23.6,3.3c7.5,1.1,15-1.4,20.4-6.6
				l17.1-16.6c3.2-3.1,8.3-3.1,11.5,0l17.1,16.6c5.5,5.3,12.9,7.7,20.4,6.6l23.6-3.3c4.4-0.6,8.5,2.3,9.3,6.8l4.1,23.5
				c1.3,7.5,5.9,13.8,12.6,17.4l21,11.2c4,2.1,5.5,6.9,3.6,10.9L244,130.5c-3.3,6.8-3.3,14.7,0,21.5l10.5,21.4
				C256.5,177.4,254.9,182.2,250.9,184.3z"/>
		</g>
	</g>
	<g>
		<g>
			<path d="M196.1,82.2c-3.2-3.2-8.3-3.2-11.4,0L77.8,188.9c-3.2,3.2-3.2,8.3,0,11.4c1.6,1.6,3.7,2.4,5.7,2.4s4.1-0.8,5.7-2.4
				L196.1,93.6C199.2,90.4,199.2,85.3,196.1,82.2z"/>
		</g>
	</g>
	<g>
		<g>
			<path d="M104.6,68.5c-16.4,0-29.7,13.3-29.7,29.7s13.3,29.7,29.7,29.7s29.7-13.3,29.7-29.7S120.9,68.5,104.6,68.5z M104.6,111.6
				c-7.4,0-13.5-6-13.5-13.5c0-7.4,6-13.5,13.5-13.5c7.4,0,13.5,6,13.5,13.5C118.1,105.6,112,111.6,104.6,111.6z"/>
		</g>
	</g>
	<g>
		<g>
			<path d="M169.3,154.7c-16.4,0-29.7,13.3-29.7,29.7s13.3,29.7,29.7,29.7c16.4,0,29.7-13.3,29.7-29.7S185.7,154.7,169.3,154.7z
				 M169.3,197.9c-7.4,0-13.5-6-13.5-13.5s6-13.5,13.5-13.5c7.4,0,13.5,6,13.5,13.5S176.7,197.9,169.3,197.9z"/>
		</g>
	</g>
</g>
<g>
	<path class="st0" d="M68.4,408.5C68.3,408.4,68.3,408.5,68.4,408.5L68.4,408.5z"/>
	<path class="st0" d="M51.1,323.1c0-8.9-6.9-16.3-15.6-17c-10.1-0.8-18.5,7.4-18.5,17.6v101.8c0,9.5,7.7,17.1,17.1,17.1l17.1-0.1
		h-0.1V323.1z"/>
	<path class="st0" d="M103.3,459.7H83c-0.1,0-0.1,0.1-0.1,0.1l-11.3,33.9c0,0,0,0.1,0.1,0.1h9l22.7-34
		C103.4,459.8,103.4,459.7,103.3,459.7z"/>
	<path class="st0" d="M443.7,408.4c0-18.8-15.3-34-34.1-34H102.4c-18.8,0-34,15.2-34,34.1h375.2
		C443.7,408.5,443.7,408.5,443.7,408.4z"/>
	<path class="st0" d="M443.7,425.5H68.4c-0.1,0-0.1,0-0.1,0.1v16.9c0,0.1,0,0.1,0.1,0.1h375.2L443.7,425.5
		C443.8,425.5,443.8,425.5,443.7,425.5z"/>
	<path class="st0" d="M429,459.8h-20.3c-0.1,0-0.1,0-0.1,0.1l22.6,33.9c0,0,0,0,0,0c0,0,0,0,0,0l9.1,0.1c0.1,0,0.1,0,0.1-0.1
		l-11.3-33.9C429.1,459.8,429,459.8,429,459.8z"/>
	<path class="st0" d="M494.8,323.1c0-8.9-6.9-16.3-15.6-17c-10.1-0.8-18.5,7.4-18.5,17.6v118.8c0,0.1,0,0.1,0.1,0.1h17
		c9.5,0,17.1-7.7,17.1-17.1h-0.1V323.1z"/>
	<path d="M132.5,204.7c-0.4,0.1-0.7,0.1-0.9,0.1c0.1,0.1,0.2,0.2,0.4,0.3C132.2,205,132.3,204.9,132.5,204.7z"/>
	<path d="M486.4,290.2C486.4,290.2,486.3,290.2,486.4,290.2C486.3,290.2,486.4,290.2,486.4,290.2c-0.1-2-0.1-3.9-0.1-5.8
		c-0.4-21.1-0.9-41.7-3.2-62.4c-3.3-30-11.1-73.1-40.1-101.7c-32.3-31.9-88.9-30.6-128.2-13c-18.1,8.1-31.6,19.8-43.8,33.2l7.5,17.3
		c12.3-14.4,25.6-27,43.3-35c34-15.3,82.4-16.9,109.2,9.5c25.1,24.8,32.1,64,35.1,91.4c2.2,20,2.7,40.2,3.1,60.8c0,1.8,0,3.7,0,5.5
		c0,0,0,0.1-0.1,0.1c-15,3.9-25.4,17.4-25.5,32.9v47.1c0,0.1-0.1,0.1-0.2,0.1c-9.3-8.4-21.4-13-34-13h-307c-12.5,0-24.6,4.6-34,13
		c-0.1,0.1-0.2,0-0.2-0.1v-47.1c0-15.5-10.6-29.1-25.6-32.9l-0.1-0.1c0.5-10.4,3.8-19.7,9-27.8l-13.1-11
		c-7.6,11.2-12.4,24.2-12.9,38.9c0,0,0,0.1-0.1,0.1C10.5,294.2,0,307.7,0,323.1v102.4c0,18.8,15.3,34.1,34.1,34.1h30.7
		c0.1,0,0.1,0.1,0.1,0.1l-13.2,39.7c-0.5,1.6-0.7,3.2-0.3,4.8c1,4,4.5,6.6,8.3,6.6h25.6c2.9,0,5.5-1.4,7.1-3.8l31.6-47.4
		c0,0,0,0,0.1,0h263.8h0.1l31.6,47.4c1.6,2.4,4.2,3.8,7.1,3.8h25.4c1.6,0,3.3-0.4,4.7-1.2c3.5-2.2,4.8-6.4,3.6-10l-13.3-39.8
		c0-0.1,0-0.1,0.1-0.1h30.7c18.8,0,34.1-15.3,34.1-34.1V323.1C512,307.6,501.4,294.1,486.4,290.2z M51.2,442.6
		C51.2,442.6,51.2,442.5,51.2,442.6l-17.1,0c-9.4,0-17.1-7.6-17.1-17.1V323.7c0-10.2,8.4-18.4,18.5-17.6c8.7,0.7,15.6,8.1,15.6,17
		v119.4L51.2,442.6C51.2,442.5,51.2,442.6,51.2,442.6z M68.4,408.5c0-18.9,15.2-34.1,34-34.1h307.2c18.8,0,34.1,15.2,34.1,34
		c0,0.1,0,0.1-0.1,0.1H68.4C68.3,408.5,68.3,408.4,68.4,408.5z M80.7,493.8C80.7,493.8,80.7,493.8,80.7,493.8
		C80.7,493.8,80.7,493.8,80.7,493.8h-9c-0.1,0-0.1-0.1-0.1-0.1l11.3-33.9c0,0,0-0.1,0.1-0.1h20.3c0.1,0,0.1,0.1,0.1,0.1L80.7,493.8z
		 M440.3,493.9l-9.1-0.1l-22.6-33.9c0-0.1,0-0.1,0.1-0.1H429c0,0,0.1,0,0.1,0.1l11.3,33.9C440.4,493.9,440.4,493.9,440.3,493.9z
		 M443.7,442.6C443.7,442.6,443.7,442.6,443.7,442.6H68.4c-0.1,0-0.1,0-0.1-0.1v-16.9c0-0.1,0-0.1,0.1-0.1h375.3
		c0.1,0,0.1,0,0.1,0.1L443.7,442.6C443.7,442.6,443.7,442.6,443.7,442.6z M477.8,442.6h-17c-0.1,0-0.1,0-0.1-0.1V323.7
		c0-10.2,8.4-18.4,18.5-17.6c8.7,0.7,15.6,8.1,15.6,17v102.4h0.1C494.9,434.9,487.3,442.6,477.8,442.6z"/>
</g>
</svg>
