<?xml version="1.0"?>
<svg xmlns="http://www.w3.org/2000/svg" viewBox="0 0 64 64" width="512" height="512"><g id="Invoice"><path d="M27,17a1,1,0,0,0,.707-.293l3-3-1.414-1.414L28,13.586V11a1,1,0,0,1,1-1h9V8H29a3,3,0,0,0-3,3v2.586l-1.293-1.293-1.414,1.414,3,3A1,1,0,0,0,27,17Z"/><path d="M55.293,29.293l-3,3,1.414,1.414L55,32.414V42a1,1,0,0,1-1,1H50V29H48V43H27v2H48v4H6V24a3,3,0,0,1,3-3H38V19H9a5.006,5.006,0,0,0-5,5V49H3a1,1,0,0,0-1,1v4a3,3,0,0,0,3,3H49a3,3,0,0,0,3-3V50a1,1,0,0,0-1-1H50V45h4a3,3,0,0,0,3-3V32.414l1.293,1.293,1.414-1.414-3-3A1,1,0,0,0,55.293,29.293ZM30,51v1H24V51Zm20,3a1,1,0,0,1-1,1H5a1,1,0,0,1-1-1V51H22v2a1,1,0,0,0,1,1h8a1,1,0,0,0,1-1V51H50Z"/><path d="M31,23H21a2,2,0,0,0-2,2V39a2,2,0,0,0,2,2H33a2,2,0,0,0,2-2V27a1,1,0,0,0-.293-.707l-3-3A1,1,0,0,0,31,23Zm1.586,4H31V25.414ZM21,39V25h8v3a1,1,0,0,0,1,1h3l0,10Z"/><path d="M60,7H42a2,2,0,0,0-2,2V25a2,2,0,0,0,2,2H60a2,2,0,0,0,2-2V9A2,2,0,0,0,60,7Zm0,4H54V9h6ZM52,9v6H50V9ZM48,9v2H42V9ZM42,25V13h6v3a1,1,0,0,0,1,1h4a1,1,0,0,0,1-1V13h6l0,12Z"/><rect x="54" y="21" width="4" height="2"/><rect x="50" y="21" width="2" height="2"/></g></svg>
