<?xml version="1.0" encoding="utf-8"?>
<!-- Generator: Adobe Illustrator 23.0.1, SVG Export Plug-In . SVG Version: 6.00 Build 0)  -->
<svg version="1.1" id="Layer_1" xmlns="http://www.w3.org/2000/svg" xmlns:xlink="http://www.w3.org/1999/xlink" x="0px" y="0px"
	 viewBox="0 0 512 512" style="enable-background:new 0 0 512 512;" xml:space="preserve">
<style type="text/css">
	.st0{fill:none;}
</style>
<g>
	<path class="st0" d="M306.7,379.2l11.6-7.7c3.2-2.1,7.4-1.7,10.1,1l10.3,10.3l10.3-10.3c2.7-2.7,6.9-3.1,10.1-1l11.6,7.7v-33h-64
		V379.2z"/>
	<polygon class="st0" points="330.7,258.2 240.8,258.2 221.2,330.2 330.7,330.2 	"/>
	<polygon class="st0" points="436.6,258.2 346.7,258.2 346.7,330.2 456.2,330.2 	"/>
	<rect x="394.7" y="434.2" class="st0" width="32" height="16"/>
	<path class="st0" d="M386.7,394.2c0,1.6-0.5,3.1-1.3,4.4c-2.5,3.7-7.4,4.7-11.1,2.2l-18.5-12.4l-11.4,11.4c-3.1,3.1-8.2,3.1-11.3,0
		l-11.4-11.4l-18.5,12.4c-1.3,0.9-2.9,1.3-4.4,1.3c-4.4,0-8-3.6-8-8v-48h-72v136h240v-136h-72V394.2z M362.7,466.2h-48v-16h48V466.2
		z M442.7,426.2v32c0,4.4-3.6,8-8,8h-48c-4.4,0-8-3.6-8-8v-32c0-4.4,3.6-8,8-8h48C439.1,418.2,442.7,421.8,442.7,426.2z"/>
	<path d="M474.4,336.1l-24-88c-0.9-3.5-4.1-5.9-7.7-5.9h-208c-3.6,0-6.8,2.4-7.7,5.9l-24,88c-0.2,0.7-0.3,1.4-0.3,2.1v152
		c0,4.4,3.6,8,8,8h256c4.4,0,8-3.6,8-8v-152C474.7,337.5,474.6,336.8,474.4,336.1z M346.7,258.2h89.9l19.6,72H346.7V258.2z
		 M370.7,346.2v33l-11.6-7.7c-3.2-2.1-7.4-1.7-10.1,1l-10.3,10.3l-10.3-10.3c-2.7-2.7-6.9-3.1-10.1-1l-11.6,7.7v-33H370.7z
		 M240.8,258.2h89.9v72H221.2L240.8,258.2z M458.7,482.2h-240v-136h72v48c0,4.4,3.6,8,8,8c1.6,0,3.1-0.5,4.4-1.3l18.5-12.4
		l11.4,11.4c3.1,3.1,8.2,3.1,11.3,0l11.4-11.4l18.5,12.4c3.7,2.5,8.6,1.5,11.1-2.2c0.9-1.3,1.3-2.9,1.3-4.4v-48h72V482.2z"/>
	<path d="M378.7,426.2v32c0,4.4,3.6,8,8,8h48c4.4,0,8-3.6,8-8v-32c0-4.4-3.6-8-8-8h-48C382.3,418.2,378.7,421.8,378.7,426.2z
		 M394.7,434.2h32v16h-32V434.2z"/>
	<rect x="314.7" y="450.2" width="48" height="16"/>
</g>
<path class="st0" d="M432,48H32v48h400V48z M64,80H48V64h16V80z M96,80H80V64h16V80z M128,80h-16V64h16V80z"/>
<path class="st0" d="M82.3,189.7l-16-16l11.3-11.3L88,172.7l20.7-20.7H64v48h48v-28.7l-18.3,18.3C90.5,192.8,85.5,192.8,82.3,189.7z
	"/>
<path class="st0" d="M352,200c0-4.4-3.6-8-8-8h-80c-4.4,0-8,3.6-8,8v48h96V200z"/>
<path class="st0" d="M82.3,301.7l-16-16l11.3-11.3L88,284.7l20.7-20.7H64v48h48v-28.7l-18.3,18.3C90.5,304.8,85.5,304.8,82.3,301.7z
	"/>
<path class="st0" d="M144,152h16v16h-16V152z M144,264h16v16h-16V264z M128,267.3V320c0,4.4-3.6,8-8,8H56c-4.4,0-8-3.6-8-8v-64
	c0-4.4,3.6-8,8-8h64c1.3,0,2.6,0.4,3.7,1l6.7-6.7l11.3,11.3L128,267.3z M128,155.3V208c0,4.4-3.6,8-8,8H56c-4.4,0-8-3.6-8-8v-64
	c0-4.4,3.6-8,8-8h64c1.3,0,2.6,0.4,3.7,1l6.7-6.7l11.3,11.3L128,155.3z M176,320h-32v-16h32V320z M176,208h-32v-16h32V208z"/>
<path d="M32,400V112h400v109.4h16V40c0-4.4-3.6-8-8-8H24c-4.4,0-8,3.6-8,8v368c0,4.4,3.6,8,8,8h158.1v-16H32z M32,48h400v48H32V48z"
	/>
<rect x="48" y="64" width="16" height="16"/>
<rect x="80" y="64" width="16" height="16"/>
<rect x="112" y="64" width="16" height="16"/>
<path d="M123.7,137c-1.1-0.6-2.4-1-3.7-1H56c-4.4,0-8,3.6-8,8v64c0,4.4,3.6,8,8,8h64c4.4,0,8-3.6,8-8v-52.7l13.7-13.7l-11.3-11.3
	L123.7,137z M112,200H64v-48h44.7L88,172.7l-10.3-10.3l-11.3,11.3l16,16c3.1,3.1,8.2,3.1,11.3,0l18.3-18.3V200z"/>
<rect x="144" y="152" width="16" height="16"/>
<rect x="144" y="192" width="32" height="16"/>
<path d="M123.7,249c-1.1-0.6-2.4-1-3.7-1H56c-4.4,0-8,3.6-8,8v64c0,4.4,3.6,8,8,8h64c4.4,0,8-3.6,8-8v-52.7l13.7-13.7l-11.3-11.3
	L123.7,249z M112,312H64v-48h44.7L88,284.7l-10.3-10.3l-11.3,11.3l16,16c3.1,3.1,8.2,3.1,11.3,0l18.3-18.3V312z"/>
<rect x="144" y="264" width="16" height="16"/>
<rect x="144" y="304" width="32" height="16"/>
</svg>
