<?xml version="1.0"?>
<svg xmlns="http://www.w3.org/2000/svg" viewBox="0 0 64 64" width="512" height="512"><g id="Operator"><path d="M48.305,48.684,39,46.229V43.114A13.959,13.959,0,0,0,43.5,39H44a5.006,5.006,0,0,0,5-5,3,3,0,0,0,3-3V25a3,3,0,0,0-2-2.816V15A13.015,13.015,0,0,0,37,2H27A13.015,13.015,0,0,0,14,15v7.184A3,3,0,0,0,12,25v6a3,3,0,0,0,3,3h3.331A13.922,13.922,0,0,0,25,43.112v3.117l-9.3,2.454A12.671,12.671,0,0,0,6,61a1,1,0,0,0,1,1H57a1,1,0,0,0,1-1A12.669,12.669,0,0,0,48.305,48.684ZM27,44.07a13.906,13.906,0,0,0,10,0v2.56l-5,5.834L27,46.63ZM45,18.2c-1.294-.315-2.73-.645-4.191-.954l2.81-6.739A3,3,0,0,1,45,13.03Zm-6.19-1.357A40.243,40.243,0,0,0,32,16a43.591,43.591,0,0,0-7.612,1L22,9.843A44.154,44.154,0,0,1,32,8a47.846,47.846,0,0,1,9.725,1.855ZM20.147,10.611l2.269,6.8c-1.192.26-2.351.53-3.416.79V12.96A3,3,0,0,1,20.147,10.611Zm-.554,13.642a1,1,0,0,1-.8-.021.986.986,0,0,1-.525-.589l-.3-.9a2,2,0,0,1,1.424-2.575C22.7,19.356,28.746,18,32,18s9.3,1.356,12.608,2.165a2,2,0,0,1,1.424,2.575l-.3.9a1,1,0,0,1-1.324.61c-.685-.274-1.516-.649-2.432-1.064C38.832,21.769,34.919,20,32,20s-6.832,1.769-9.975,3.189C21.109,23.6,20.278,23.979,19.593,24.253Zm25.1,12.659A13.89,13.89,0,0,0,45.675,34H47A3,3,0,0,1,44.691,36.912ZM50,31a1,1,0,0,1-1,1H46V26.062c.016-.007.032-.009.048-.016a3.009,3.009,0,0,0,1.581-1.771L47.721,24H49a1,1,0,0,1,1,1ZM27,4H37A11.013,11.013,0,0,1,48,15v6.143a3.562,3.562,0,0,0-1-1.8V13.03a5,5,0,0,0-3.688-4.825C39.6,7.2,34.631,6,32,6c-3.261,0-8,1.175-11.4,2.159a5.009,5.009,0,0,0-3.6,4.8v6.381a3.562,3.562,0,0,0-1,1.8V15A11.013,11.013,0,0,1,27,4ZM18,32H15a1,1,0,0,1-1-1V25a1,1,0,0,1,1-1h1.279l.092.275a3.009,3.009,0,0,0,1.581,1.771c.016.007.032.009.048.016V32Zm2-1V26.208a2.777,2.777,0,0,0,.334-.1c.709-.282,1.568-.671,2.515-1.1C25.661,23.741,29.512,22,32,22s6.339,1.741,9.151,3.012c.947.427,1.806.816,2.514,1.1a2.832,2.832,0,0,0,.335.095V31a11.982,11.982,0,0,1-1.606,6H35.816A3,3,0,0,0,33,35H31a3,3,0,0,0,0,6h2a3,3,0,0,0,2.816-2h5.128A12,12,0,0,1,20,31Zm14,7a1,1,0,0,1-1,1H31a1,1,0,0,1,0-2h2A1,1,0,0,1,34,38ZM25.649,48.127l5.592,6.523a1,1,0,0,0,1.518,0l5.592-6.523,1.264.333L32,57.452,24.385,48.46ZM47,60V56H45v4H19V56H17v4H8.046A10.718,10.718,0,0,1,16.2,50.617l6.037-1.592,8.995,10.621a1,1,0,0,0,1.526,0l9-10.621L47.8,50.618A10.716,10.716,0,0,1,55.954,60Z"/><path d="M32,34a3,3,0,0,0,3-3V27H33v4a1,1,0,0,1-2,0V27H29v4A3,3,0,0,0,32,34Z"/><circle cx="26" cy="27" r="1"/><circle cx="38" cy="27" r="1"/></g></svg>
