<?xml version="1.0"?>
<svg xmlns="http://www.w3.org/2000/svg" viewBox="0 0 64 64" width="512" height="512"><g id="Payment_Method" data-name="Payment Method"><path d="M57,21H54v2h3a3,3,0,0,1,3,3V54a3,3,0,0,1-3,3H7a3,3,0,0,1-3-3V26a3,3,0,0,1,3-3H20V21H7a5.006,5.006,0,0,0-5,5V54a5.006,5.006,0,0,0,5,5H57a5.006,5.006,0,0,0,5-5V26A5.006,5.006,0,0,0,57,21Z"/><path d="M19,27H9a1,1,0,0,0-1,1V38a1,1,0,0,0,1,1H19a1,1,0,0,0,1-1V28A1,1,0,0,0,19,27Zm-1,4H14V29h4Zm-6-2v2H10V29Zm-2,4h2v4H10Zm4,4V33h4v4Z"/><path d="M46.5,42.143a6,6,0,1,0,0,9.714,6,6,0,1,0,0-9.714ZM39,47a4.007,4.007,0,0,1,6.793-2.873,4.021,4.021,0,0,1,0,5.741A4.006,4.006,0,0,1,39,47Zm15,0a4.01,4.01,0,0,1-6.074,3.428.275.275,0,0,1,.017-.029,6.274,6.274,0,0,0,.405-.689c.028-.055.053-.111.08-.167a6.008,6.008,0,0,0,.275-.69c.008-.024.018-.046.025-.069A5.926,5.926,0,0,0,48.91,48c.01-.063.019-.126.028-.189a5.388,5.388,0,0,0,0-1.63c-.009-.063-.018-.127-.029-.19a5.876,5.876,0,0,0-.18-.777c-.008-.026-.02-.052-.028-.078a6.017,6.017,0,0,0-.27-.673c-.029-.062-.057-.124-.088-.185a5.961,5.961,0,0,0-.4-.675c-.008-.011-.013-.024-.02-.035A4.01,4.01,0,0,1,54,47Z"/><rect x="8" y="46" width="4" height="2"/><rect x="14" y="46" width="4" height="2"/><rect x="20" y="46" width="4" height="2"/><rect x="26" y="46" width="4" height="2"/><rect x="8" y="51" width="8" height="2"/><rect x="18" y="51" width="12" height="2"/><path d="M24,33H50a2,2,0,0,0,2-2V7a2,2,0,0,0-2-2H24a2,2,0,0,0-2,2V31A2,2,0,0,0,24,33Zm0-2V15h8v2a2,2,0,0,0,2,2h6a2,2,0,0,0,2-2V15h8V31Zm8-18H24V11h8Zm10-2h8v2H42Zm8-2H42V7h8ZM40,7l0,10H34V7ZM32,7V9H24V7Z"/><rect x="44" y="26" width="4" height="2"/><rect x="40" y="26" width="2" height="2"/></g></svg>
