<?xml version="1.0"?>
<svg xmlns="http://www.w3.org/2000/svg" viewBox="0 0 64 64" width="512" height="512"><g id="Delivery-2" data-name="Delivery"><path d="M61.707,28.293,49.293,15.879A2.978,2.978,0,0,0,47.172,15H13a3,3,0,0,0-3,3V40a3,3,0,0,0,3,3h2.08a6.975,6.975,0,0,0,2.031,4H2v2H50a7,7,0,0,0,6.92-6H59a3,3,0,0,0,3-3V29A1,1,0,0,0,61.707,28.293ZM60,30H45V21h6.586L60,29.414ZM17,42a5,5,0,1,1,5,5A5.006,5.006,0,0,1,17,42Zm9.889,5a6.975,6.975,0,0,0,2.031-4H43.08a6.975,6.975,0,0,0,2.031,4ZM50,47a5,5,0,1,1,5-5A5.006,5.006,0,0,1,50,47Zm9-6H56.92a6.991,6.991,0,0,0-13.84,0H28.92a6.991,6.991,0,0,0-13.84,0H13a1,1,0,0,1-1-1V18a1,1,0,0,1,1-1H47.172a1.009,1.009,0,0,1,.707.293L49.586,19H45a2,2,0,0,0-2,2v9a2,2,0,0,0,2,2H60v8A1,1,0,0,1,59,41Z"/><rect x="21" y="41" width="2" height="2"/><rect x="49" y="41" width="2" height="2"/><rect x="6" y="39" width="2" height="2"/><rect x="2" y="39" width="2" height="2"/><rect x="7" y="43" width="2" height="2"/><rect x="3" y="43" width="2" height="2"/><path d="M35,19H23a2,2,0,0,0-2,2V31a2,2,0,0,0,2,2H35a2,2,0,0,0,2-2V21A2,2,0,0,0,35,19Zm0,4H32V21h3Zm-5-2v4H28V21Zm-4,0v2H23V21ZM23,31V25h3v1a1,1,0,0,0,1,1h4a1,1,0,0,0,1-1V25h3v6Z"/><rect x="14" y="29" width="5" height="2"/><rect x="16" y="25" width="3" height="2"/><rect x="17" y="21" width="2" height="2"/></g></svg>
