<svg height="496pt" viewBox="0 0 496 496" width="496pt" xmlns="http://www.w3.org/2000/svg"><path d="m480 416v-264c0-22.054688-17.945312-40-40-40h-40v-112h-304v112h-40c-22.054688 0-40 17.945312-40 40v264h-16v40c0 22.054688 17.945312 40 40 40h416c22.054688 0 40-17.945312 40-40v-40zm-40-288c13.230469 0 24 10.769531 24 24v264h-16v-256c0-8.824219-7.175781-16-16-16h-32v-16zm-264 304h144v8c0 4.40625-3.59375 8-8 8h-128c-4.40625 0-8-3.59375-8-8zm-112-16v-256h32v208h304v-208h32v256zm48-336h272v272h-272zm272-64v48h-272v-48zm-352 136c0-13.230469 10.769531-24 24-24h40v16h-32c-8.824219 0-16 7.175781-16 16v256h-16zm448 304c0 13.230469-10.769531 24-24 24h-416c-13.230469 0-24-10.769531-24-24v-24h144v8c0 13.230469 10.769531 24 24 24h128c13.230469 0 24-10.769531 24-24v-8h144zm0 0"/><path d="m48 448h16v16h-16zm0 0"/><path d="m80 448h16v16h-16zm0 0"/><path d="m112 448h16v16h-16zm0 0"/><path d="m128 32h16v16h-16zm0 0"/><path d="m160 32h16v16h-16zm0 0"/><path d="m192 32h16v16h-16zm0 0"/><path d="m208 208h160v-112h-160zm16-96h128v80h-128zm0 0"/><path d="m128 96h64v16h-64zm0 0"/><path d="m128 128h64v16h-64zm0 0"/><path d="m128 160h64v16h-64zm0 0"/><path d="m128 192h64v16h-64zm0 0"/><path d="m128 336h160v-112h-160zm16-96h128v80h-128zm0 0"/><path d="m304 224h64v16h-64zm0 0"/><path d="m304 256h64v16h-64zm0 0"/><path d="m304 288h64v16h-64zm0 0"/><path d="m304 320h64v16h-64zm0 0"/></svg>