<?xml version="1.0" encoding="utf-8"?>
<!-- Generator: Adobe Illustrator 18.0.0, SVG Export Plug-In . SVG Version: 6.00 Build 0)  -->
<!DOCTYPE svg PUBLIC "-//W3C//DTD SVG 1.1//EN" "http://www.w3.org/Graphics/SVG/1.1/DTD/svg11.dtd">
<svg version="1.1" id="Objects" xmlns="http://www.w3.org/2000/svg" xmlns:xlink="http://www.w3.org/1999/xlink" x="0px" y="0px"
	 viewBox="0 0 495 406.4" enable-background="new 0 0 495 406.4" xml:space="preserve">
<g id="XMLID_603_">
	<g>
		
			<line fill="none" stroke="#BC3939" stroke-width="4" stroke-linecap="round" stroke-linejoin="round" x1="396.6" y1="300.5" x2="391.4" y2="297.5"/>
		
			<line fill="none" stroke="#BC3939" stroke-width="4" stroke-linecap="round" stroke-linejoin="round" stroke-dasharray="10.3209,10.3209" x1="382.5" y1="292.3" x2="333.3" y2="263.9"/>
		<polyline fill="none" stroke="#BC3939" stroke-width="4" stroke-linecap="round" stroke-linejoin="round" points="328.8,261.4 
			323.6,258.4 323.6,252.4 		"/>
		
			<line fill="none" stroke="#BC3939" stroke-width="4" stroke-linecap="round" stroke-linejoin="round" stroke-dasharray="11.181,11.181" x1="323.6" y1="241.2" x2="323.6" y2="224.4"/>
		
			<line fill="none" stroke="#BC3939" stroke-width="4" stroke-linecap="round" stroke-linejoin="round" x1="323.6" y1="218.8" x2="323.6" y2="212.8"/>
	</g>
</g>
<polyline id="XMLID_1496_" fill="none" stroke="#BC3939" stroke-width="4" stroke-linecap="round" stroke-linejoin="round" stroke-miterlimit="10" stroke-dasharray="12" points="
	230.2,372.6 194.9,393.6 138.9,358.8 138.9,313.8 "/>
<linearGradient id="XMLID_5_" gradientUnits="userSpaceOnUse" x1="459.4335" y1="199.7448" x2="221.7237" y2="357.8947" gradientTransform="matrix(-1 0 0 1 492.3074 0)">
	<stop  offset="3.627230e-003" style="stop-color:#FFFFFF;stop-opacity:0"/>
	<stop  offset="1" style="stop-color:#000000"/>
</linearGradient>
<path id="XMLID_4043_" opacity="0.27" fill="url(#XMLID_5_)" d="M293.4,249.3l-65.2-37.5l-93.4,5.5L2.3,295.1
	c-3.1,1.8-3.1,6.4,0.1,8.1l107.5,59.5c2.3,1.3,5.1,1.2,7.3-0.1l20.7-12.2v0.1l8.8-5.3l24.7-14.6h58.8L210.4,307l83.1-49.7
	C296.5,255.5,296.5,251.1,293.4,249.3z"/>
<path id="XMLID_4042_" fill="#A9A9AA" d="M283,306.2l-36.3,20.9c-8.8,5.1-23.4,4.5-31-1.2l-44.3-35.8L220,262l60.9,26.3
	C290.8,292.6,291.8,301.1,283,306.2z"/>
<path id="XMLID_4041_" fill="#D0D2D3" d="M283,302L246.7,323c-8.8,5.1-23.4,4.5-31-1.2l-41.4-33.5l48.6-28.1l58,23.9
	C290.8,288.5,291.8,296.9,283,302z"/>
<path id="XMLID_4040_" fill="#E5E5E5" d="M283,302L246.7,323c-8.8,5.1-23.4,4.5-31-1.2l-41.4-33.5l48.6-28.1l58,23.9
	C290.8,288.5,291.8,296.9,283,302z"/>
<linearGradient id="XMLID_6_" gradientUnits="userSpaceOnUse" x1="248.3997" y1="302.1616" x2="278.3067" y2="270.9543" gradientTransform="matrix(-1 0 0 1 492.3074 0)">
	<stop  offset="0" style="stop-color:#FFFFFF;stop-opacity:0"/>
	<stop  offset="0.5387" style="stop-color:#EEEEEE;stop-opacity:0.5387"/>
	<stop  offset="1" style="stop-color:#E5E5E5"/>
</linearGradient>
<path id="XMLID_4039_" fill="url(#XMLID_6_)" d="M283,302L246.7,323c-8.8,5.1-23.4,4.5-31-1.2l-41.4-33.5l48.6-28.1l58,23.9
	C290.8,288.5,291.8,296.9,283,302z"/>
<polygon id="XMLID_4038_" fill="#A9A9AA" points="121.7,313.9 112.3,308.7 112.3,325.4 121.7,330.6 "/>
<polygon id="XMLID_4037_" fill="#F5F5F5" points="121.7,313.9 121.7,330.6 345.2,201.6 345.2,184.9 "/>
<polygon id="XMLID_4036_" fill="#2E3B47" points="121.2,134.2 111.8,129 112.3,308.7 121.7,313.9 "/>
<polygon id="XMLID_4035_" fill="#444F5C" points="344.7,5.2 335.2,0 111.8,129 121.2,134.2 "/>
<polygon id="XMLID_4033_" fill="#656E79" points="121.2,134.2 121.7,313.9 345.2,184.9 344.7,5.2 "/>
<polygon id="XMLID_4031_" fill="#272B2D" points="128.6,138.2 129.1,302.6 337.8,180.9 337.3,16.5 "/>
<polygon id="XMLID_1002_" fill="#3AB6B6" points="128.8,196.2 128.8,138.2 245.6,73.5 245.5,129.9 "/>
<polygon id="XMLID_1006_" fill="#BDDBD7" points="128.8,196.2 245.6,128.1 332.9,178.5 129.1,297.4 "/>
<polygon id="XMLID_996_" fill="#7DC9C6" points="332.9,178.5 245.6,128.1 245.6,73.5 332.9,27.8 "/>
<g id="XMLID_1005_">
	<defs>
		<polygon id="XMLID_1003_" points="128.6,138.2 129.1,302.6 337.8,180.9 337.3,16.5 		"/>
	</defs>
	<clipPath id="XMLID_7_">
		<use xlink:href="#XMLID_1003_"  overflow="visible"/>
	</clipPath>
	<g clip-path="url(#XMLID_7_)">
		<g>
			<g enable-background="new    ">
				<g>
					<polygon fill="#BDBDBD" points="278.7,194.9 280,194.1 280,198.8 278.7,199.6 					"/>
				</g>
				<g>
					<polygon fill="#ECC6AF" points="277.2,194 278.5,193.3 280,194.1 278.7,194.9 					"/>
				</g>
				<g>
					<polygon fill="#969696" points="278.7,194.9 278.7,199.6 277.2,198.7 277.2,194 					"/>
				</g>
			</g>
		</g>
		<g>
			<g enable-background="new    ">
				<g>
					<polygon fill="#D7D7D7" points="322.2,170 323.5,169.2 323.5,173.9 322.1,174.7 					"/>
				</g>
				<g>
					<polygon fill="#ECC6AF" points="320.6,169.1 322,168.4 323.5,169.2 322.2,170 					"/>
				</g>
				<g>
					<polygon fill="#969696" points="322.2,170 322.1,174.7 320.6,173.8 320.6,169.1 					"/>
				</g>
			</g>
		</g>
		<g>
			<g enable-background="new    ">
				<g>
					<polygon fill="#969696" points="244.4,175.3 245.8,174.5 245.7,179.2 244.4,180 					"/>
				</g>
				<g>
					<polygon fill="#ECC6AF" points="242.9,174.4 244.2,173.6 245.8,174.5 244.4,175.3 					"/>
				</g>
				<g>
					<polygon fill="#7A7A7A" points="244.4,175.3 244.4,180 242.9,179.1 242.9,174.4 					"/>
				</g>
			</g>
		</g>
		<g>
			<g enable-background="new    ">
				<g>
					<polygon fill="#8E8A80" points="288.1,132 289.7,131.1 289.7,133 288.1,133.9 					"/>
				</g>
				<g>
					<polygon fill="#E2E8F2" points="286.4,131 287.9,130.1 289.8,131.2 288.2,132.1 					"/>
				</g>
				<g>
					<polygon fill="#E2E8F2" points="288.1,133.9 289.7,133 321.6,151.5 320.1,152.4 					"/>
				</g>
				<g>
					<polygon fill="#D7D7D7" points="321.9,153.5 323.5,152.5 323.5,172 321.9,172.9 					"/>
				</g>
				<g>
					<polygon fill="#BDBDBD" points="321.9,151.5 323.5,150.6 323.5,152.5 321.9,153.5 					"/>
				</g>
				<g>
					<polygon fill="#E2E8F2" points="320.1,150.5 321.6,149.5 323.5,150.6 321.9,151.5 					"/>
				</g>
				<g>
					<polygon fill="#BDBDBD" points="321.9,151.5 321.9,153.5 321.9,172.9 286.2,152.3 286.2,132.8 286.2,130.9 288.1,132 
						288.1,133.9 320.1,152.4 320.1,150.5 					"/>
				</g>
			</g>
		</g>
		<g>
			<g enable-background="new    ">
				<g>
					<polygon fill="#DAE1EB" points="321.9,168.3 321.9,172.9 278.6,198.1 278.6,193.5 					"/>
				</g>
				<g>
					<polygon fill="#ECECEC" points="321.9,168.3 278.6,193.5 242.9,172.9 286.2,147.7 					"/>
				</g>
			</g>
		</g>
		<g>
			<g enable-background="new    ">
				<g>
					<polygon fill="#DAE1EB" points="321.9,163.8 321.9,168.4 278.6,193.6 278.6,189 					"/>
				</g>
				<g>
					<polygon fill="#E6EDF7" points="321.9,163.8 278.6,189 242.9,168.4 286.2,143.2 					"/>
				</g>
			</g>
		</g>
		<g>
			<g enable-background="new    ">
				<g>
					<polygon fill="#C1D8F7" points="321.9,163.8 321.9,165.9 278.6,191.1 278.6,189 					"/>
				</g>
				<g>
					<polygon fill="#771B26" points="303.7,174.4 278.6,189 278.6,191.1 303.7,176.5 					"/>
				</g>
				<g>
					<polygon fill="#844810" points="278.6,189 278.6,191.1 242.9,170.5 242.9,168.4 					"/>
				</g>
				<g>
					<polygon fill="#D9E6F7" points="321.9,163.8 278.6,189 242.9,168.4 286.2,143.2 					"/>
				</g>
				<g>
					<polygon fill="#BB2833" points="303.7,174.4 278.6,189 242.9,168.4 268,153.8 					"/>
				</g>
			</g>
		</g>
		<g>
			<g enable-background="new    ">
				<g>
					<polygon fill="#771B26" points="317.5,160 317.5,164.2 307.6,170.1 307.6,168.1 					"/>
				</g>
				<g>
					<polygon fill="#F25B14" points="307.6,168.1 307.6,170.1 293.7,162.1 293.7,161.4 					"/>
				</g>
				<g>
					<polygon fill="#BB2833" points="317.5,160 307.6,169.4 293.7,161.4 303.5,151.9 					"/>
				</g>
			</g>
		</g>
		<g>
			<g enable-background="new    ">
				<g>
					<polygon fill="#771B26" points="300.8,150.7 300.8,154.9 290.9,160.8 290.9,158.8 					"/>
				</g>
				<g>
					<polygon fill="#F25B14" points="290.9,158.8 290.9,160.8 277,152.7 277,152.1 					"/>
				</g>
				<g>
					<polygon fill="#BB2833" points="300.8,150.7 290.9,160.1 277,152.1 286.8,142.6 					"/>
				</g>
			</g>
		</g>
		<g>
			<g enable-background="new    ">
				<g>
					<polygon fill="#8E8A80" points="244.8,163.6 246.4,162.7 246.4,164.6 244.8,165.5 					"/>
				</g>
				<g>
					<polygon fill="#E2E8F2" points="243,162.5 244.5,161.6 246.4,162.7 244.8,163.6 					"/>
				</g>
				<g>
					<polygon fill="#E2E8F2" points="244.8,165.5 246.4,164.6 278.4,183.1 276.8,184 					"/>
				</g>
				<polygon fill="#D7D7D7" points="278.7,183.2 278.7,185.1 278.6,198.1 280.2,197.2 280.2,184.2 280.3,182.3 				"/>
				<g>
					<polygon fill="#E2E8F2" points="276.8,182.1 278.4,181.2 280.3,182.3 278.7,183.2 					"/>
				</g>
				<polygon fill="#BDBDBD" points="276.8,182.1 276.8,184 244.8,165.5 244.8,163.6 243,162.5 243,164.5 242.9,168.4 242.9,168.4 
					242.9,170.5 242.9,170.7 242.9,170.7 242.9,173 242.9,173 242.9,177.5 278.6,198.1 278.6,193.5 278.6,193.5 278.6,191.3 
					278.6,191.3 278.7,185.1 278.7,183.2 				"/>
			</g>
		</g>
	</g>
	<g clip-path="url(#XMLID_7_)">
		<g>
			<g enable-background="new    ">
				<g>
					<g enable-background="new    ">
						<path fill="#0C5D8F" d="M229.2,185.3l3.7-2.1c0.2-0.1,0.4-0.2,0.7-0.1l-3.7,2.1C229.6,185.2,229.4,185.2,229.2,185.3
							L229.2,185.3z"/>
						<path fill="#0C5D8F" d="M229.9,185.2l3.7-2.1c0.2,0,0.5,0.1,0.7,0.2l-3.7,2.1C230.4,185.3,230.1,185.2,229.9,185.2
							L229.9,185.2z"/>
						<path fill="#0C5D8F" d="M230.6,185.4l3.7-2.1c0.1,0,0.1,0.1,0.2,0.1l-3.7,2.1C230.7,185.5,230.7,185.4,230.6,185.4
							L230.6,185.4z"/>
					</g>
				</g>
				<g>
					<g enable-background="new    ">
						<path fill="#07334E" d="M251.2,215.2l3.7-2.1c0,0.7-0.3,1.2-0.7,1.4l-3.7,2.1C250.9,216.4,251.2,215.9,251.2,215.2
							L251.2,215.2z"/>
					</g>
				</g>
				<g>
					<polygon fill="#07334E" points="251.2,199.9 254.9,197.7 254.9,213 251.2,215.2 					"/>
				</g>
				<g>
					<polygon fill="#0C5D8F" points="230.8,185.5 234.5,183.4 252.7,193.9 249,196 					"/>
				</g>
				<g enable-background="new    ">
					<g enable-background="new    ">
						<path fill="#0C5D8F" d="M249,196l3.7-2.1c0.9,0.5,1.6,1.5,2,2.6l-3.7,2.1C250.6,197.5,249.9,196.5,249,196L249,196z"/>
						<path fill="#07334E" d="M251,198.6l3.7-2.1c0.1,0.3,0.2,0.7,0.2,1l-3.7,2.1C251.2,199.3,251.1,198.9,251,198.6L251,198.6z"/>
						<path fill="#07334E" d="M251.2,199.6l3.7-2.1c0,0.1,0,0.2,0,0.3l-3.7,2.1C251.2,199.8,251.2,199.7,251.2,199.6L251.2,199.6z"
							/>
					</g>
				</g>
				<g>
					<path fill="#0A4B73" d="M249,196c1.2,0.7,2.2,2.4,2.2,3.9l0,15.3c0,1.4-1,2-2.2,1.3l-18.2-10.5c-1.2-0.7-2.2-2.4-2.2-3.9
						l0-15.3c0-1.4,1-2,2.2-1.3L249,196z"/>
				</g>
			</g>
		</g>
		<g>
			<g enable-background="new    ">
				<g>
					<g enable-background="new    ">
						<path fill="#BB2833" d="M232.3,174.6l-3.2-1.8c0.7-0.4,1.3-0.4,1.8-0.2l3.2,1.8C233.6,174.2,233,174.2,232.3,174.6
							L232.3,174.6z"/>
					</g>
				</g>
				<g enable-background="new    ">
					<g enable-background="new    ">
						<path fill="#7295AA" d="M185.7,222l-3.2-1.8c-0.5-0.3-0.7-0.8-0.7-1.6l3.2,1.8C185,221.2,185.3,221.7,185.7,222L185.7,222z"/>
					</g>
				</g>
				<g>
					<polygon fill="#BB2833" points="185,220.4 181.8,218.5 181.8,202.9 185,204.7 					"/>
				</g>
				<g>
					<polygon fill="#BB2833" points="187.5,200.4 184.3,198.5 229.1,172.8 232.3,174.6 					"/>
				</g>
				<g>
					<g enable-background="new    ">
						<path fill="#BB2833" d="M185,204.7l-3.2-1.8c0-1.6,1.1-3.6,2.5-4.4l3.2,1.8C186.1,201.2,185,203.1,185,204.7L185,204.7z"/>
					</g>
				</g>
				<g>
					<path fill="#771B26" d="M232.3,174.6c1.4-0.8,2.5-0.2,2.5,1.5l0,18.6c0,1.6-1.1,0.6-2.5,1.4l-44.8,25.8
						c-1.4,0.8-2.5,0.2-2.5-1.5l0-15.6c0-1.6,1.1-3.6,2.5-4.4L232.3,174.6z"/>
				</g>
			</g>
		</g>
		<g>
			<g enable-background="new    ">
				<g>
					<g enable-background="new    ">
						<path fill="#072E47" d="M251.7,209.8l0,5.3c0,0.5-0.3,0.9-0.9,1.3l0-5.3C251.4,210.7,251.7,210.3,251.7,209.8L251.7,209.8z"/>
					</g>
				</g>
				<g>
					<g enable-background="new    ">
						<path fill="#072E47" d="M190.5,226.6l0,5.3c-0.6-0.4-0.9-0.8-0.9-1.3l0-5.3C189.5,225.8,189.9,226.2,190.5,226.6L190.5,226.6z
							"/>
					</g>
				</g>
				<g>
					<polygon fill="#072E47" points="250.8,211.1 250.8,216.4 206.2,242.4 209.6,235 					"/>
				</g>
				<g>
					<polygon fill="#072E47" points="205.1,235 205.1,240.4 190.5,231.9 190.5,226.6 					"/>
				</g>
				<g>
					<g enable-background="new    ">
						<path fill="#072E47" d="M209.6,235l0,5.3c-1.2,0.7-3.2,0.7-4.5,0l0-5.3C206.4,235.8,208.4,235.8,209.6,235L209.6,235z"/>
					</g>
				</g>
				<g>
					<path fill="#0B517D" d="M250.8,208.5c1.2,0.7,1.2,1.9,0,2.6L209.6,235c-1.2,0.7-3.2,0.7-4.5,0l-14.7-8.5
						c-1.2-0.7-1.2-1.9,0-2.6l41.2-23.9c1.2-0.7,3.2-0.7,4.5,0L250.8,208.5z"/>
				</g>
			</g>
		</g>
		<g>
			<g enable-background="new    ">
				<path fill="#771B26" d="M250.8,205.4l-41.2,23.9c-1.2,0.7-3.2,0.7-4.5,0l-14.7-8.5c-0.6-0.4-0.9-0.8-0.9-1.3l0,5.3
					c0,0.5,0.3,0.9,0.9,1.3l14.7,8.5c1.2,0.7,3.2,0.7,4.5,0l41.2-23.9c0.6-0.4,0.9-0.8,0.9-1.3l0-5.3
					C251.7,204.6,251.4,205.1,250.8,205.4z"/>
				<g>
					<path fill="#BB2833" d="M250.8,202.8c1.2,0.7,1.2,1.9,0,2.6l-41.2,23.9c-1.2,0.7-3.2,0.7-4.5,0l-14.7-8.5
						c-1.2-0.7-1.2-1.9,0-2.6l41.2-23.9c1.2-0.7,3.2-0.7,4.5,0L250.8,202.8z"/>
				</g>
			</g>
		</g>
		<g>
			<g enable-background="new    ">
				<g>
					<g enable-background="new    ">
						<path fill="#07334E" d="M204.4,242.4l3.7-2.1c0,0.7-0.3,1.2-0.7,1.4l-3.7,2.1C204.1,243.6,204.4,243.1,204.4,242.4
							L204.4,242.4z"/>
					</g>
				</g>
				<g>
					<polygon fill="#07334E" points="204.4,228.7 208.1,226.5 208.1,240.2 204.4,242.4 					"/>
				</g>
				<g enable-background="new    ">
					<g enable-background="new    ">
						<path fill="#0A4B73" d="M205.9,222.7l-18.2-10.5c-0.1,0-0.1-0.1-0.2-0.1c-0.3-0.1-0.5-0.2-0.7-0.2c-0.2,0-0.5,0-0.7,0.1
							l-3.7,2.1c0.2-0.1,0.4-0.2,0.7-0.1c0.2,0,0.5,0.1,0.7,0.2c0.1,0,0.1,0.1,0.2,0.1l18.2,10.5c0.9,0.5,1.6,1.5,2,2.6l3.7-2.1
							C207.5,224.2,206.7,223.2,205.9,222.7z"/>
						<path fill="#07334E" d="M204.2,227.4l3.7-2.1c0.1,0.3,0.2,0.7,0.2,1l-3.7,2.1C204.4,228.1,204.3,227.7,204.2,227.4
							L204.2,227.4z"/>
						<path fill="#07334E" d="M204.4,228.4l3.7-2.1c0,0.1,0,0.2,0,0.3l-3.7,2.1C204.4,228.6,204.4,228.5,204.4,228.4L204.4,228.4z"
							/>
					</g>
				</g>
				<g>
					<path fill="#0C5D8F" d="M202.2,224.8c1.2,0.7,2.2,2.4,2.2,3.9l0,13.7c0,1.4-1,2-2.2,1.3l-18.2-10.5c-1.2-0.7-2.2-2.4-2.2-3.9
						l0-13.7c0-1.4,1-2,2.2-1.3L202.2,224.8z"/>
				</g>
			</g>
		</g>
	</g>
	<g clip-path="url(#XMLID_7_)">
		<g>
			<polygon fill="#250E01" points="262.1,142.8 249.4,135.5 249.4,125.1 262,132.5 			"/>
		</g>
		<g>
			<polygon fill="#250E01" points="262,130.9 249.4,123.5 249.4,112.2 262,119.6 			"/>
		</g>
		<g>
			<polygon fill="#250E01" points="262,117.9 249.4,110.6 249.3,99.3 262,106.6 			"/>
		</g>
		<g>
			<polygon fill="#451B01" points="224.7,164.4 212.1,157.1 249.4,135.5 262.1,142.8 			"/>
		</g>
		<g enable-background="new    ">
			<g>
				<g>
					<polygon fill="#913900" points="231.7,159.1 226.5,156 226.5,148.6 231.7,151.6 					"/>
				</g>
				<g>
					<polygon fill="#DE5800" points="231.7,151.6 226.5,148.6 228.8,147.3 234,150.3 					"/>
				</g>
				<g>
					<polygon fill="#953B00" points="234,150.3 234,157.8 231.7,159.1 231.7,151.6 					"/>
				</g>
			</g>
			<g>
				<polygon fill="#072F49" points="229.8,160.2 224.6,157.2 224.6,150 229.8,153 				"/>
			</g>
			<g>
				<polygon fill="#052438" points="229.8,153 224.6,150 224.6,147 229.8,150.1 				"/>
			</g>
			<g>
				<polygon fill="#0A476D" points="229.8,150.1 224.6,147 226.5,145.9 231.7,148.9 				"/>
			</g>
			<g>
				<polygon fill="#07314B" points="231.7,148.9 231.7,154.5 231.7,159.1 229.8,160.2 229.8,153 229.8,150.1 				"/>
			</g>
		</g>
		<g enable-background="new    ">
			<g>
				<polygon fill="#49797F" points="228.7,160.8 223.5,157.8 223.5,150.7 228.6,153.7 				"/>
			</g>
			<g>
				<polygon fill="#71BDC3" points="228.6,153.7 223.5,150.7 224.6,150 229.8,153 				"/>
			</g>
			<g>
				<polygon fill="#4C7D83" points="229.8,153 229.8,160.2 228.7,160.8 228.6,153.7 				"/>
			</g>
		</g>
		<g>
			<g enable-background="new    ">
				<g>
					<polygon fill="#2B6B69" points="257.3,142.9 249.6,138.5 247.6,135.2 255.2,139.6 					"/>
				</g>
				<g>
					<polygon fill="#4EC4C0" points="255.2,139.6 247.6,135.2 248.6,134.1 256.2,138.5 					"/>
				</g>
				<g>
					<polygon fill="#307876" points="256.2,138.5 258.2,141.8 257.3,142.9 255.2,139.6 					"/>
				</g>
			</g>
		</g>
		<g>
			<g enable-background="new    ">
				<g>
					<polygon fill="#77827F" points="254.6,145.5 249.5,142.5 249.5,134.5 254.6,137.4 					"/>
				</g>
				<g>
					<polygon fill="#DDF2ED" points="254.6,137.4 249.5,134.5 250.3,134 255.4,137 					"/>
				</g>
				<g>
					<polygon fill="#7C8885" points="255.4,137 255.4,145 254.6,145.5 254.6,137.4 					"/>
				</g>
			</g>
		</g>
		<g>
			<g enable-background="new    ">
				<g>
					<polygon fill="#884B00" points="252.5,146.5 245.3,142.4 245.3,133.8 252.5,137.9 					"/>
				</g>
				<g>
					<polygon fill="#FD8C00" points="252.5,137.9 245.3,133.8 246.5,133 253.7,137.2 					"/>
				</g>
				<g>
					<polygon fill="#8E4E00" points="253.7,137.2 253.7,145.8 252.5,146.5 252.5,137.9 					"/>
				</g>
			</g>
		</g>
		<g>
			<g enable-background="new    ">
				<g>
					<polygon fill="#840C0C" points="251.3,147.4 243.2,142.7 243.2,133 251.3,137.7 					"/>
				</g>
				<g>
					<polygon fill="#F71616" points="251.3,137.7 243.2,133 244.4,132.3 252.5,137 					"/>
				</g>
				<g>
					<polygon fill="#8B0C0C" points="252.5,137 252.5,146.7 251.3,147.4 251.3,137.7 					"/>
				</g>
			</g>
		</g>
		<g>
			<polygon fill="#250E01" points="261.9,105 249.3,97.7 249.3,86.7 261.9,94 			"/>
		</g>
		<g>
			<polygon fill="#451B01" points="224.6,152.4 212,145.1 249.4,123.5 262,130.9 			"/>
		</g>
		<g>
			<g enable-background="new    ">
				<g>
					<polygon fill="#886C00" points="229.3,149.2 219.2,143.3 219.2,142.2 229.3,148.1 					"/>
				</g>
				<g>
					<polygon fill="#FEC900" points="229.3,148.1 219.2,142.2 228.1,137.1 238.1,143 					"/>
				</g>
				<g>
					<polygon fill="#8F7100" points="238.1,143 238.1,144.1 229.3,149.2 229.3,148.1 					"/>
				</g>
			</g>
		</g>
		<g>
			<g enable-background="new    ">
				<g>
					<polygon fill="#343801" points="229.7,147.3 219.6,141.4 219.6,140 229.7,145.8 					"/>
				</g>
				<g>
					<polygon fill="#616801" points="229.7,145.8 219.6,140 226.4,136 236.5,141.9 					"/>
				</g>
				<g>
					<polygon fill="#363A01" points="236.5,141.9 236.5,143.3 229.7,147.3 229.7,145.8 					"/>
				</g>
			</g>
		</g>
		<g>
			<g enable-background="new    ">
				<g>
					<polygon fill="#840C0C" points="228.7,145.9 218.6,140.1 218.6,138.6 228.7,144.4 					"/>
				</g>
				<g>
					<polygon fill="#F71616" points="228.7,144.4 218.6,138.6 225.4,134.7 235.5,140.5 					"/>
				</g>
				<g>
					<polygon fill="#8B0C0C" points="235.5,140.5 235.5,142 228.7,145.9 228.7,144.4 					"/>
				</g>
			</g>
		</g>
		<g>
			<g enable-background="new    ">
				<g>
					<polygon fill="#840C0C" points="257.6,132.7 247.6,126.9 247.6,117.5 257.6,123.3 					"/>
				</g>
				<g>
					<polygon fill="#F71616" points="257.6,123.3 247.6,117.5 249,116.7 259,122.5 					"/>
				</g>
				<g>
					<polygon fill="#8B0C0C" points="259,122.5 259,131.9 257.6,132.7 257.6,123.3 					"/>
				</g>
			</g>
		</g>
		<g>
			<g enable-background="new    ">
				<g>
					<polygon fill="#041B2A" points="255.6,134.4 245.6,128.6 245.5,118.2 255.5,124 					"/>
				</g>
				<g>
					<polygon fill="#07334E" points="255.5,124 245.5,118.2 246.7,117.5 256.7,123.3 					"/>
				</g>
				<g>
					<polygon fill="#041D2C" points="256.7,123.3 256.7,133.8 255.6,134.4 255.5,124 					"/>
				</g>
			</g>
		</g>
		<g>
			<g enable-background="new    ">
				<g>
					<polygon fill="#343801" points="253.5,134.9 246.8,131 246.8,121.3 253.5,125.2 					"/>
				</g>
				<g>
					<polygon fill="#616801" points="253.5,125.2 246.8,121.3 248,120.6 254.7,124.5 					"/>
				</g>
				<g>
					<polygon fill="#363A01" points="254.7,124.5 254.7,134.2 253.5,134.9 253.5,125.2 					"/>
				</g>
			</g>
		</g>
		<g>
			<g enable-background="new    ">
				<g>
					<polygon fill="#9E5500" points="251.1,136.7 244.4,132.8 244.4,122.4 251.1,126.3 					"/>
				</g>
				<g>
					<polygon fill="#FF8800" points="251.1,126.3 244.4,122.4 246.1,121.5 252.7,125.3 					"/>
				</g>
				<g>
					<polygon fill="#D97400" points="252.7,125.3 252.8,135.7 251.1,136.7 251.1,126.3 					"/>
				</g>
			</g>
		</g>
		<g>
			<polygon fill="#451B01" points="224.6,139.5 212,132.2 249.4,110.6 262,117.9 			"/>
		</g>
		<g>
			<g enable-background="new    ">
				<g>
					<polygon fill="#886C00" points="237.3,131.2 229.9,126.9 229.9,126.1 237.3,130.4 					"/>
				</g>
				<g>
					<polygon fill="#FEC900" points="237.3,130.4 229.9,126.1 236.4,122.3 243.8,126.6 					"/>
				</g>
				<g>
					<polygon fill="#8F7100" points="243.8,126.6 243.8,127.4 237.3,131.2 237.3,130.4 					"/>
				</g>
			</g>
		</g>
		<g>
			<g enable-background="new    ">
				<g>
					<polygon fill="#343801" points="237.6,129.8 230.1,125.5 230.1,124.4 237.6,128.7 					"/>
				</g>
				<g>
					<polygon fill="#616801" points="237.6,128.7 230.1,124.4 235.2,121.5 242.6,125.8 					"/>
				</g>
				<g>
					<polygon fill="#363A01" points="242.6,125.8 242.6,126.9 237.6,129.8 237.6,128.7 					"/>
				</g>
			</g>
		</g>
		<g>
			<g enable-background="new    ">
				<g>
					<polygon fill="#840C0C" points="236.8,128.8 229.4,124.5 229.4,123.4 236.8,127.7 					"/>
				</g>
				<g>
					<polygon fill="#F71616" points="236.8,127.7 229.4,123.4 234.4,120.5 241.9,124.8 					"/>
				</g>
				<g>
					<polygon fill="#8B0C0C" points="241.9,124.8 241.9,125.9 236.8,128.8 236.8,127.7 					"/>
				</g>
			</g>
		</g>
		<g>
			<g enable-background="new    ">
				<g>
					<polygon fill="#2B6B69" points="233.8,132.1 226.3,127.8 224.4,124.6 231.8,128.9 					"/>
				</g>
				<g>
					<polygon fill="#4EC4C0" points="231.8,128.9 224.4,124.6 225.3,123.5 232.7,127.8 					"/>
				</g>
				<g>
					<polygon fill="#307876" points="232.7,127.8 234.7,131 233.8,132.1 231.8,128.9 					"/>
				</g>
			</g>
		</g>
		<g>
			<g enable-background="new    ">
				<g>
					<polygon fill="#77827F" points="231.2,134.6 226.2,131.7 226.2,123.9 231.2,126.8 					"/>
				</g>
				<g>
					<polygon fill="#DDF2ED" points="231.2,126.8 226.2,123.9 227,123.4 231.9,126.3 					"/>
				</g>
				<g>
					<polygon fill="#7C8885" points="231.9,126.3 231.9,134.1 231.2,134.6 231.2,126.8 					"/>
				</g>
			</g>
		</g>
		<g>
			<g enable-background="new    ">
				<g>
					<polygon fill="#884B00" points="229.1,135.6 222.2,131.5 222.1,123.2 229.1,127.2 					"/>
				</g>
				<g>
					<polygon fill="#FD8C00" points="229.1,127.2 222.1,123.2 223.3,122.5 230.3,126.5 					"/>
				</g>
				<g>
					<polygon fill="#8E4E00" points="230.3,126.5 230.3,134.9 229.1,135.6 229.1,127.2 					"/>
				</g>
			</g>
		</g>
		<g>
			<g enable-background="new    ">
				<g>
					<polygon fill="#840C0C" points="227.9,136.5 220.1,131.9 220.1,122.5 227.9,127 					"/>
				</g>
				<g>
					<polygon fill="#F71616" points="227.9,127 220.1,122.5 221.3,121.8 229.1,126.3 					"/>
				</g>
				<g>
					<polygon fill="#8B0C0C" points="229.1,126.3 229.2,135.8 227.9,136.5 227.9,127 					"/>
				</g>
			</g>
		</g>
		<g>
			<polygon fill="#451B01" points="224.6,126.6 211.9,119.3 249.3,97.7 261.9,105 			"/>
		</g>
		<g>
			<g enable-background="new    ">
				<g>
					<polygon fill="#072F49" points="256.7,107.1 251.5,104 251.5,100 256.7,103 					"/>
				</g>
				<g>
					<polygon fill="#052438" points="256.7,103 251.5,100 251.5,96.9 256.6,99.9 					"/>
				</g>
				<g>
					<polygon fill="#0A476D" points="256.6,99.9 251.5,96.9 253.7,95.6 258.9,98.6 					"/>
				</g>
				<g>
					<polygon fill="#07314B" points="258.9,98.6 258.9,105.8 256.7,107.1 256.7,103 256.6,99.9 					"/>
				</g>
			</g>
			<g enable-background="new    ">
				<g>
					<polygon fill="#910D0D" points="254.3,108.4 249.1,105.4 249.1,101.4 254.3,104.4 					"/>
				</g>
				<g>
					<polygon fill="#F91616" points="254.3,104.4 249.1,101.4 251.5,100 256.7,103 					"/>
				</g>
				<g>
					<polygon fill="#A40E0E" points="256.7,103 256.7,107.1 254.3,108.4 254.3,104.4 					"/>
				</g>
			</g>
			<g enable-background="new    ">
				<g>
					<polygon fill="#DE5800" points="253.6,108.8 248.4,105.8 248.4,105.8 253.6,108.8 					"/>
				</g>
				<g>
					<polygon fill="#913900" points="253.6,108.8 248.4,105.8 248.4,98.7 253.6,101.7 					"/>
				</g>
				<g>
					<polygon fill="#FFCA00" points="253.5,101.7 248.4,98.7 248.4,98.7 253.6,101.7 					"/>
				</g>
				<g>
					<polygon fill="#A28100" points="253,109.1 247.9,106.1 247.8,99 253,102 					"/>
				</g>
				<g>
					<polygon fill="#A88400" points="253.6,101.7 253.6,108.8 253.6,108.8 253,109.1 253,102 253.5,101.7 					"/>
				</g>
				<g>
					<polygon fill="#FFCA00" points="253,102 247.8,99 248.4,98.7 253.5,101.7 					"/>
				</g>
				<g>
					<polygon fill="#91CCA6" points="253.5,99.6 248.4,96.5 249.1,96.1 254.2,99.1 					"/>
				</g>
				<g>
					<polygon fill="#439C62" points="253.5,101.7 248.4,98.7 248.4,96.5 253.5,99.6 					"/>
				</g>
				<g>
					<polygon fill="#58CC81" points="254.2,99.1 254.3,104.4 254.3,108.4 253.6,108.8 253.6,108.8 253.6,101.7 253.5,101.7 
						253.5,99.6 					"/>
				</g>
			</g>
			<g enable-background="new    ">
				<g>
					<polygon fill="#597D24" points="251.7,109.9 246.5,106.9 246.5,102.3 251.7,105.3 					"/>
				</g>
				<g>
					<polygon fill="#597D24" points="251.7,105.3 246.5,102.3 246.5,97.9 251.7,100.9 					"/>
				</g>
				<g>
					<polygon fill="#95B06D" points="251.7,100.9 246.5,97.9 247.8,97.1 253,100.2 					"/>
				</g>
				<g>
					<polygon fill="#7EB033" points="253,100.2 253,102 253,109.1 251.7,109.9 251.7,105.3 251.7,100.9 					"/>
				</g>
			</g>
			<g enable-background="new    ">
				<g>
					<polygon fill="#484B4D" points="240.9,116.5 235.8,113.5 235.7,105.9 240.9,108.9 					"/>
				</g>
				<g>
					<polygon fill="#7EB033" points="239.3,117.4 234.1,114.4 234.1,109.7 239.3,112.7 					"/>
				</g>
				<g>
					<polygon fill="#072F49" points="237.6,118.4 232.5,115.4 232.4,110.6 237.6,113.7 					"/>
				</g>
				<g>
					<polygon fill="#07314B" points="239.3,112.7 239.3,117.4 237.6,118.4 237.6,113.7 					"/>
				</g>
				<g>
					<polygon fill="#0A476D" points="237.6,113.7 232.4,110.6 234.1,109.7 239.3,112.7 					"/>
				</g>
				<g>
					<polygon fill="#46AFAC" points="240.9,108.9 235.7,105.9 235.7,104.2 240.9,107.2 					"/>
				</g>
				<g>
					<polygon fill="#59DFDB" points="240.9,107.2 235.7,104.2 236.9,103.5 242.1,106.5 					"/>
				</g>
				<g>
					<polygon fill="#A3DEE9" points="242.1,106.5 242.1,108.7 242.1,115.8 240.9,116.5 240.9,108.9 240.9,107.2 					"/>
				</g>
				<g>
					<polygon fill="#95B06D" points="239.3,109.9 234.1,106.9 235.7,105.9 240.9,108.9 					"/>
				</g>
				<g>
					<polygon fill="#597D24" points="239.3,112.7 234.1,109.7 234.1,106.9 239.3,109.9 					"/>
				</g>
				<g>
					<polygon fill="#7EB033" points="240.9,108.9 240.9,116.5 239.3,117.4 239.3,112.7 239.3,109.9 					"/>
				</g>
				<g>
					<polygon fill="#913900" points="236.2,119.2 231,116.2 231,107.7 236.2,110.7 					"/>
				</g>
				<g>
					<polygon fill="#DE5800" points="236.2,110.7 231,107.7 232.4,106.9 237.6,109.9 					"/>
				</g>
				<g>
					<polygon fill="#953B00" points="237.6,109.9 237.6,113.7 237.6,118.4 236.2,119.2 236.2,110.7 					"/>
				</g>
			</g>
			<g enable-background="new    ">
				<g>
					<polygon fill="#A28100" points="232.7,121.3 227.5,118.3 227.5,111.1 232.6,114.1 					"/>
				</g>
				<g>
					<polygon fill="#FFCA00" points="232.6,114.1 227.5,111.1 229.5,109.9 234.7,113 					"/>
				</g>
				<g>
					<polygon fill="#A88400" points="234.7,113 234.7,120.1 232.7,121.3 232.6,114.1 					"/>
				</g>
			</g>
			<g enable-background="new    ">
				<g>
					<polygon fill="#484B4D" points="230.3,122.6 225.1,119.6 225.1,112.1 230.3,115.1 					"/>
				</g>
				<g>
					<polygon fill="#484B4D" points="230.3,115.1 225.1,112.1 225.1,110.3 230.3,113.4 					"/>
				</g>
				<g>
					<polygon fill="#6C7276" points="230.3,113.4 225.1,110.3 227.5,109 232.6,112 					"/>
				</g>
				<g>
					<polygon fill="#494C50" points="232.6,112 232.6,114.1 232.7,121.3 230.3,122.6 230.3,115.1 230.3,113.4 					"/>
				</g>
			</g>
			<g enable-background="new    ">
				<g>
					<polygon fill="#913900" points="229.1,123.3 223.9,120.3 223.9,115 229.1,118 					"/>
				</g>
				<g>
					<polygon fill="#913900" points="229.1,118 223.9,115 223.9,112.8 229,115.8 					"/>
				</g>
				<g>
					<polygon fill="#DE5800" points="229,115.8 223.9,112.8 225.1,112.1 230.3,115.1 					"/>
				</g>
				<g>
					<polygon fill="#953B00" points="230.3,115.1 230.3,122.6 229.1,123.3 229.1,118 229,115.8 					"/>
				</g>
			</g>
			<g enable-background="new    ">
				<g>
					<polygon fill="#509FC2" points="227.7,124.1 222.5,121.1 222.5,115.8 227.7,118.8 					"/>
				</g>
				<g>
					<polygon fill="#9ECADE" points="227.7,118.8 222.5,115.8 223.9,115 229.1,118 					"/>
				</g>
				<g>
					<polygon fill="#62C3ED" points="229.1,118 229.1,123.3 227.7,124.1 227.7,118.8 					"/>
				</g>
			</g>
		</g>
		<g>
			<polygon fill="#451B01" points="222.9,114.4 210.3,107.1 250.9,83.6 263.6,91 			"/>
		</g>
		<g>
			<path fill="#692901" d="M222.9,114.4L263.6,91l0.1,52.9L223,167.3L222.9,114.4z M262,117.9l0-11.3l-37.4,21.6l0,11.3L262,117.9
				L262,117.9z M262,130.9l0-11.3l-37.4,21.6l0,11.3L262,130.9L262,130.9z M261.9,105l0-11l-37.4,21.6l0,11L261.9,105L261.9,105z
				 M262.1,142.8l0-10.3l-37.4,21.6l0,10.3L262.1,142.8L262.1,142.8z"/>
		</g>
		<g>
			<polygon fill="#250E01" points="223,167.3 210.4,160 210.3,107.1 222.9,114.4 			"/>
		</g>
	</g>
	<g clip-path="url(#XMLID_7_)">
		<g>
			<g enable-background="new    ">
				<g>
					<polygon fill="#293033" points="200.7,182.6 176,168.3 176,139 200.7,153.4 					"/>
				</g>
				<polygon fill="#E7FDF8" points="177.8,166.7 162.6,175.5 162.6,180.9 177.9,172.1 				"/>
				<polygon fill="#E7FDF8" points="177.9,173.5 162.6,182.3 162.6,187.8 177.9,178.9 				"/>
				<g>
					<polygon fill="#323C3F" points="160.2,173.8 135.5,159.4 178.3,134.7 203,149 					"/>
				</g>
				<g>
					<path fill="#455257" d="M160.2,173.8L203,149l0.1,32.2l-2.4,1.4l-0.1-29.2l-21.5,12.4l0,14l-16.6,9.6l0,15.2l-2.4,1.4
						L160.2,173.8z M177.9,172.1l0-5.5l-15.3,8.8l0,5.5L177.9,172.1L177.9,172.1z M177.9,178.9l0-5.5l-15.3,8.8l0,5.5L177.9,178.9
						L177.9,178.9z"/>
				</g>
				<g>
					<polygon fill="#293033" points="160.3,206 135.6,191.7 135.5,159.4 160.2,173.8 					"/>
				</g>
			</g>
		</g>
		<g>
			<path fill="#FF9D00" d="M170.7,173.8c0.6-0.3,1-0.1,1,0.4c0,0.5-0.5,1.2-1,1.5c-0.6,0.3-1,0.1-1-0.4
				C169.7,174.8,170.1,174.1,170.7,173.8z"/>
			<path fill="#FFCA00" d="M170.8,173.8c0.5-0.3,0.9-0.1,0.9,0.4c0,0.5-0.4,1.2-0.9,1.5c-0.5,0.3-0.9,0.1-0.9-0.4
				C169.9,174.7,170.3,174.1,170.8,173.8z"/>
		</g>
		<g>
			<path fill="#FF9D00" d="M170.7,180.3c0.6-0.3,1-0.1,1,0.4c0,0.5-0.5,1.2-1,1.5c-0.6,0.3-1,0.1-1-0.4
				C169.7,181.3,170.1,180.6,170.7,180.3z"/>
			<path fill="#FFCA00" d="M170.8,180.3c0.5-0.3,0.9-0.1,0.9,0.4c0,0.5-0.4,1.2-0.9,1.5c-0.5,0.3-0.9,0.1-0.9-0.4
				C169.9,181.2,170.3,180.6,170.8,180.3z"/>
		</g>
		<g>
			<path fill="#89C6C1" d="M180.8,133.2c0.3-0.1,0.5,0,0.5,0.3l0,9.5c0,0.3-0.2,0.7-0.5,0.8l-15,8.7c-0.3,0.1-0.5,0-0.5-0.3l0-9.5
				c0-0.3,0.2-0.7,0.5-0.8L180.8,133.2z"/>
			<g>
				<path fill="#D1DCE6" d="M192,150.1C192,150.1,192,150.1,192,150.1C192,150.1,192,150.1,192,150.1C192,150.2,192,150.2,192,150.1
					c0,0.1,0,0.1,0,0.1c0,0,0,0,0,0c0,0,0,0,0,0c0,0,0,0,0,0c0,0,0,0,0,0c0,0,0,0,0,0c0,0,0,0,0,0c0,0,0,0,0,0c0,0,0,0,0,0
					c0,0,0,0,0,0c0,0,0,0,0,0c0,0,0,0-0.1,0l-5.9,3.4l0-0.4l-1.3-0.8l1.9-1.1l0-0.1l0.1,0.1l2.6-1.5l0-0.9l-1.2-0.7l-0.3,0.2l0-0.3
					l-0.4-0.2l-0.8-0.5l-1.4-0.8l-0.3,0.2l0-0.4l-1.2-0.7l-0.3,0.2l0-0.3l-1.2-0.7l-1.2,0.7l0,0.3l-0.2-0.1l-1.2,0.7l0,0.3l-0.2-0.1
					l-1.2,0.7l0,0.3l-0.2-0.1l-1.2,0.7l0,0.3l-0.2-0.1l-1.2,0.7l0,0.3l-0.2-0.1l-1.2,0.7l0,0.3l-0.2-0.1l-1.2,0.7l0,0.3l-0.2-0.1
					l-1.2,0.7l0,0.3l-0.2-0.1l-1.2,0.7l0,0.9l0.7,0.4l-0.3,0.2l0-0.3l-1.2-0.7l-1.2,0.7l0,0.9l1.2,0.7l0.3-0.2l0,0.3l1.2,0.7
					l0.3-0.2l0,0.3l1.2,0.7l0.3-0.2l0,0.3l1.2,0.7l0.3-0.2l0,0.3l1.2,0.7l2.6-1.5l0-0.2l0.2,0.1l1.9-1.1l0-0.2l0.2,0.1l0.7-0.4
					l0,0.3l1.3,0.8l-4.8,2.8c0,0-0.1,0.1-0.2,0.1c0,0,0,0,0,0c0,0-0.1,0-0.1,0c0,0-0.1,0-0.1,0c0,0-0.1,0-0.1,0c0,0,0,0,0,0
					c-0.1,0-0.1,0-0.2,0c0,0,0,0,0,0c-0.1,0-0.1,0-0.2,0c0,0,0,0,0,0c-0.1,0-0.1,0-0.2,0c0,0,0,0,0,0c-0.1,0-0.1,0-0.2,0
					c0,0,0,0,0,0c-0.1,0-0.1,0-0.2-0.1l-9-5.2c-0.2-0.1-0.3-0.3-0.3-0.4c0,0.3,0,0.6,0,0.9c0,0.2,0.1,0.3,0.3,0.4l9,5.2
					c0.1,0,0.1,0.1,0.2,0.1c0,0,0,0,0,0c0,0,0,0,0,0c0,0,0.1,0,0.1,0c0,0,0,0,0,0c0,0,0,0,0,0c0,0,0,0,0,0c0,0,0.1,0,0.1,0
					c0,0,0,0,0,0c0,0,0,0,0,0c0,0,0,0,0,0c0,0,0.1,0,0.1,0c0,0,0,0,0,0c0,0,0,0,0,0c0,0,0,0,0.1,0c0,0,0.1,0,0.1,0c0,0,0,0,0,0
					c0,0,0,0,0,0c0,0,0.1,0,0.1,0c0,0,0,0,0,0c0,0,0.1,0,0.1,0c0,0,0,0,0.1,0c0,0,0,0,0.1,0c0,0,0,0,0,0c0.1,0,0.1,0,0.2-0.1l15.6-9
					c0,0,0,0,0,0c0,0,0,0,0,0c0,0,0,0,0,0c0,0,0,0,0,0c0,0,0,0,0,0c0,0,0,0,0,0c0,0,0,0,0,0c0,0,0,0,0,0c0,0,0,0,0,0c0,0,0,0,0,0
					c0,0,0,0,0,0c0,0,0,0,0,0c0,0,0,0,0,0c0,0,0,0,0,0c0,0,0,0,0,0c0,0,0,0,0,0c0,0,0,0,0,0c0,0,0,0,0,0c0,0,0,0,0,0c0,0,0,0,0,0
					c0,0,0,0,0,0c0,0,0,0,0,0C192,150.7,192,150.4,192,150.1z"/>
				<g>
					<path fill="#E8ECEF" d="M191.7,149.6l-9-5.2c-0.4-0.2-1.1-0.2-1.5,0l-15.6,9c-0.4,0.2-0.4,0.6,0,0.9l9,5.2
						c0.4,0.2,1.1,0.2,1.5,0l15.6-9C192.1,150.3,192.1,149.9,191.7,149.6z"/>
					<g>
						<polygon fill="#0C2F4B" points="181.3,147.3 182.5,148 181.3,148.7 180.1,148 						"/>
					</g>
					<g>
						<polygon fill="#0C2F4B" points="183.2,147.8 184.4,148.5 183.2,149.3 182,148.6 						"/>
					</g>
					<g>
						<polygon fill="#0C2F4B" points="185,146.9 186.4,147.7 187.1,148.2 187.5,148.4 185.5,149.6 184.3,149 184.9,148.6 
							183.5,147.8 						"/>
					</g>
					<g>
						<polygon fill="#0C2F4B" points="181.8,148.7 183,149.4 181.8,150.1 180.6,149.4 						"/>
					</g>
					<g>
						<polygon fill="#0C2F4B" points="187.8,148.6 189,149.3 186.5,150.8 185.3,150.1 						"/>
					</g>
					<g>
						<polygon fill="#0C2F4B" points="185.1,150.1 186.3,150.8 184.4,152 183.2,151.3 						"/>
					</g>
					<g>
						<polygon fill="#0C2F4B" points="181.3,150.7 182.5,151.3 181.3,152.1 180.1,151.4 						"/>
					</g>
					<g>
						<polygon fill="#0C2F4B" points="182,145.2 183.2,145.9 181.9,146.6 180.7,145.9 						"/>
					</g>
					<g>
						<polygon fill="#0C2F4B" points="180.5,146.1 181.7,146.7 180.4,147.5 179.2,146.8 						"/>
					</g>
					<g>
						<polygon fill="#0C2F4B" points="183.4,146 184.6,146.7 182.7,147.9 181.5,147.2 						"/>
					</g>
					<g>
						<polygon fill="#0C2F4B" points="179,146.9 180.2,147.6 179,148.3 177.8,147.6 						"/>
					</g>
					<g>
						<polygon fill="#0C2F4B" points="177.5,147.8 178.7,148.5 177.5,149.2 176.3,148.5 						"/>
					</g>
					<g>
						<polygon fill="#0C2F4B" points="179.9,148.1 181.1,148.8 179.9,149.5 178.7,148.8 						"/>
					</g>
					<g>
						<polygon fill="#0C2F4B" points="176.1,148.6 177.2,149.3 176,150 174.8,149.3 						"/>
					</g>
					<g>
						<polygon fill="#0C2F4B" points="178.5,148.9 179.7,149.6 178.5,150.3 177.3,149.6 						"/>
					</g>
					<g>
						<polygon fill="#0C2F4B" points="184.1,149 185.3,149.7 184.1,150.5 182.9,149.8 						"/>
					</g>
					<g>
						<polygon fill="#0C2F4B" points="174.6,149.5 175.8,150.2 174.5,150.9 173.3,150.2 						"/>
					</g>
					<g>
						<polygon fill="#0C2F4B" points="180.4,149.5 181.6,150.2 180.4,150.9 179.2,150.2 						"/>
					</g>
					<g>
						<polygon fill="#0C2F4B" points="177.1,149.7 178.3,150.4 177.1,151.1 175.9,150.4 						"/>
					</g>
					<g>
						<polygon fill="#0C2F4B" points="182.7,149.9 183.9,150.5 182.7,151.3 181.5,150.6 						"/>
					</g>
					<g>
						<polygon fill="#0C2F4B" points="179.1,150.3 180.3,151 179,151.7 177.8,151 						"/>
					</g>
					<g>
						<polygon fill="#0C2F4B" points="173.1,150.3 174.3,151 173.1,151.7 171.9,151.1 						"/>
					</g>
					<g>
						<polygon fill="#0C2F4B" points="175.7,150.5 176.9,151.2 175.6,151.9 174.4,151.3 						"/>
					</g>
					<g>
						<polygon fill="#0C2F4B" points="177.7,151.1 178.9,151.8 177.6,152.5 176.4,151.8 						"/>
					</g>
					<g>
						<polygon fill="#0C2F4B" points="171.6,151.2 172.8,151.9 171.6,152.6 170.4,151.9 						"/>
					</g>
					<g>
						<polygon fill="#0C2F4B" points="174.3,151.4 175.5,152 174.2,152.8 173,152.1 						"/>
					</g>
					<g>
						<polygon fill="#0C2F4B" points="179.9,151.5 181.1,152.2 179.8,152.9 178.6,152.2 						"/>
					</g>
					<g>
						<polygon fill="#0C2F4B" points="176.3,151.9 177.5,152.6 176.2,153.3 175,152.6 						"/>
					</g>
					<g>
						<polygon fill="#0C2F4B" points="170.1,152.1 171.3,152.7 170.1,153.5 168.9,152.8 						"/>
					</g>
					<g>
						<polygon fill="#0C2F4B" points="172.9,152.2 174.1,152.9 172.8,153.6 171.6,152.9 						"/>
					</g>
					<g>
						<polygon fill="#0C2F4B" points="178.5,152.3 179.7,153 178.5,153.7 177.3,153 						"/>
					</g>
					<g>
						<polygon fill="#0C2F4B" points="174.9,152.7 176.1,153.4 174.8,154.1 173.6,153.4 						"/>
					</g>
					<g>
						<polygon fill="#0C2F4B" points="177.1,153.1 178.3,153.8 177.1,154.5 175.9,153.8 						"/>
					</g>
					<g>
						<polygon fill="#0C2F4B" points="168.1,153.2 169.3,153.9 168.1,154.6 166.9,154 						"/>
					</g>
					<g>
						<polygon fill="#0C2F4B" points="173.5,153.5 174.7,154.2 173.4,154.9 172.2,154.2 						"/>
					</g>
					<g>
						<polygon fill="#0C2F4B" points="183.1,151.3 184.3,152 178.8,155.2 177.6,154.5 						"/>
					</g>
					<g>
						<polygon fill="#0C2F4B" points="175.7,153.9 176.9,154.6 175.7,155.3 174.5,154.6 						"/>
					</g>
					<g>
						<polygon fill="#0C2F4B" points="171.4,153 172.6,153.7 169.5,155.5 168.3,154.8 						"/>
					</g>
					<g>
						<polygon fill="#0C2F4B" points="184,152.6 185.8,153.6 181.3,156.2 179.5,155.1 						"/>
					</g>
					<g>
						<polygon fill="#0C2F4B" points="172.1,154.3 173.3,155 171,156.3 169.8,155.6 						"/>
					</g>
					<g>
						<polygon fill="#0C2F4B" points="177.5,154.6 178.7,155.3 176.7,156.4 175.5,155.7 						"/>
					</g>
					<g>
						<polygon fill="#0C2F4B" points="174.3,154.7 175.5,155.4 172.5,157.2 171.3,156.5 						"/>
					</g>
					<g>
						<polygon fill="#0C2F4B" points="175.4,155.8 176.6,156.5 173.9,158 172.7,157.3 						"/>
					</g>
				</g>
			</g>
			<g>
				<path fill="#D1DCE6" d="M181.6,132.2C181.6,132.2,181.6,132.2,181.6,132.2c-0.1-0.1-0.2-0.1-0.2-0.1c-0.1,0-0.1-0.1-0.2-0.1
					c-0.1-0.1-0.3-0.1-0.6,0.1l-15.6,9c-0.4,0.2-0.8,0.8-0.8,1.3l0,10.4c0,0.2,0.1,0.4,0.2,0.5c0.2,0.1,0.4,0.2,0.6,0.3
					c-0.1-0.1-0.2-0.3-0.2-0.5l0-10.4c0-0.5,0.3-1.1,0.8-1.3l15.6-9C181.3,132.1,181.5,132.1,181.6,132.2
					C181.6,132.2,181.6,132.2,181.6,132.2z"/>
			</g>
			<g>
				<path fill="#F8F9FC" d="M181.1,132.3c0.4-0.2,0.8,0,0.8,0.4l0,10.4c0,0.5-0.3,1.1-0.8,1.3l-15.6,9c-0.4,0.2-0.8,0-0.8-0.4
					l0-10.4c0-0.5,0.3-1.1,0.8-1.3L181.1,132.3z M181.3,143l0-9.5c0-0.3-0.2-0.4-0.5-0.3l-15,8.7c-0.3,0.1-0.5,0.5-0.5,0.8l0,9.5
					c0,0.3,0.2,0.4,0.5,0.3l15-8.7C181.1,143.7,181.3,143.3,181.3,143L181.3,143z"/>
			</g>
			<g>
				<polygon fill="#EFEDEE" points="176.4,138.5 170.2,142.1 173.3,143.3 176.4,138.5 				"/>
				<polygon fill="#EFEDEE" points="170.2,147.3 176.4,143.7 173.7,143.1 173.3,143.8 172.9,143.6 170.2,147.3 				"/>
				<polygon fill="#EFEDEE" points="176.5,143.4 176.5,138.7 173.9,142.8 176.5,143.4 				"/>
				<g>
					<polygon fill="#EFEDEE" points="170.1,142.4 172.7,143.5 170.1,147 					"/>
				</g>
			</g>
		</g>
	</g>
	<g clip-path="url(#XMLID_7_)">
		<g>
			<g enable-background="new    ">
				<path fill="#242629" d="M169.5,230.7c-0.2,0.1-0.4,0.4-0.4,0.7c0,0,0,0,0,0l0,4.3l0.7-0.4l0-4.3c0,0,0,0,0,0
					c0.1-0.3,0.2-0.6,0.4-0.7L169.5,230.7z"/>
				<path fill="#455257" d="M178.8,236.1c0-0.3-0.1-0.6-0.2-0.9c-0.1-0.3-0.2-0.6-0.3-0.9c-0.3-0.6-0.7-1.2-1.1-1.7
					c-0.2-0.3-0.5-0.5-0.8-0.7c-0.2-0.1-0.3-0.2-0.5-0.3l-4.7-2.7c-0.1-0.1-0.2-0.1-0.3-0.1c-0.3-0.1-0.5-0.2-0.7-0.2
					c-0.4-0.1-0.7,0-1,0.2l-0.7,0.4c0.3-0.2,0.6-0.2,1-0.2c0.2,0,0.5,0.1,0.7,0.2c0.1,0,0.2,0.1,0.3,0.1l4.7,2.7
					c0.2,0.1,0.3,0.2,0.5,0.3c0.3,0.2,0.5,0.4,0.8,0.7c0.4,0.5,0.8,1.1,1.1,1.7c0.1,0.3,0.2,0.6,0.3,0.9c0.1,0.3,0.1,0.6,0.2,0.9
					c0,0,0,0,0,0.1l0,4.3l0.7-0.4L178.8,236.1C178.8,236.1,178.8,236.1,178.8,236.1z"/>
				<g>
					<path fill="#293033" d="M175.3,231.9c1.5,0.9,2.7,2.9,2.8,4.7l0,4.3l-1.4-0.8l0-4.3c-0.1-0.9-0.7-1.9-1.5-2.3l-4.7-2.7
						c-0.7-0.4-1.4-0.2-1.5,0.6l0,4.3l-1.4-2.3l0-2.8c0.1-1.6,1.4-2.2,2.8-1.4L175.3,231.9z"/>
				</g>
			</g>
		</g>
		<g>
			<g enable-background="new    ">
				<g>
					<defs>
						<path id="SVGID_1_" d="M159.9,265.5l-0.8,0.5c0.1-0.1,0.3-0.1,0.5,0l0.8-0.5C160.2,265.4,160.1,265.4,159.9,265.5z"/>
					</defs>
					<use xlink:href="#SVGID_1_"  overflow="visible" fill="#2B3336"/>
					<clipPath id="SVGID_2_">
						<use xlink:href="#SVGID_1_"  overflow="visible"/>
					</clipPath>
					<g clip-path="url(#SVGID_2_)" enable-background="new    ">
						<path fill="#2B3336" d="M159.6,266l0.8-0.5c-0.1,0-0.1-0.1-0.2-0.1l-0.8,0.5C159.5,265.9,159.5,265.9,159.6,266L159.6,266z"/>
						<path fill="#2B3336" d="M159.4,265.9l0.8-0.5c-0.1,0-0.2,0-0.2,0l-0.8,0.5C159.2,265.9,159.3,265.9,159.4,265.9L159.4,265.9z"
							/>
						<polygon fill="#2B3336" points="159.2,265.9 160,265.5 159.9,265.5 159.2,265.9 159.2,265.9 						"/>
					</g>
				</g>
				<g>
					<defs>
						<path id="SVGID_3_" d="M160.1,267.5l0.8-0.5c0.1-0.1,0.2-0.2,0.2-0.4c0-0.4-0.3-0.9-0.6-1.1l-0.8,0.5c0.3,0.2,0.6,0.7,0.6,1.1
							C160.2,267.3,160.2,267.4,160.1,267.5z"/>
					</defs>
					<use xlink:href="#SVGID_3_"  overflow="visible" fill="#2B3336"/>
					<clipPath id="SVGID_4_">
						<use xlink:href="#SVGID_3_"  overflow="visible"/>
					</clipPath>
					<g clip-path="url(#SVGID_4_)" enable-background="new    ">
						<path fill="#2B3336" d="M160.1,267.5l0.8-0.5c0.1-0.1,0.2-0.2,0.2-0.4c0-0.2,0-0.3-0.1-0.5l-0.8,0.5c0.1,0.2,0.1,0.3,0.1,0.5
							C160.2,267.3,160.2,267.4,160.1,267.5L160.1,267.5z"/>
						<path fill="#2B3336" d="M160.1,266.6l0.8-0.5c-0.1-0.1-0.1-0.2-0.2-0.3l-0.8,0.5C160,266.3,160.1,266.5,160.1,266.6
							L160.1,266.6z"/>
						<path fill="#2B3336" d="M159.9,266.2l0.8-0.5c-0.1-0.1-0.2-0.2-0.3-0.3l-0.8,0.5C159.7,266,159.8,266.1,159.9,266.2
							L159.9,266.2z"/>
					</g>
				</g>
				<g>
					<path fill="#353F43" d="M159.6,266c-0.3-0.2-0.6,0-0.6,0.4c0,0.4,0.3,0.9,0.6,1.1c0.3,0.2,0.6,0,0.6-0.4
						C160.2,266.7,160,266.2,159.6,266z"/>
				</g>
			</g>
		</g>
		<g>
			<g enable-background="new    ">
				<g>
					<defs>
						<path id="SVGID_5_" d="M171.3,259.2l-0.8,0.5c0.1-0.1,0.3-0.1,0.5,0l0.8-0.5C171.6,259.1,171.4,259.1,171.3,259.2z"/>
					</defs>
					<use xlink:href="#SVGID_5_"  overflow="visible" fill="#2B3336"/>
					<clipPath id="SVGID_6_">
						<use xlink:href="#SVGID_5_"  overflow="visible"/>
					</clipPath>
					<g clip-path="url(#SVGID_6_)" enable-background="new    ">
						<path fill="#2B3336" d="M171,259.7l0.8-0.5c-0.1,0-0.1-0.1-0.2-0.1l-0.8,0.5C170.9,259.6,170.9,259.7,171,259.7L171,259.7z"/>
						<path fill="#2B3336" d="M170.8,259.6l0.8-0.5c-0.1,0-0.2,0-0.2,0l-0.8,0.5C170.6,259.6,170.7,259.6,170.8,259.6L170.8,259.6z"
							/>
						<polygon fill="#2B3336" points="170.6,259.6 171.3,259.2 171.3,259.2 170.6,259.7 170.6,259.6 						"/>
					</g>
				</g>
				<g>
					<defs>
						<path id="SVGID_7_" d="M171.5,261.2l0.8-0.5c0.1-0.1,0.2-0.2,0.2-0.4c0-0.4-0.3-0.9-0.6-1.1l-0.8,0.5c0.3,0.2,0.6,0.7,0.6,1.1
							C171.6,261,171.6,261.1,171.5,261.2z"/>
					</defs>
					<use xlink:href="#SVGID_7_"  overflow="visible" fill="#2B3336"/>
					<clipPath id="SVGID_8_">
						<use xlink:href="#SVGID_7_"  overflow="visible"/>
					</clipPath>
					<g clip-path="url(#SVGID_8_)" enable-background="new    ">
						<path fill="#2B3336" d="M171.5,261.2l0.8-0.5c0.1-0.1,0.2-0.2,0.2-0.4c0-0.2,0-0.3-0.1-0.5l-0.8,0.5c0.1,0.2,0.1,0.3,0.1,0.5
							C171.6,261,171.6,261.1,171.5,261.2L171.5,261.2z"/>
						<path fill="#2B3336" d="M171.5,260.3l0.8-0.5c-0.1-0.1-0.1-0.2-0.2-0.3l-0.8,0.5C171.4,260.1,171.5,260.2,171.5,260.3
							L171.5,260.3z"/>
						<path fill="#2B3336" d="M171.3,260l0.8-0.5c-0.1-0.1-0.2-0.2-0.3-0.3l-0.8,0.5C171.1,259.8,171.2,259.9,171.3,260L171.3,260z"
							/>
					</g>
				</g>
				<g>
					<path fill="#353F43" d="M171,259.7c-0.3-0.2-0.6,0-0.6,0.4c0,0.4,0.3,0.9,0.6,1.1c0.3,0.2,0.6,0,0.6-0.4
						C171.6,260.4,171.4,259.9,171,259.7z"/>
				</g>
			</g>
		</g>
		<g>
			<g enable-background="new    ">
				<g>
					<defs>
						<path id="SVGID_9_" d="M171.5,265.4l0.8,0.5c-0.1-0.1-0.3-0.1-0.5,0l-0.8-0.5C171.2,265.4,171.3,265.4,171.5,265.4z"/>
					</defs>
					<use xlink:href="#SVGID_9_"  overflow="visible" fill="#2B3336"/>
					<clipPath id="SVGID_10_">
						<use xlink:href="#SVGID_9_"  overflow="visible"/>
					</clipPath>
					<g clip-path="url(#SVGID_10_)" enable-background="new    ">
						<path fill="#2B3336" d="M171.8,265.9l-0.8-0.5c0.1,0,0.1-0.1,0.2-0.1l0.8,0.5C171.9,265.9,171.8,265.9,171.8,265.9
							L171.8,265.9z"/>
						<path fill="#2B3336" d="M172,265.9l-0.8-0.5c0.1,0,0.2,0,0.2,0l0.8,0.5C172.1,265.8,172.1,265.8,172,265.9L172,265.9z"/>
						<polygon fill="#2B3336" points="172.2,265.9 171.4,265.4 171.5,265.4 172.2,265.9 172.2,265.9 						"/>
					</g>
				</g>
				<g>
					<defs>
						<path id="SVGID_11_" d="M171.3,267.4l-0.8-0.5c-0.1-0.1-0.2-0.2-0.2-0.4c0-0.4,0.3-0.9,0.6-1.1l0.8,0.5
							c-0.3,0.2-0.6,0.7-0.6,1.1C171.2,267.2,171.2,267.4,171.3,267.4z"/>
					</defs>
					<use xlink:href="#SVGID_11_"  overflow="visible" fill="#2B3336"/>
					<clipPath id="SVGID_12_">
						<use xlink:href="#SVGID_11_"  overflow="visible"/>
					</clipPath>
					<g clip-path="url(#SVGID_12_)" enable-background="new    ">
						<path fill="#2B3336" d="M171.3,267.4l-0.8-0.5c-0.1-0.1-0.2-0.2-0.2-0.4c0-0.2,0-0.3,0.1-0.5l0.8,0.5
							c-0.1,0.2-0.1,0.3-0.1,0.5C171.2,267.2,171.2,267.4,171.3,267.4L171.3,267.4z"/>
						<path fill="#2B3336" d="M171.3,266.5l-0.8-0.5c0.1-0.1,0.1-0.2,0.2-0.3l0.8,0.5C171.4,266.3,171.3,266.4,171.3,266.5
							L171.3,266.5z"/>
						<path fill="#2B3336" d="M171.5,266.2l-0.8-0.5c0.1-0.1,0.2-0.2,0.3-0.3l0.8,0.5C171.7,266,171.6,266.1,171.5,266.2
							L171.5,266.2z"/>
					</g>
				</g>
				<g>
					<path fill="#353F43" d="M171.8,265.9c0.3-0.2,0.6,0,0.6,0.4c0,0.4-0.3,0.9-0.6,1.1c-0.3,0.2-0.6,0-0.6-0.4
						C171.1,266.6,171.4,266.1,171.8,265.9z"/>
				</g>
			</g>
		</g>
		<g>
			<g enable-background="new    ">
				<g>
					<defs>
						<path id="SVGID_13_" d="M160,259.1l0.8,0.5c-0.1-0.1-0.3-0.1-0.4,0l-0.8-0.5C159.7,259.1,159.9,259.1,160,259.1z"/>
					</defs>
					<use xlink:href="#SVGID_13_"  overflow="visible" fill="#2B3336"/>
					<clipPath id="SVGID_14_">
						<use xlink:href="#SVGID_13_"  overflow="visible"/>
					</clipPath>
					<g clip-path="url(#SVGID_14_)" enable-background="new    ">
						<path fill="#2B3336" d="M160.3,259.6l-0.8-0.5c0.1,0,0.1-0.1,0.2-0.1l0.8,0.5C160.4,259.6,160.4,259.6,160.3,259.6
							L160.3,259.6z"/>
						<path fill="#2B3336" d="M160.5,259.6l-0.8-0.5c0.1,0,0.2,0,0.2,0l0.8,0.5C160.7,259.6,160.6,259.5,160.5,259.6L160.5,259.6z"
							/>
						<polygon fill="#2B3336" points="160.7,259.6 160,259.1 160,259.1 160.8,259.6 160.7,259.6 						"/>
					</g>
				</g>
				<g>
					<defs>
						<path id="SVGID_15_" d="M159.9,261.1l-0.8-0.5c-0.1-0.1-0.2-0.2-0.2-0.4c0-0.4,0.3-0.9,0.6-1.1l0.8,0.5
							c-0.3,0.2-0.6,0.7-0.6,1.1C159.7,260.9,159.8,261.1,159.9,261.1z"/>
					</defs>
					<use xlink:href="#SVGID_15_"  overflow="visible" fill="#2B3336"/>
					<clipPath id="SVGID_16_">
						<use xlink:href="#SVGID_15_"  overflow="visible"/>
					</clipPath>
					<g clip-path="url(#SVGID_16_)" enable-background="new    ">
						<path fill="#2B3336" d="M159.9,261.1l-0.8-0.5c-0.1-0.1-0.2-0.2-0.2-0.4c0-0.2,0-0.3,0.1-0.5l0.8,0.5
							c-0.1,0.2-0.1,0.3-0.1,0.5C159.7,260.9,159.8,261.1,159.9,261.1L159.9,261.1z"/>
						<path fill="#2B3336" d="M159.8,260.3l-0.8-0.5c0.1-0.1,0.1-0.2,0.2-0.3l0.8,0.5C159.9,260,159.8,260.1,159.8,260.3
							L159.8,260.3z"/>
						<path fill="#2B3336" d="M160,259.9l-0.8-0.5c0.1-0.1,0.2-0.2,0.3-0.3l0.8,0.5C160.2,259.7,160.1,259.8,160,259.9L160,259.9z"
							/>
					</g>
				</g>
				<g>
					<path fill="#353F43" d="M160.3,259.6c0.3-0.2,0.6,0,0.6,0.4c0,0.4-0.3,0.9-0.6,1.1c-0.3,0.2-0.6,0-0.6-0.4
						C159.7,260.3,160,259.8,160.3,259.6z"/>
				</g>
			</g>
		</g>
		<g>
			<g enable-background="new    ">
				<g>
					<polygon fill="#2B2E31" points="172.4,258.2 172.4,259.9 167.4,262.8 167.4,261.1 					"/>
				</g>
				<g>
					<polygon fill="#1E2022" points="167.4,261.1 167.4,262.8 165.7,261.7 165.7,260 					"/>
				</g>
				<g>
					<polygon fill="#303437" points="170.6,257.1 172.4,258.2 167.4,261.1 165.7,260 					"/>
				</g>
			</g>
			<g enable-background="new    ">
				<g>
					<polygon fill="#1E2022" points="163.9,261.1 163.9,262.8 158.9,259.9 158.9,258.2 					"/>
				</g>
				<g>
					<polygon fill="#1E2022" points="165.7,262.1 165.7,263.8 163.9,262.8 163.9,261.1 					"/>
				</g>
				<g>
					<polygon fill="#1E2022" points="170.6,265 170.6,266.7 165.7,263.8 165.7,262.1 					"/>
				</g>
				<g>
					<polygon fill="#2B2E31" points="165.7,262.1 165.7,263.8 160.7,266.7 160.7,265 					"/>
				</g>
				<g>
					<polygon fill="#303437" points="172.4,263.9 170.6,265 165.7,262.1 163.9,261.1 158.9,258.2 160.7,257.1 165.7,260 
						167.4,261.1 					"/>
				</g>
				<g>
					<polygon fill="#2B2E31" points="172.4,263.9 172.4,265.7 170.6,266.7 170.6,265 					"/>
				</g>
				<g>
					<polygon fill="#1E2022" points="160.7,265 160.7,266.7 158.9,265.7 158.9,263.9 					"/>
				</g>
				<g>
					<polygon fill="#303437" points="158.9,263.9 163.9,261.1 165.7,262.1 160.7,265 					"/>
				</g>
			</g>
		</g>
		<g>
			<g enable-background="new    ">
				<g>
					<polygon fill="#455257" points="165.7,242.1 165.6,262.1 167.6,260.9 167.7,242.1 					"/>
				</g>
				<g>
					<polygon fill="#242629" points="163.9,242.1 163.9,261.1 165.6,262.1 165.7,242.1 					"/>
				</g>
			</g>
		</g>
		<g>
			<g enable-background="new    ">
				<g>
					<polygon fill="#293033" points="156.6,242.6 154.5,241.4 154.5,221 156.5,222.2 					"/>
				</g>
				<g>
					<polygon fill="#303437" points="156.5,222.2 154.5,221 156.7,219.7 158.7,220.9 					"/>
				</g>
				<g>
					<polygon fill="#455257" points="158.7,220.9 158.8,241.3 156.6,242.6 156.5,222.2 					"/>
				</g>
			</g>
		</g>
		<g>
			<g enable-background="new    ">
				<path fill="#358683" d="M162.6,207.6l-1.5-0.9c0,0,0.1,0,0.1,0.1l1.5,0.9C162.7,207.6,162.7,207.6,162.6,207.6L162.6,207.6z"/>
				<path fill="#771B26" d="M161.1,206.7c-0.8-0.4-1.7-0.5-2.8-0.3c-0.7,0.2-1.5,0.5-2.3,0.9c-1.3,0.8-2.6,1.9-3.7,3.2
					c-0.9,1.1-1.7,2.3-2.2,3.5c-0.5,1.1-0.8,2.2-0.9,3.2l-0.9,10.9c-0.1,1.6,0.4,2.8,1.3,3.3l1.5,0.9c-0.9-0.5-1.4-1.7-1.3-3.3
					l0.9-10.9c0.1-1,0.4-2.1,0.9-3.2c0.5-1.2,1.3-2.4,2.2-3.5c1.1-1.3,2.3-2.4,3.7-3.2c0.8-0.5,1.6-0.8,2.3-0.9
					c1.1-0.2,2-0.1,2.8,0.3L161.1,206.7z"/>
				<g>
					<path fill="#BB2833" d="M157.5,208.2c3.4-2,6.5-1,6.8,2.1l0.9,9.8c0.3,3.2-2.3,7.4-5.8,9.4l-3.7,2.1c-3.5,2-6.1,0.8-5.8-2.7
						l0.9-10.9C151,214.7,154.1,210.2,157.5,208.2z"/>
				</g>
			</g>
		</g>
		<g>
			<g>
				<g enable-background="new    ">
					<g>
						<path fill="#224E5D" d="M176.5,238.8c3.1,1.8,3.1,4.7,0,6.5l-4.9,2.9c-3.1,1.8-8.1,1.8-11.2,0l-5-2.9c-3.1-1.8-3.1-4.7,0-6.5
							l4.9-2.9c3.1-1.8,8.1-1.8,11.2,0L176.5,238.8z"/>
					</g>
				</g>
			</g>
			<g>
				<g enable-background="new    ">
					<path fill="#771B26" d="M178.6,241.5c-0.3,0.8-1,1.5-2.1,2.1l-4.9,2.9c-1.6,0.9-3.7,1.4-5.7,1.3c-2,0-4-0.5-5.5-1.3l-5-2.9
						c-1.6-0.9-2.3-2.1-2.3-3.3l0,2c0,1.2,0.8,2.4,2.3,3.3l5,2.9c1.5,0.9,3.5,1.3,5.5,1.3c2.1,0,4.2-0.4,5.7-1.3l4.9-2.9
						c1.1-0.6,1.8-1.4,2.1-2.1c0.1-0.4,0.2-0.7,0.2-1.1l0-2C178.9,240.8,178.8,241.1,178.6,241.5z"/>
					<g>
						<path fill="#BB2833" d="M176.5,237.1c3.1,1.8,3.1,4.7,0,6.5l-4.9,2.9c-3.1,1.8-8.1,1.8-11.2,0l-5-2.9c-3.1-1.8-3.1-4.7,0-6.5
							l4.9-2.9c3.1-1.8,8.1-1.8,11.2,0L176.5,237.1z"/>
					</g>
				</g>
			</g>
		</g>
		<g>
			<g enable-background="new    ">
				<path fill="#242629" d="M154.8,240.9c-0.2,0.1-0.4,0.4-0.4,0.7c0,0,0,0,0,0l0,4.3l0.7-0.4l0-4.3c0,0,0,0,0,0
					c0.1-0.3,0.2-0.6,0.4-0.7L154.8,240.9z"/>
				<path fill="#455257" d="M164.1,246.3c0-0.3-0.1-0.6-0.2-0.9c-0.1-0.3-0.2-0.6-0.3-0.9c-0.3-0.6-0.7-1.2-1.1-1.7
					c-0.2-0.3-0.5-0.5-0.8-0.7c-0.2-0.1-0.3-0.2-0.5-0.3l-4.7-2.7c-0.1-0.1-0.2-0.1-0.3-0.1c-0.3-0.1-0.5-0.2-0.7-0.2
					c-0.4-0.1-0.7,0-1,0.2l-0.7,0.4c0.3-0.2,0.6-0.2,1-0.2c0.2,0,0.5,0.1,0.7,0.2c0.1,0,0.2,0.1,0.3,0.1l4.7,2.7
					c0.2,0.1,0.3,0.2,0.5,0.3c0.3,0.2,0.5,0.4,0.8,0.7c0.4,0.5,0.8,1.1,1.1,1.7c0.1,0.3,0.2,0.6,0.3,0.9c0.1,0.3,0.1,0.6,0.2,0.9
					c0,0,0,0,0,0.1l0,4.3l0.7-0.4L164.1,246.3C164.1,246.3,164.1,246.3,164.1,246.3z"/>
				<g>
					<path fill="#293033" d="M160.6,242.1c1.5,0.9,2.7,2.9,2.8,4.7l0,4.3l-1.4-0.8l0-4.3c-0.1-0.9-0.7-1.9-1.5-2.3l-4.7-2.7
						c-0.7-0.4-1.4-0.2-1.5,0.6l0,4.3l-1.4-2.3l0-2.8c0.1-1.6,1.4-2.2,2.8-1.4L160.6,242.1z"/>
				</g>
			</g>
		</g>
		<path fill="#293033" d="M178.6,243.1c-0.3,0.8-1,1.5-2.1,2.1l-4.9,2.9c-1.6,0.9-3.7,1.4-5.7,1.3c-2,0-4-0.5-5.5-1.3l-5-2.9
			c-1.6-0.9-2.3-2.1-2.3-3.3l0,2c0,1.2,0.8,2.4,2.3,3.3l5,2.9c1.5,0.9,3.5,1.3,5.5,1.3c2.1,0,4.2-0.4,5.7-1.3l4.9-2.9
			c1.1-0.6,1.8-1.4,2.1-2.1c0.1-0.4,0.2-0.7,0.2-1.1l0-2C178.9,242.4,178.8,242.8,178.6,243.1z"/>
	</g>
</g>
<linearGradient id="XMLID_8_" gradientUnits="userSpaceOnUse" x1="206.6714" y1="225.3933" x2="376.2532" y2="55.8116" gradientTransform="matrix(-1 0 0 1 492.3074 0)">
	<stop  offset="0" style="stop-color:#FFFFFF"/>
	<stop  offset="0.2348" style="stop-color:#C6CACE;stop-opacity:0.7652"/>
	<stop  offset="0.4939" style="stop-color:#8F959D;stop-opacity:0.5061"/>
	<stop  offset="0.7172" style="stop-color:#666F7A;stop-opacity:0.2828"/>
	<stop  offset="0.8932" style="stop-color:#4D5864;stop-opacity:0.1068"/>
	<stop  offset="1" style="stop-color:#444F5C;stop-opacity:0"/>
</linearGradient>
<polygon id="XMLID_4030_" fill="url(#XMLID_8_)" points="238.5,238.8 182.6,271.4 209,91.4 266.9,57.6 "/>
<linearGradient id="XMLID_9_" gradientUnits="userSpaceOnUse" x1="172.3348" y1="191.0572" x2="341.9176" y2="21.4744" gradientTransform="matrix(-1 0 0 1 492.3074 0)">
	<stop  offset="0" style="stop-color:#FFFFFF"/>
	<stop  offset="0.2348" style="stop-color:#C6CACE;stop-opacity:0.7652"/>
	<stop  offset="0.4939" style="stop-color:#8F959D;stop-opacity:0.5061"/>
	<stop  offset="0.7172" style="stop-color:#666F7A;stop-opacity:0.2828"/>
	<stop  offset="0.8932" style="stop-color:#4D5864;stop-opacity:0.1068"/>
	<stop  offset="1" style="stop-color:#444F5C;stop-opacity:0"/>
</linearGradient>
<polygon id="XMLID_4029_" fill="url(#XMLID_9_)" points="260.3,226.1 249.2,232.6 275.9,52.3 287,45.8 "/>
<g id="XMLID_2178_">
	<g id="XMLID_2177_">
		<polygon id="XMLID_2916_" fill="#FFFFFF" points="254.2,100.4 359.1,39.8 337.2,16.5 232.9,77.3 		"/>
		<path id="XMLID_2917_" fill="#DDE8E7" d="M351.8,59.7L351.8,59.7c4.5-2.6,7.3-7.5,7.3-12.7v-7.1l-15,8.7v6.7
			C344.2,59.2,348.4,61.6,351.8,59.7z"/>
		<path id="XMLID_3105_" fill="#A51E1B" d="M336.8,68.3L336.8,68.3c4.5-2.6,7.3-7.5,7.3-12.7v-7.1l-15,8.7v6.7
			C329.2,67.8,333.4,70.3,336.8,68.3z"/>
		<path id="XMLID_3601_" fill="#DDE8E7" d="M321.8,77L321.8,77c4.5-2.6,7.3-7.5,7.3-12.7v-7.1l-15,8.7v6.7
			C314.2,76.5,318.4,78.9,321.8,77z"/>
		<path id="XMLID_3196_" fill="#A51E1B" d="M306.8,85.6L306.8,85.6c4.5-2.6,7.3-7.5,7.3-12.7v-7.1l-15,8.7v6.7
			C299.2,85.1,303.4,87.6,306.8,85.6z"/>
		<path id="XMLID_3604_" fill="#DDE8E7" d="M291.8,94.3L291.8,94.3c4.5-2.6,7.3-7.5,7.3-12.7v-7.1l-15,8.7v6.7
			C284.2,93.8,288.5,96.2,291.8,94.3z"/>
		<path id="XMLID_3603_" fill="#A51E1B" d="M276.9,102.9L276.9,102.9c4.5-2.6,7.3-7.5,7.3-12.7v-7.1l-15,8.7v6.7
			C269.2,102.4,273.5,104.9,276.9,102.9z"/>
		<path id="XMLID_3606_" fill="#DDE8E7" d="M261.9,111.6L261.9,111.6c4.5-2.6,7.3-7.5,7.3-12.7v-7.1l-15,8.7v6.7
			C254.2,111.1,258.5,113.5,261.9,111.6z"/>
		<polygon id="XMLID_2195_" fill="#BC3939" points="307.4,33.9 322.3,25.2 344.2,48.5 342.1,49.7 329.2,57.2 		"/>
		<polygon id="XMLID_2182_" fill="#BC3939" points="292.4,42.6 314.2,65.8 300.5,73.7 299.2,74.5 277.5,51.4 		"/>
		<polygon id="XMLID_2181_" fill="#BC3939" points="284.2,83.1 269.2,91.8 247.6,68.8 262.6,60.1 		"/>
	</g>
	<g id="XMLID_2224_">
		<polygon id="XMLID_2236_" fill="#BC3939" points="149.9,161.3 254.8,100.7 232.9,77.3 128.6,138.2 		"/>
		<path id="XMLID_2235_" fill="#A51E1B" d="M247.5,120.5L247.5,120.5c4.5-2.6,7.3-7.5,7.3-12.7v-7.1l-15,8.7v6.7
			C239.9,120,244.1,122.5,247.5,120.5z"/>
		<path id="XMLID_2234_" fill="#DDE8E7" d="M232.5,129.1L232.5,129.1c4.5-2.6,7.3-7.5,7.3-12.7v-7.1l-15,8.7v6.7
			C224.9,128.7,229.1,131.1,232.5,129.1z"/>
		<path id="XMLID_2233_" fill="#A51E1B" d="M217.5,137.8L217.5,137.8c4.5-2.6,7.3-7.5,7.3-12.7V118l-15,8.7v6.7
			C209.9,137.3,214.1,139.8,217.5,137.8z"/>
		<path id="XMLID_2232_" fill="#DDE8E7" d="M202.5,146.5L202.5,146.5c4.5-2.6,7.3-7.5,7.3-12.7v-7.1l-15,8.7v6.7
			C194.9,146,199.1,148.4,202.5,146.5z"/>
		<path id="XMLID_2231_" fill="#A51E1B" d="M187.5,155.1L187.5,155.1c4.5-2.6,7.3-7.5,7.3-12.7v-7.1l-15,8.7v6.7
			C179.9,154.6,184.1,157.1,187.5,155.1z"/>
		<path id="XMLID_2230_" fill="#DDE8E7" d="M172.6,163.8L172.6,163.8c4.5-2.6,7.3-7.5,7.3-12.7v-7.1l-15,8.7v6.7
			C164.9,163.3,169.2,165.7,172.6,163.8z"/>
		<path id="XMLID_2229_" fill="#A51E1B" d="M157.6,172.4L157.6,172.4c4.5-2.6,7.3-7.5,7.3-12.7v-7.1l-15,8.7v6.7
			C149.9,171.9,154.2,174.4,157.6,172.4z"/>
		<polygon id="XMLID_2228_" fill="#FFFFFF" points="203.1,94.8 218,86.1 239.9,109.3 237.8,110.5 224.9,118 		"/>
		<polygon id="XMLID_2227_" fill="#FFFFFF" points="188.1,103.5 209.9,126.6 196.2,134.5 194.9,135.3 173.2,112.2 		"/>
		<polygon id="XMLID_2226_" fill="#FFFFFF" points="179.9,143.9 164.9,152.6 143.3,129.6 158.3,120.9 		"/>
	</g>
</g>
<g id="XMLID_1204_">
	<polygon id="XMLID_1205_" fill="#8E1616" points="95.9,277.1 93.4,275.5 111.7,250 114.2,251.7 	"/>
	<polygon id="XMLID_1220_" fill="#8E1616" points="136.4,279.4 133.8,277.8 125.2,259.8 127.8,261.4 	"/>
	<polygon id="XMLID_1207_" fill="#BC3939" points="94.4,249.2 145.7,222.3 136.4,279.4 127.8,261.4 109.5,286.8 95.9,277.1 
		114.2,251.7 	"/>
	<polygon id="XMLID_1201_" fill="#8E1616" points="145.7,222.3 143.1,220.7 91.8,247.6 94.4,249.2 	"/>
</g>
<g id="XMLID_1018_">
	
		<linearGradient id="XMLID_10_" gradientUnits="userSpaceOnUse" x1="79.9662" y1="370.0373" x2="204.484" y2="370.0373" gradientTransform="matrix(-1 0 0 1 492.3074 0)">
		<stop  offset="3.627230e-003" style="stop-color:#FFFFFF;stop-opacity:0"/>
		<stop  offset="1" style="stop-color:#C1E29F"/>
	</linearGradient>
	<path id="XMLID_1060_" fill="url(#XMLID_10_)" d="M337.7,405.5l73.4-42.4c1.6-0.9,1.6-3.2,0-4.1l-42.4-24.5c-2-1.1-4.4-1.1-6.3,0
		L289,376.9c-1.6,0.9-1.6,3.2,0,4.1l42.4,24.5C333.3,406.7,335.7,406.7,337.7,405.5z"/>
	<g id="XMLID_1052_">
		<path id="XMLID_1057_" fill="#32879B" d="M342.7,405.5l73.4-42.4c1.6-0.9,1.6-3.2,0-4.1l-42.4-24.5c-2-1.1-4.4-1.1-6.3,0
			L294,376.9c-1.6,0.9-1.6,3.2,0,4.1l42.4,24.5C338.3,406.7,340.7,406.7,342.7,405.5z"/>
		
			<linearGradient id="XMLID_11_" gradientUnits="userSpaceOnUse" x1="74.9861" y1="370.0373" x2="199.5037" y2="370.0373" gradientTransform="matrix(-1 0 0 1 492.3074 0)">
			<stop  offset="0" style="stop-color:#FFFFFF;stop-opacity:0"/>
			<stop  offset="1" style="stop-color:#42A1A8"/>
		</linearGradient>
		<path id="XMLID_1055_" fill="url(#XMLID_11_)" d="M342.7,405.5l73.4-42.4c1.6-0.9,1.6-3.2,0-4.1l-42.4-24.5c-2-1.1-4.4-1.1-6.3,0
			L294,376.9c-1.6,0.9-1.6,3.2,0,4.1l42.4,24.5C338.3,406.7,340.7,406.7,342.7,405.5z"/>
		<path id="XMLID_4019_" fill="#42A1A8" d="M342.7,404.2l73.4-42.4c1.6-0.9,1.6-3.2,0-4.1l-42.4-24.5c-2-1.1-4.4-1.1-6.3,0
			L294,375.6c-1.6,0.9-1.6,3.2,0,4.1l42.4,24.5C338.3,405.3,340.7,405.3,342.7,404.2z"/>
		<polygon id="XMLID_4044_" fill="#FFD45A" points="366.9,346.5 376.2,341.1 369.5,337.3 360.1,342.7 		"/>
		<path id="XMLID_4047_" fill="#F7CE4D" d="M347.8,389.8l4.9-2.8c1.1-0.6,1.1-2.2,0-2.8l-2.2-1.3c-1.3-0.7-2.9-0.7-4.2,0l-4.9,2.8
			c-1.1,0.6-1.1,2.2,0,2.8l2.2,1.3C344.9,390.6,346.5,390.6,347.8,389.8z"/>
		<path id="XMLID_4054_" fill="#D3514A" d="M346.6,392.9l3.4-2c1.5-0.8,1.4-2.9,0-3.8l-0.8-0.5c-1.6-0.9-3.6-0.9-5.2,0l-3.4,2
			c-1.5,0.8-1.4,2.9,0,3.8l0.8,0.5C343,393.8,344.9,393.8,346.6,392.9z"/>
		<g id="XMLID_1053_">
			
				<line id="XMLID_4051_" fill="none" stroke="#F5F5F5" stroke-linecap="round" stroke-miterlimit="10" x1="343.8" y1="375.2" x2="324.3" y2="386.4"/>
			
				<line id="XMLID_4049_" fill="none" stroke="#F5F5F5" stroke-linecap="round" stroke-miterlimit="10" x1="368.2" y1="361.1" x2="349.1" y2="372.1"/>
			
				<line id="XMLID_4046_" fill="none" stroke="#F5F5F5" stroke-linecap="round" stroke-miterlimit="10" x1="385.8" y1="350.9" x2="372.2" y2="358.8"/>
			
				<line id="XMLID_1054_" fill="none" stroke="#F5F5F5" stroke-linecap="round" stroke-miterlimit="10" x1="402.5" y1="358.8" x2="388.9" y2="366.6"/>
			
				<line id="XMLID_4048_" fill="none" stroke="#F5F5F5" stroke-linecap="round" stroke-miterlimit="10" x1="323.3" y1="366.9" x2="305.2" y2="377.4"/>
		</g>
		
			<linearGradient id="XMLID_12_" gradientUnits="userSpaceOnUse" x1="85.8554" y1="368.6876" x2="255.0039" y2="368.6876" gradientTransform="matrix(-1 0 0 1 492.3074 0)">
			<stop  offset="0" style="stop-color:#FFFFFF;stop-opacity:0"/>
			<stop  offset="1" style="stop-color:#42A1A8"/>
		</linearGradient>
		<path id="XMLID_2897_" fill="url(#XMLID_12_)" d="M342.7,404.2l73.4-42.4c1.6-0.9,1.6-3.2,0-4.1l-42.4-24.5c-2-1.1-4.4-1.1-6.3,0
			L294,375.6c-1.6,0.9-1.6,3.2,0,4.1l42.4,24.5C338.3,405.3,340.7,405.3,342.7,404.2z"/>
	</g>
</g>
<g id="XMLID_1435_">
	<polygon id="XMLID_1437_" fill="#2E5B24" points="259.1,379.8 364.1,319.5 364.1,315.4 224.7,355.9 224.7,359.9 	"/>
	<polygon id="XMLID_1214_" fill="#448339" points="259.1,375.8 364.1,315.4 329.7,295.5 224.7,355.9 	"/>
</g>
<g id="XMLID_1253_">
	
		<linearGradient id="XMLID_13_" gradientUnits="userSpaceOnUse" x1="159.695" y1="351.6307" x2="84.8525" y2="300.6234" gradientTransform="matrix(-1 0 0 1 492.3074 0)">
		<stop  offset="3.627230e-003" style="stop-color:#FFFFFF;stop-opacity:0"/>
		<stop  offset="1" style="stop-color:#C1E29F"/>
	</linearGradient>
	<polygon id="XMLID_1469_" fill-rule="evenodd" clip-rule="evenodd" fill="url(#XMLID_13_)" points="428.4,339.5 397,339.5 
		329.7,300.5 362.5,281.6 	"/>
	<g id="XMLID_2630_">
		<polygon id="XMLID_2628_" fill-rule="evenodd" clip-rule="evenodd" fill="#C69A7B" points="428.4,279.2 428.4,339.5 495,301 
			495,240.7 		"/>
		<polygon id="XMLID_2584_" fill-rule="evenodd" clip-rule="evenodd" fill="#E0B79B" points="428.4,279.2 361.8,240.7 428.4,202.2 
			495,240.7 		"/>
		<polygon id="XMLID_2243_" fill-rule="evenodd" clip-rule="evenodd" fill="#C69A7B" points="399.2,262.4 391,257.6 457.6,219 
			465.8,223.9 		"/>
		<polygon id="XMLID_2242_" fill-rule="evenodd" clip-rule="evenodd" fill="#A57A62" points="428.4,279.2 428.4,339.5 361.8,301 
			361.8,240.7 		"/>
		<polygon id="XMLID_1666_" fill-rule="evenodd" clip-rule="evenodd" fill="#93654E" points="399.2,262.4 399.2,275 391,270.2 
			391,257.6 		"/>
		<polygon id="XMLID_1614_" fill-rule="evenodd" clip-rule="evenodd" fill="#93654E" points="399.2,310 399.2,322.6 391,317.8 
			391,305.2 		"/>
	</g>
	
		<linearGradient id="XMLID_14_" gradientUnits="userSpaceOnUse" x1="113.3878" y1="282.9455" x2="80.019" y2="222.8816" gradientTransform="matrix(-1 0 0 1 492.3074 0)">
		<stop  offset="3.627230e-003" style="stop-color:#FFFFFF;stop-opacity:0"/>
		<stop  offset="1" style="stop-color:#93654E"/>
	</linearGradient>
	<polygon id="XMLID_1453_" fill-rule="evenodd" clip-rule="evenodd" fill="url(#XMLID_14_)" points="428.4,267 407.2,267 
		361.8,240.7 383.9,227.9 	"/>
	<g id="XMLID_1455_">
		<polygon id="XMLID_1465_" fill-rule="evenodd" clip-rule="evenodd" fill="#C69A7B" points="428.4,225.7 428.4,267 474,240.6 
			474,199.3 		"/>
		<polygon id="XMLID_1464_" fill-rule="evenodd" clip-rule="evenodd" fill="#E0B79B" points="428.4,225.7 382.7,199.3 428.4,173 
			474,199.3 		"/>
		<polygon id="XMLID_1463_" fill-rule="evenodd" clip-rule="evenodd" fill="#C69A7B" points="408.4,214.2 402.8,210.9 448.5,184.5 
			454,187.8 		"/>
		<polygon id="XMLID_1462_" fill-rule="evenodd" clip-rule="evenodd" fill="#A57A62" points="428.4,225.7 428.4,267 382.7,240.6 
			382.7,199.3 		"/>
		<polygon id="XMLID_1461_" fill-rule="evenodd" clip-rule="evenodd" fill="#93654E" points="408.4,214.2 408.4,222.8 402.8,219.5 
			402.8,210.9 		"/>
		<polygon id="XMLID_1460_" fill-rule="evenodd" clip-rule="evenodd" fill="#93654E" points="408.4,246.9 408.4,255.5 402.8,252.2 
			402.8,243.6 		"/>
	</g>
</g>
<circle id="XMLID_1359_" fill="#BC3939" cx="324.8" cy="257.4" r="8.1"/>
<circle id="XMLID_1497_" fill="#BC3939" cx="194.9" cy="390.4" r="8.1"/>
<circle id="XMLID_1499_" fill="#BC3939" cx="138.9" cy="354.9" r="8.1"/>
<g>
	<g>
		<path fill="#FFFFFF" d="M264.7,343.7c0.9-0.5,1.3-0.8,2.2-1.3c2.3,1.4,3.1,2.1,4.9,3.3c0.4-0.3,0.6-0.6,0.6-0.8
			c0-0.2-0.3-0.8-0.9-1.7c-0.8-1.1-1.2-1.9-1.1-2.4c0.1-0.5,0.7-1,1.7-1.6c0,0,0.2-0.1,0.3-0.2c0.8,0.5,1.1,0.7,1.8,1.2
			c-0.1,0.1-0.2,0.1-0.3,0.2c-0.4,0.3-0.7,0.5-0.8,0.7c-0.1,0.2-0.1,0.4,0,0.7c0.1,0.2,0.4,0.7,0.8,1.3c0.2,0.3,0.4,0.6,0.5,0.9
			c0.1,0.3,0,0.6-0.1,1c0.6-0.2,1.3-0.2,2-0.1c0.7,0.1,1.6,0.3,2.7,0.6c1.7,0.4,2.6,0.7,4.4,1.1c-1,0.6-1.5,0.9-2.5,1.5
			c-1.7-0.5-2.5-0.7-4.1-1.1c-0.1,0-0.2,0-0.3-0.1c-0.1,0-0.3-0.1-0.7-0.2c-0.8-0.2-1.3-0.3-1.6-0.3s-0.6,0.1-1,0.3
			c1.7,1.3,2.5,1.9,4.6,3.2c-0.9,0.5-1.3,0.8-2.2,1.3C270.8,348.3,270.1,347.1,264.7,343.7z"/>
		<path fill="#FFFFFF" d="M276,341.1c0.9-0.5,1.3-0.8,2.2-1.3c3,1.1,4.2,1.6,7.1,2.7c-1.5-1.9-2-2.8-3.5-4.8
			c0.8-0.5,1.3-0.8,2.1-1.3c1.9,2.8,2.5,4,4.6,6.7c0.4,0.5,0.6,0.7,1,1.2c0.4,0.4,0.6,0.8,0.8,1c0.1,0.3,0.2,0.5,0.2,0.8
			c0,0.2-0.1,0.5-0.3,0.7c-0.2,0.2-0.5,0.5-0.9,0.7c-0.4,0.2-0.8,0.4-1.3,0.6c-1-0.4-1.4-0.6-2.3-1c0.4-0.1,0.7-0.3,1-0.4
			c0.5-0.3,0.7-0.6,0.6-0.9c-0.1-0.3-0.3-0.7-0.7-1.1C282,343.3,280.3,342.7,276,341.1z"/>
		<path fill="#FFFFFF" d="M285.1,335.7c2.7-1.6,4.1-2.4,6.8-4.1c3.1,2.2,4.3,3.1,7.8,5.3c-0.8,0.5-1.2,0.7-2.1,1.2
			c-2.7-1.7-3.8-2.5-6.1-4.1c-1.1,0.7-1.7,1-2.8,1.6c2.4,1.7,3.4,2.4,6.1,4.1c-0.8,0.5-1.2,0.7-2.1,1.2
			C289.4,338.8,288.2,337.9,285.1,335.7z"/>
		<path fill="#FFFFFF" d="M294.1,330.4c0.8-0.5,1.2-0.7,2-1.2c1.9,1.4,2.8,2,4.8,3.3c-0.7-2.1-1-3.1-1.7-5.2c0.8-0.5,1.2-0.7,2-1.2
			c3.1,2.2,4.4,3.1,7.9,5.3c-0.8,0.5-1.2,0.7-2,1.2c-2.2-1.4-3.2-2-5.1-3.4c0.7,2.1,1,3.1,1.9,5.2c-0.8,0.5-1.2,0.7-2,1.2
			C298.5,333.5,297.2,332.5,294.1,330.4z"/>
		<path fill="#FFFFFF" d="M302.3,325.4c2.8-1.7,4.2-2.5,6.9-4.1c0.7,0.5,1,0.7,1.6,1.1c-1,0.6-1.5,0.9-2.5,1.5
			c2.4,1.6,3.6,2.4,6.4,4.1c-0.8,0.5-1.2,0.7-2.1,1.2c-2.8-1.7-3.9-2.5-6.3-4.1c-1,0.6-1.5,0.9-2.5,1.5
			C303.3,326.1,303,325.9,302.3,325.4z"/>
		<path fill="#FFFFFF" d="M310.5,320.5c0.8-0.5,1.2-0.7,2-1.2c1.3,0.9,1.9,1.3,3.2,2.2c0.8-0.5,1.2-0.7,2-1.2c0.8-0.5,1.5-0.8,2-1
			c0.6-0.2,1.2-0.2,1.9-0.1c0.7,0.1,1.3,0.3,1.9,0.6c0.8,0.5,1.2,1,1.1,1.6c-0.1,0.6-0.6,1.2-1.7,1.8c-1.8,1-2.6,1.6-4.4,2.6
			C315.1,323.6,313.6,322.7,310.5,320.5z M319.2,323.7c0.8-0.5,1.1-0.7,1.9-1.1c0.6-0.4,0.9-0.6,0.8-0.9s-0.2-0.4-0.5-0.6
			c-0.4-0.3-0.8-0.3-1.3-0.3c-0.4,0.1-1,0.3-1.8,0.8c-0.5,0.3-0.8,0.5-1.3,0.8C317.9,322.9,318.3,323.1,319.2,323.7z"/>
	</g>
</g>
</svg>
