<?xml version="1.0" encoding="utf-8"?>
<!-- Generator: Adobe Illustrator 18.0.0, SVG Export Plug-In . SVG Version: 6.00 Build 0)  -->
<!DOCTYPE svg PUBLIC "-//W3C//DTD SVG 1.1//EN" "http://www.w3.org/Graphics/SVG/1.1/DTD/svg11.dtd">
<svg version="1.1" id="Layer_1" xmlns="http://www.w3.org/2000/svg" xmlns:xlink="http://www.w3.org/1999/xlink" x="0px" y="0px"
	 viewBox="0 0 284.3 243.6" enable-background="new 0 0 284.3 243.6" xml:space="preserve">
<rect x="140.3" y="215.1" fill="#820D24" width="9.1" height="18.1"/>
<path fill="#9B1327" d="M149,183.6l4.3,3.3l39.2,15.9c8.5,3.4,15,10.6,17.5,19.5v0l-65.5-25.7l-2.8-16"/>
<rect x="140.1" y="215.1" fill="#820D24" width="9.1" height="18.1"/>
<path fill="#9B1327" d="M140.4,183.6l-4.3,3.3l-39.2,15.9c-8.5,3.4-15,10.6-17.5,19.5v0l65.5-25.7l2.8-16"/>
<polygon fill="#C5252E" points="145.5,183.7 145.5,182.3 144.7,183 143.9,182.3 144,183.7 133.3,193.9 140.1,215.1 144.5,215.1 
	145,215.1 149.3,215.1 156.1,193.9 "/>
<path fill="none" stroke="#820D24" stroke-width="5" stroke-miterlimit="10" d="M52.5,90.8V15.9c0-10.2,11.3-16.3,19.9-10.8
	l11.3,7.4"/>
<rect x="139.9" y="39.5" fill="#C5252E" width="9" height="19"/>
<path fill="#820D24" d="M156.1,42.8h-23.3c-6.4,0-11.5-5.1-11.5-11.5v0c0-6.4,5.1-11.5,11.5-11.5h23.3c6.4,0,11.5,5.1,11.5,11.5v0
	C167.6,37.7,162.5,42.8,156.1,42.8z"/>
<path fill="#9B1327" d="M184.4,120.1v34.3h0c5.5,0,10.1-4,10.9-9.5l4-29.5C199.3,115.5,184.4,98.1,184.4,120.1z"/>
<polygon fill="#820D24" points="153.3,158.1 136.1,158.1 134.3,158.1 134.3,187.9 136.1,187.9 153.3,187.9 155.1,187.9 155.1,158.1 
	"/>
<path fill="#820D24" d="M169,54.1c-8.9,0-21.4,0-24,0c-0.3,0-0.5,0-0.5,0c-2.6,0-15.1,0-24,0c-10,0-16.3,11-15.3,20s5.7,18.3,5.7,28
	s0,44.7,0,44.7h33.7h0.5h33.7c0,0,0-35,0-44.7s4.7-19,5.7-28S179,54.1,169,54.1z"/>
<path fill="#9B1327" d="M105,120.1v34.3h0c-5.5,0-10.1-4-10.9-9.5l-4-29.5C90.1,115.5,105,98.1,105,120.1z"/>
<path fill="#C5252E" d="M145,136.1h-0.5h-28.3c-6.1,0-11.1,5-11.1,11.1v11.3c0,1.8,1.5,3.3,3.3,3.3h36.4h0.1h36.4
	c1.8,0,3.3-1.5,3.3-3.3v-11.3c0-6.1-5-11.1-11.1-11.1H145z"/>
<path fill="#C5252E" d="M76.5,93.5H28.4v0c0-3.3,2.7-6,6-6h36.1C73.8,87.5,76.5,90.2,76.5,93.5L76.5,93.5z"/>
<g>
	<g>
		<path fill="#C5252E" d="M111.7,19.3l-18,19.6L82.2,25.5c-3.7-4.3-3.6-10.7,0.3-14.9l0,0C86.3,6.4,92.7,5.7,97.3,9L111.7,19.3z"/>
		<g>
			<path fill="#820D24" d="M111.5,19.1c1.8,1.7-2,8.8-5.7,12.8s-10.5,8.5-12.3,6.8c-1.8-1.7,2-8.8,5.7-12.8S109.7,17.4,111.5,19.1z"
				/>
		</g>
	</g>
</g>
<path fill="#C5252E" d="M253,93.5l-41.5,2l-41.5-2V45c0-3.1,2.5-5.6,5.6-5.6h71.9c3.1,0,5.6,2.5,5.6,5.6V93.5z"/>
<circle fill="#FFFFFF" cx="211.4" cy="66.8" r="5.5"/>
<g>
	<path fill="#820D24" d="M266.8,233.9L266.8,233.9c-0.9,0.3-1.8-0.2-2.1-1.1l-35.1-108.9l10.9-3.1L268,231.9
		C268.3,232.8,267.7,233.7,266.8,233.9z"/>
	<path fill="#820D24" d="M21.8,233.9L21.8,233.9c0.9,0.3,1.8-0.2,2.1-1.1l35.1-108.9L48,120.8L20.6,231.9
		C20.4,232.8,20.9,233.7,21.8,233.9z"/>
	<rect x="71.6" y="98.5" fill="#C5252E" width="147.7" height="21.7"/>
	<rect x="204" y="98.5" fill="#C5252E" width="72" height="42.3"/>
	<rect x="12.6" y="98.5" fill="#C5252E" width="72" height="42.3"/>
	<rect x="4" y="93.5" fill="#9B1327" width="280.3" height="10.7"/>
</g>
<path fill="#C5252E" d="M209.8,222.7c1,6.2-4.3,11.5-10.5,10.5c-3.8-0.6-6.8-3.6-7.4-7.4c-1-6.2,4.3-11.5,10.5-10.5
	C206.2,215.9,209.2,218.9,209.8,222.7z"/>
<path fill="#820D24" d="M206.3,222.9c0.9,4-2.6,7.5-6.6,6.6c-2-0.5-3.7-2.1-4.1-4.1c-0.9-4,2.6-7.5,6.6-6.6
	C204.2,219.3,205.8,220.9,206.3,222.9z"/>
<path fill="#C5252E" d="M79.6,222.7c-1,6.2,4.3,11.5,10.5,10.5c3.8-0.6,6.8-3.6,7.4-7.4c1-6.2-4.3-11.5-10.5-10.5
	C83.2,215.9,80.2,218.9,79.6,222.7z"/>
<path fill="#820D24" d="M83.1,222.9c-0.9,4,2.6,7.5,6.6,6.6c2-0.5,3.7-2.1,4.1-4.1c0.9-4-2.6-7.5-6.6-6.6
	C85.2,219.3,83.6,220.9,83.1,222.9z"/>
</svg>
