<?xml version="1.0" encoding="utf-8"?>
<!-- Generator: Adobe Illustrator 18.0.0, SVG Export Plug-In . SVG Version: 6.00 Build 0)  -->
<!DOCTYPE svg PUBLIC "-//W3C//DTD SVG 1.1//EN" "http://www.w3.org/Graphics/SVG/1.1/DTD/svg11.dtd">
<svg version="1.1" id="Слой_1" xmlns="http://www.w3.org/2000/svg" xmlns:xlink="http://www.w3.org/1999/xlink" x="0px" y="0px"
	 viewBox="0 0 137.2 132.5" enable-background="new 0 0 137.2 132.5" xml:space="preserve">
<rect x="97.5" y="121.5" fill="#820D24" width="5.1" height="10.1"/>
<path fill="#9B1327" d="M102.4,103.8l2.4,1.9l21.9,8.9c4.8,1.9,8.4,6,9.8,10.9l-36.7-14.4l-1.6-9"/>
<rect x="97.4" y="121.5" fill="#820D24" width="5.1" height="10.1"/>
<path fill="#9B1327" d="M97.6,103.8l-2.4,1.9l-21.9,8.9c-4.8,1.9-8.4,6-9.8,10.9l36.7-14.4l1.6-9"/>
<polygon fill="#C5252E" points="100.4,103.9 100.4,103.1 100,103.5 99.6,103.1 99.6,103.9 93.6,109.6 97.4,121.5 99.8,121.5 
	100.1,121.5 102.6,121.5 106.4,109.6 "/>
<polygon fill="#820D24" points="104,94 95.9,94 95.1,94 95.1,108 95.9,108 104,108 104.9,108 104.9,94 "/>
<path fill="#C5252E" d="M136.4,125.7c0.6,3.5-2.4,6.4-5.9,5.9c-2.1-0.3-3.8-2-4.1-4.1c-0.6-3.5,2.4-6.4,5.9-5.9
	C134.4,121.9,136.1,123.6,136.4,125.7"/>
<path fill="#820D24" d="M134.5,125.9c0.5,2.3-1.5,4.2-3.7,3.7c-1.1-0.3-2.1-1.2-2.3-2.3c-0.5-2.3,1.5-4.2,3.7-3.7
	C133.3,123.8,134.2,124.7,134.5,125.9"/>
<path fill="#C5252E" d="M63.5,125.7c-0.6,3.5,2.4,6.4,5.9,5.9c2.1-0.3,3.8-2,4.1-4.1c0.6-3.5-2.4-6.4-5.9-5.9
	C65.6,121.9,63.9,123.6,63.5,125.7"/>
<path fill="#820D24" d="M65.5,125.9c-0.5,2.3,1.5,4.2,3.7,3.7c1.1-0.3,2.1-1.2,2.3-2.3c0.5-2.3-1.5-4.2-3.7-3.7
	C66.7,123.8,65.8,124.7,65.5,125.9"/>
<path fill="#820D24" d="M79.6,4.4C82.1,1.2,92.1,0.8,98.7,8c12.7,13.8,20.6,12,20.6,12s-3.4-18.7,2.4-20
	c5.8-1.3,13.6,18.5,15.1,35.1c1.5,16.6-0.4,34.6-9.7,47.1s-29.7,19.8-46.7,9c-17-10.8-24.3-36.1-14.8-39.4c8.8-3,11.8,1.7,17.6,4.9
	c6.5,3.7,15.5,4.5,18.3-1.9c2.8-6.5-14.6-20.3-21.5-33.8C75.7,12.7,77.2,7.4,79.6,4.4z"/>
<g>
	<path fill="#9B1327" d="M96.5,59.2C96.5,59.2,96.5,59.2,96.5,59.2c0.3-0.1,0.5-0.2,0.8-0.3C97.1,59,96.8,59.1,96.5,59.2z"/>
	<path fill="#C5252E" d="M136.8,35.1c-1.5-16.6-9.2-36.3-15.1-35.1c-5.8,1.3-2.4,20-2.4,20s3.2,15.9,5.6,28.2
		c2.4,12.3,1.7,21.1-7.5,20.7c-9-0.4-10.7-12.8-20.1-10c-0.3,0.1-0.6,0.2-0.9,0.3C86.4,63.1,86,73.7,74.4,73.4
		c-7.3-0.2-10.4-3.5-11.7-5.7c2.6,8.3,8.8,17.9,17.7,23.5c17,10.8,37.4,3.4,46.7-9S138.3,51.7,136.8,35.1z"/>
</g>
<path fill="#9B1327" d="M7,132.4L7,132.4c0.9,0.3,1.9,0,2.2-0.8l11.1-28.5l-6.1-2.1l-8.4,29.4C5.5,131.3,6,132.1,7,132.4"/>
<path fill="#9B1327" d="M57.1,132.4L57.1,132.4c-0.9,0.3-1.9,0-2.2-0.8l-11.1-28.5l6.1-2.1l8.4,29.4C58.6,131.3,58,132.1,57.1,132.4
	"/>
<rect y="75.6" fill="#820D24" width="62.5" height="35.5"/>
<g>
	<rect x="5.7" y="81.2" fill="#C5252E" width="51.2" height="11.6"/>
	<rect x="5.7" y="93.8" fill="#C5252E" width="51.2" height="11.6"/>
</g>
<circle fill="#FFFFFF" cx="32.1" cy="99.7" r="3.1"/>
<circle fill="#FFFFFF" cx="32.1" cy="86.7" r="3.1"/>
<rect x="30.3" y="37.6" fill="#820D24" width="4.1" height="33.6"/>
<rect x="19" y="70.6" fill="#C5252E" width="26.8" height="4.9"/>
<g>
	<path fill="#C5252E" d="M31.5,25.9c-10.3,0-18.6,8.3-18.6,18.6h37.2C50.1,34.2,41.8,25.9,31.5,25.9z"/>
</g>
</svg>
