<?xml version="1.0" encoding="utf-8"?>
<!-- Generator: Adobe Illustrator 18.0.0, SVG Export Plug-In . SVG Version: 6.00 Build 0)  -->
<!DOCTYPE svg PUBLIC "-//W3C//DTD SVG 1.1//EN" "http://www.w3.org/Graphics/SVG/1.1/DTD/svg11.dtd">
<svg version="1.1" id="Layer_1" xmlns="http://www.w3.org/2000/svg" xmlns:xlink="http://www.w3.org/1999/xlink" x="0px" y="0px"
	 viewBox="0 0 919.5 265.1" enable-background="new 0 0 919.5 265.1" xml:space="preserve">
<path fill="#FFFFFF" d="M898.4,107.1h-67.2c-2.1,0-3.7-1.7-3.7-3.7V102c0-2.1,1.7-3.7,3.7-3.7h47.3c11.6,0,21.1-9.4,21.1-21.1v-1.9
	c0-11.6-9.4-21.1-21.1-21.1h-49.6c-2.1,0-3.7-1.7-3.7-3.7s1.7-3.7,3.7-3.7h24c11.6,0,21.1-9.4,21.1-21.1s-9.4-21.1-21.1-21.1h-98.3
	c-13.1,0-26.2,0.8-39.2,2.5L605.2,21.4l0,0.3H232.5v187.4h373.3h21.1h3.2l9.8,16.2c10.3,17,36.2,35,55.6,39.1l121.5,0.6
	c6.2,1.3,12.2-3,13-9.3l0,0c2.5-21.2-11.5-32.9-32.4-37.4l-56.9,0.8c-5-1.1-4.2-8.4,0.9-8.4h155.5c11.6,0,21.1-9.4,21.1-21.1v-6.2
	c0-11.6-9.4-21.1-21.1-21.1h-65.9c-2.1,0-3.7-1.7-3.7-3.7V158c0-2.1,1.7-3.7,3.7-3.7h67.2c11.6,0,21.1-9.4,21.1-21.1v-4.9
	C919.5,116.6,910.1,107.1,898.4,107.1z"/>
<g>
	<path fill="#E3E0D5" d="M878.4,88.3h-47.3c-2.1,0-3.7,1.7-3.7,3.7v1.4c0,2.1,1.7,4.7,3.7,4.7h54.2c8.2-2.9,14.1-11.7,14.1-20.9
		v-1.9c0-1.4-0.1-2.7-0.4-4.1C897.2,81,888.7,88.3,878.4,88.3z"/>
	<path fill="#E3E0D5" d="M852.8,36.8h-24c-2.1,0-3.7,1.7-3.7,3.7s1.7,4.7,3.7,4.7h34.1c6.6-3.6,11-11.5,11-19.5c0-1.7-0.2-3.4-0.6-5
		C871,29.9,862.7,36.8,852.8,36.8z"/>
	<path fill="#E3E0D5" d="M817,254.9l-121.5-0.6c-19.4-4.1-45.3-22.1-55.6-39.1l-9.8-16.2h-3.2h-21.1H232.5v10h373.3h21.1h3.2
		l9.8,16.2c10.3,17,36.2,35,55.6,39.1l121.5,0.6c6.2,1.3,12.2-3,13-9.3c0.4-3.4,0.4-6.7,0-9.9C829.2,251.9,823.2,256.2,817,254.9z"
		/>
	<path fill="#E3E0D5" d="M897.1,200.6H741.5c-5.1,0-5.8,7.3-0.9,8.4l7.6,1.6h148.8c11.6,0,21.1-9.4,21.1-21.1v-6.2
		c0-0.6,0-1.3-0.1-1.9C917.1,192.2,908.1,200.6,897.1,200.6z"/>
	<path fill="#E3E0D5" d="M898.4,144.2h-67.2c-2.1,0-3.7,1.7-3.7,3.7v0.5c0,2.1,1.7,4.7,3.7,4.7h48.9c3.2,0,6.3-0.3,9,1h9.4
		c11.6,0,21.1-9.4,21.1-21.1v-4.9c0-0.9-0.1-1.7-0.2-2.5C918.1,136.1,909.2,144.2,898.4,144.2z"/>
</g>
<rect x="522.1" y="21.7" fill="#9E0A18" width="72.8" height="187.4"/>
<rect x="522.1" y="21.7" fill="#C5252E" width="72.8" height="164.2"/>
<g>
	<circle fill="#F0F0F0" cx="558" cy="117.4" r="51"/>
	<line fill="none" stroke="#C5252E" stroke-width="5" stroke-miterlimit="10" x1="558" y1="69.7" x2="558" y2="80.1"/>
	<line fill="none" stroke="#C5252E" stroke-width="2" stroke-miterlimit="10" x1="564.6" y1="82.3" x2="557.3" y2="122.8"/>
	<line fill="none" stroke="#C5252E" stroke-width="6" stroke-miterlimit="10" x1="584.2" y1="104.9" x2="553" y2="119.8"/>
	<line fill="none" stroke="#C5252E" stroke-width="5" stroke-miterlimit="10" x1="558" y1="154.4" x2="558" y2="164.8"/>
	<line fill="none" stroke="#C5252E" stroke-width="5" stroke-miterlimit="10" x1="605.5" y1="117.3" x2="595.1" y2="117.3"/>
	<line fill="none" stroke="#C5252E" stroke-width="5" stroke-miterlimit="10" x1="520.8" y1="117.3" x2="510.4" y2="117.3"/>
	<g>
		<line fill="none" stroke="#C5252E" stroke-width="2" stroke-miterlimit="10" x1="582.1" y1="158.2" x2="576.9" y2="149.3"/>
		<line fill="none" stroke="#C5252E" stroke-width="2" stroke-miterlimit="10" x1="539.1" y1="85.3" x2="533.8" y2="76.3"/>
		<line fill="none" stroke="#C5252E" stroke-width="2" stroke-miterlimit="10" x1="599.5" y1="140.5" x2="590.4" y2="135.4"/>
		<line fill="none" stroke="#C5252E" stroke-width="2" stroke-miterlimit="10" x1="525.5" y1="99.1" x2="516.4" y2="94"/>
	</g>
	<g>
		<line fill="none" stroke="#C5252E" stroke-width="2" stroke-miterlimit="10" x1="517" y1="141.4" x2="526" y2="136.1"/>
		<line fill="none" stroke="#C5252E" stroke-width="2" stroke-miterlimit="10" x1="590" y1="98.4" x2="598.9" y2="93.1"/>
		<line fill="none" stroke="#C5252E" stroke-width="2" stroke-miterlimit="10" x1="534.7" y1="158.8" x2="539.8" y2="149.7"/>
		<line fill="none" stroke="#C5252E" stroke-width="2" stroke-miterlimit="10" x1="576.1" y1="84.8" x2="581.2" y2="75.7"/>
	</g>
	<path fill="#9E0A18" d="M559.4,52.1c-36.9,0-66.9,29.9-66.9,66.9c0,36.9,29.9,66.9,66.9,66.9c36.9,0,66.9-29.9,66.9-66.9
		C626.3,82,596.4,52.1,559.4,52.1z M559.4,171.1c-28.8,0-52.2-23.4-52.2-52.2c0-28.8,23.4-52.2,52.2-52.2
		c28.8,0,52.2,23.4,52.2,52.2C611.6,147.7,588.3,171.1,559.4,171.1z"/>
	<path fill="#C5252E" d="M556.4,49.1c-36.9,0-66.9,29.9-66.9,66.9c0,36.9,29.9,66.9,66.9,66.9c36.9,0,66.9-29.9,66.9-66.9
		C623.3,79,593.4,49.1,556.4,49.1z M556.4,168.1c-28.8,0-52.2-23.4-52.2-52.2c0-28.8,23.4-52.2,52.2-52.2
		c28.8,0,52.2,23.4,52.2,52.2C608.6,144.7,585.3,168.1,556.4,168.1z"/>
</g>
<polygon fill="#87081B" points="479.2,209.1 127.3,209.1 127.3,21.7 529.7,21.7 "/>
<polygon fill="#9E0A18" points="484.2,189.1 131.3,189.1 127.3,21.7 532.7,21.7 "/>
<path fill="#9E0A18" d="M367.6,230.7H0L0,0l367.6,0c23,0,41.6,18.6,41.6,41.6v147.6C409.2,212.1,390.6,230.7,367.6,230.7z"/>
<path fill="#C5252E" d="M367.6,211H0L0,0l367.6,0c23,0,41.6,18.6,41.6,41.6v127.8C409.2,192.4,390.6,211,367.6,211z"/>
</svg>
