<svg xmlns="http://www.w3.org/2000/svg" xmlns:xlink="http://www.w3.org/1999/xlink" version="1.1" x="0px" y="0px" viewBox="0 0 50 33">

<rect x="0" fill="#C4252F" width="50" height="33"/>
<g>
	<polygon fill="#FFFFFF" points="15.9,5 9.1,5 7,10 18,10  "/>
	<rect x="12" y="10" fill="#FFFFFF" width="1" height="15"/>
	<rect x="10" y="25" fill="#FFFFFF" width="5" height="1"/>
</g>
<g>
	<path fill="#FFFFFF" d="M40,9.6c-0.8,0-1.4,0.3-2,0.8c-0.7-0.9-2.8-2.8-7-2.9v0c0,0,0,0,0,0s0,0,0,0v0c-4.2,0-6.3,2-7,2.9   c-0.5-0.5-1.2-0.8-2-0.8c-1.6,0-3,1.3-3,3v1.1c0,1.1,1,2,2.2,2.3H21v9h1v-8.9V16v-0.9c-0.8,0-2-0.7-2-1.5v-1.1c0-1.1,0.9-2,2-2   s2,0.9,2,2h0V17v0.9V21h14v-3.1V17v-4.4h0c0-1.1,0.9-2,2-2s2,0.9,2,2v1.1c0,0.8-1.2,1.5-2,1.5V16v0.1V25h-2.9v1h3v-1H41v-9h-0.2   c1.1-0.3,2.2-1.2,2.2-2.3v-1.1C43,10.9,41.6,9.6,40,9.6z M25,17v-4.7h-0.1c0-0.4-0.2-0.8-0.3-1.1c0.5-0.7,2.4-2.7,6.4-2.7   c4,0,5.9,2,6.4,2.7c-0.2,0.3-0.3,0.7-0.3,1.1H37V17H25z"/>
	<rect x="36" y="23" fill="#FFFFFF" width="1" height="2"/>
	<rect x="25" y="23.1" fill="#FFFFFF" width="1" height="1.9"/>
	<rect x="22" y="25" fill="#FFFFFF" width="3" height="1"/>
	<polygon fill="#FFFFFF" points="30.8,22 26.1,22 26.1,23 30.8,23 31.2,23 35.9,23 35.9,22 31.2,22  "/>
</g>
</svg>