<?xml version="1.0" encoding="utf-8"?>
<!-- Generator: Adobe Illustrator 18.0.0, SVG Export Plug-In . SVG Version: 6.00 Build 0)  -->
<!DOCTYPE svg PUBLIC "-//W3C//DTD SVG 1.1//EN" "http://www.w3.org/Graphics/SVG/1.1/DTD/svg11.dtd">
<svg version="1.1" id="Layer_1" xmlns="http://www.w3.org/2000/svg" xmlns:xlink="http://www.w3.org/1999/xlink" x="0px" y="0px"
	 viewBox="0 0 233.3 33" enable-background="new 0 0 233.3 33" xml:space="preserve">
<rect x="50" fill="#545451" width="183.3" height="33"/>
<rect x="0" fill="#C4252F" width="50" height="33"/>
<path fill="#FFFFFF" d="M60.1,25V9h2.6l3.1,11.4l0.6,2.3c0.2-0.6,0.4-1.4,0.7-2.5L70.1,9h2.3v16h-1.6V11.8L67,25h-1.5l-3.7-13.4V25
	H60.1z"/>
<path fill="#FFFFFF" d="M78.8,25v-6.7l-5-9.3h2.1l2.5,5c0.5,0.9,0.9,1.8,1.3,2.7c0.4-0.8,0.9-1.8,1.4-2.8L83.7,9h2l-5.2,9.3V25H78.8
	z"/>
<path fill="#FFFFFF" d="M84.4,25l5-16h1.8l5.3,16h-2l-1.5-4.8h-5.4L86.3,25H84.4z M88.2,18.5h4.4l-1.3-4.4c-0.4-1.3-0.7-2.4-0.9-3.3
	c-0.2,1-0.4,2-0.7,3L88.2,18.5z"/>
<path fill="#FFFFFF" d="M111,25V9.3h5.6c1.2,0,2.1,0.1,2.6,0.4c0.6,0.3,1,0.8,1.4,1.4s0.5,1.5,0.5,2.4c0,1.2-0.3,2.2-0.9,2.9
	c-0.6,0.7-1.5,1.2-2.7,1.4c0.5,0.3,0.8,0.6,1.1,0.9c0.5,0.6,1,1.3,1.3,2l2.3,4.3h-2.1l-1.7-3.3c-0.7-1.3-1.2-2.1-1.5-2.6
	c-0.3-0.4-0.7-0.7-1-0.9s-0.8-0.2-1.3-0.2H113v7H111z M113,16.2h3.3c0.8,0,1.4-0.1,1.8-0.3s0.7-0.5,1-0.9s0.4-0.9,0.4-1.5
	c0-0.8-0.2-1.4-0.7-1.9c-0.5-0.5-1.2-0.7-2.1-0.7H113V16.2z"/>
<path fill="#FFFFFF" d="M98,25V9.3h5.3c1.2,0,2.1,0.1,2.6,0.4c0.6,0.3,1,0.8,1.4,1.4s0.5,1.5,0.5,2.4c0,1.2-0.3,2.2-0.9,2.9
	c-0.6,0.7-1.5,1.2-2.7,1.4c0.5,0.3,0.8,0.6,1.1,0.9c0.5,0.6,1,1.3,1.3,2L109,25h-2.1l-1.7-3.3c-0.7-1.3-1.2-2.1-1.5-2.6
	c-0.3-0.4-0.7-0.7-1-0.9s-0.8-0.2-1.3-0.2H100v7H98z M100,16.2h3c0.8,0,1.4-0.1,1.8-0.3s0.7-0.5,1-0.9s0.4-0.9,0.4-1.5
	c0-0.8-0.2-1.4-0.7-1.9c-0.5-0.5-1.2-0.7-2.1-0.7H100V16.2z"/>
<path fill="#FFFFFF" d="M124,25V9h10v2h-8v5h7v2h-7v5h8v2H124z"/>
<path fill="#FFFFFF" d="M136,25V9.3h4.4c1.1,0,1.9,0.1,2.5,0.3c0.8,0.3,1.4,0.7,2,1.3s1,1.5,1.3,2.5c0.3,1,0.5,2.2,0.5,3.6
	c0,1.8-0.3,3.3-0.8,4.5c-0.5,1.2-1.2,2.1-2,2.6c-0.8,0.5-1.9,0.8-3.2,0.8H136z M138,23.1h2.4c1.1,0,2-0.2,2.5-0.5
	c0.6-0.4,1-0.9,1.3-1.7c0.4-1.1,0.6-2.3,0.6-3.8c0-1.6-0.2-2.9-0.7-3.8c-0.4-0.9-1-1.5-1.7-1.8c-0.5-0.2-1.2-0.3-2.2-0.3H138V23.1z"
	/>
<path fill="#FFFFFF" d="M148.3,17.3c0-2.7,0.6-4.8,1.8-6.2c1.2-1.4,2.7-2.1,4.4-2.1c1.1,0,2.2,0.3,3.1,1s1.7,1.6,2.2,2.8
	c0.5,1.2,0.8,2.7,0.8,4.4c0,2.3-0.5,4.2-1.6,5.7c-1.2,1.6-2.7,2.4-4.6,2.4c-1.9,0-3.4-0.8-4.6-2.5C148.8,21.3,148.3,19.5,148.3,17.3
	z M150.1,17.4c0,1.9,0.4,3.4,1.3,4.5c0.9,1.1,1.9,1.6,3.1,1.6c1.3,0,2.3-0.5,3.2-1.6c0.8-1.1,1.3-2.7,1.3-4.8c0-1.4-0.2-2.6-0.7-3.6
	c-0.3-0.8-0.8-1.5-1.5-2c-0.7-0.5-1.4-0.7-2.2-0.7c-1.3,0-2.4,0.5-3.2,1.6C150.5,13.4,150.1,15.1,150.1,17.4z"/>
<path fill="#FFFFFF" d="M162.5,25V9h9v2h-7v5h6v2h-6v7H162.5z"/>
<path fill="#FFFFFF" d="M171.2,25l5-15.7h1.8l5.3,15.7h-2l-1.5-4.8h-5.4L173,25H171.2z M174.9,18.5h4.4l-1.3-4.4
	c-0.4-1.3-0.7-2.4-0.9-3.3c-0.2,1-0.4,2-0.7,3L174.9,18.5z"/>
<path fill="#FFFFFF" d="M184.6,25V9h2.6l3.1,11.4l0.6,2.3c0.2-0.6,0.4-1.4,0.7-2.5L194.6,9h2.3v16h-1.6V11.8L191.5,25H190l-3.7-13.4
	V25H184.6z"/>
<path fill="#FFFFFF" d="M200.5,25V9h2v16H200.5z"/>
<path fill="#FFFFFF" d="M205.5,25V9h2v14h7v2H205.5z"/>
<path fill="#FFFFFF" d="M216.6,25v-6.7l-5-9.3h2.1l2.5,5c0.5,0.9,0.9,1.8,1.3,2.7c0.4-0.8,0.9-1.8,1.4-2.8l2.5-4.9h2l-5.2,9.3V25
	H216.6z"/>
<g>
	<polygon fill="#FFFFFF" points="15.9,5 9.1,5 7,10 18,10 	"/>
	<rect x="12" y="10" fill="#FFFFFF" width="1" height="15"/>
	<rect x="10" y="25" fill="#FFFFFF" width="5" height="1"/>
</g>
<g>
	<path fill="#FFFFFF" d="M40,9.6c-0.8,0-1.4,0.3-2,0.8c-0.7-0.9-2.8-2.8-7-2.9v0c0,0,0,0,0,0s0,0,0,0v0c-4.2,0-6.3,2-7,2.9
		c-0.5-0.5-1.2-0.8-2-0.8c-1.6,0-3,1.3-3,3v1.1c0,1.1,1,2,2.2,2.3H21v9h1v-8.9V16v-0.9c-0.8,0-2-0.7-2-1.5v-1.1c0-1.1,0.9-2,2-2
		s2,0.9,2,2h0V17v0.9V21h14v-3.1V17v-4.4h0c0-1.1,0.9-2,2-2s2,0.9,2,2v1.1c0,0.8-1.2,1.5-2,1.5V16v0.1V25h-2.9v1h3v-1H41v-9h-0.2
		c1.1-0.3,2.2-1.2,2.2-2.3v-1.1C43,10.9,41.6,9.6,40,9.6z M25,17v-4.7h-0.1c0-0.4-0.2-0.8-0.3-1.1c0.5-0.7,2.4-2.7,6.4-2.7
		c4,0,5.9,2,6.4,2.7c-0.2,0.3-0.3,0.7-0.3,1.1H37V17H25z"/>
	<rect x="36" y="23" fill="#FFFFFF" width="1" height="2"/>
	<rect x="25" y="23.1" fill="#FFFFFF" width="1" height="1.9"/>
	<rect x="22" y="25" fill="#FFFFFF" width="3" height="1"/>
	<polygon fill="#FFFFFF" points="30.8,22 26.1,22 26.1,23 30.8,23 31.2,23 35.9,23 35.9,22 31.2,22 	"/>
</g>
</svg>
