<?xml version="1.0" encoding="utf-8"?>
<!-- Generator: Adobe Illustrator 18.0.0, SVG Export Plug-In . SVG Version: 6.00 Build 0)  -->
<!DOCTYPE svg PUBLIC "-//W3C//DTD SVG 1.1//EN" "http://www.w3.org/Graphics/SVG/1.1/DTD/svg11.dtd">
<svg version="1.1" id="objects" xmlns="http://www.w3.org/2000/svg" xmlns:xlink="http://www.w3.org/1999/xlink" x="0px" y="0px"
	 viewBox="0 0 94.3 144" enable-background="new 0 0 94.3 144" xml:space="preserve">
<linearGradient id="SVGID_1_" gradientUnits="userSpaceOnUse" x1="47.1667" y1="144" x2="47.1667" y2="0">
	<stop  offset="0" style="stop-color:#9F252F"/>
	<stop  offset="1" style="stop-color:#C4252F"/>
</linearGradient>
<path fill="url(#SVGID_1_)" d="M92.8,59.3L92.8,59.3c1-3.9,1.6-7.9,1.6-12.1C94.3,21.1,73.2,0,47.2,0S0,21.1,0,47.2
	c0,6,1.1,11.7,3.1,16.9l0,0c0,0,0.1,0.3,0.4,0.9c0.1,0.2,0.2,0.5,0.3,0.7c2.3,5.6,10.4,24.8,19.2,40c10.5,18,24.2,38.3,24.2,38.3
	s13.8-20.9,27-43.3c10.7-18.2,16-33.1,17.8-38.8c0.1-0.5,0.3-0.9,0.4-1.4C92.7,59.7,92.8,59.3,92.8,59.3z"/>
<linearGradient id="SVGID_2_" gradientUnits="userSpaceOnUse" x1="47.1667" y1="81.5" x2="47.1667" y2="12.8334">
	<stop  offset="0" style="stop-color:#900C18"/>
	<stop  offset="1" style="stop-color:#E06E64"/>
</linearGradient>
<circle fill="url(#SVGID_2_)" cx="47.2" cy="47.2" r="34.3"/>
<circle fill="#F6F6F6" cx="47.2" cy="47.2" r="31"/>
<g>
	<g>
		<path fill="#545451" d="M67,40.3c0,1.5-2.1,2.7-3.6,2.7v1.6v0.2v16.1h-5.3v1.8h5.4v-1.8h1.7V44.5h-0.3c2-0.6,3.9-2.3,3.9-4.3v-1.9
			c0-3-2.4-5.4-5.4-5.4c-1.4,0-2.6,0.5-3.6,1.4c-1.3-1.6-5-7.2-12.7-7.2c0,0,0,0,0,0c0,0,0,0,0,0c-7.7,0-11.4,5.6-12.7,7.2
			c-1-0.8-2.2-1.4-3.6-1.4c-3,0-5.4,2.4-5.4,5.4v1.9c0,2,1.9,3.7,3.9,4.3h-0.3v16.3h1.8V44.8v-0.2V43c-1.5,0-3.6-1.2-3.6-2.7v-1.9
			c0-2,1.6-3.6,3.6-3.6s3.6,1.6,3.6,3.6h0v8V48v5.6h25.4V48v-1.7v-8h0c0-2,1.6-3.6,3.6-3.6"/>
		<rect x="56.2" y="57.2" fill="#545451" width="1.8" height="3.6"/>
		<rect x="36.3" y="57.4" fill="#545451" width="1.8" height="3.4"/>
		<rect x="30.9" y="60.8" fill="#545451" width="5.4" height="1.8"/>
		<polygon fill="#545451" points="46.9,55.4 38.3,55.4 38.3,57.1 46.9,57.1 47.5,57.1 56,57.1 56,55.4 47.5,55.4 		"/>
	</g>
</g>
<polyline fill="#545451" points="56.2,39.3 59.9,34.3 65.3,34.3 68.4,42 64.9,44.5 63.5,60.8 60.2,61.7 58,60.8 56,57.1 54.5,56.3 
	38.1,57.4 36.3,60.8 33.7,61.8 30.9,60.8 30,56.3 30.9,44 28,42.4 26.3,39.8 28,34.3 32.2,34.3 34.4,34.3 "/>
<path fill="#F6F6F6" d="M56.7,52.3h-19v-3.8c0-1.4,1.2-2.6,2.6-2.6h13.8c1.4,0,2.6,1.2,2.6,2.6V52.3z"/>
<path fill="none" stroke="#F6F6F6" stroke-miterlimit="10" d="M36.8,36.5c0,0,1.5,1.4,1.5,2.7s0,5,0,5"/>
<path fill="none" stroke="#F6F6F6" stroke-miterlimit="10" d="M57.4,36.5c0,0-1.5,1.4-1.5,2.7s0,5,0,5"/>
</svg>
