<?xml version="1.0" encoding="utf-8"?>
<!-- Generator: Adobe Illustrator 18.0.0, SVG Export Plug-In . SVG Version: 6.00 Build 0)  -->
<!DOCTYPE svg PUBLIC "-//W3C//DTD SVG 1.1//EN" "http://www.w3.org/Graphics/SVG/1.1/DTD/svg11.dtd">
<svg version="1.1" id="Layer_1" xmlns="http://www.w3.org/2000/svg" xmlns:xlink="http://www.w3.org/1999/xlink" x="0px" y="0px"
	 viewBox="0 0 76.2 49.7" enable-background="new 0 0 76.2 49.7" xml:space="preserve">
<g>
	<circle fill="none" stroke="#BDBCB3" stroke-width="2" stroke-linecap="round" stroke-miterlimit="10" cx="39" cy="17.3" r="5"/>
	<path fill="none" stroke="#BDBCB3" stroke-width="2" stroke-linecap="round" stroke-miterlimit="10" d="M56.3,17.9
		C56.3,8,48.6,0,39,0S21.6,8,21.6,17.9C21.6,28.1,32.5,43,37,48.8c1,1.3,2.9,1.3,3.9,0C45.5,43,56.4,28.1,56.3,17.9z"/>
</g>
<g>
	
		<circle fill="none" stroke="#BDBCB3" stroke-width="2" stroke-linecap="round" stroke-miterlimit="10" cx="12.5" cy="17.1" r="3.6"/>
	<path fill="none" stroke="#BDBCB3" stroke-width="2" stroke-linecap="round" stroke-miterlimit="10" d="M20.4,7.4
		c-2.2-1.8-4.9-2.9-7.9-2.9C5.6,4.5,0,10.3,0,17.5c0,7.3,7.8,18.1,11.1,22.3c0.7,0.9,2.1,0.9,2.8,0c1.5-1.9,4-5.3,6.3-9"/>
</g>
<g>
	<circle fill="none" stroke="#BDBCB3" stroke-width="2" stroke-linecap="round" stroke-miterlimit="10" cx="65" cy="17.5" r="3.2"/>
	<path fill="none" stroke="#BDBCB3" stroke-width="2" stroke-linecap="round" stroke-miterlimit="10" d="M57.9,8.9
		c1.9-1.6,4.4-2.6,7.1-2.6c6.2,0,11.2,5.2,11.2,11.6c0,6.6-7,16.2-9.9,19.9c-0.6,0.8-1.9,0.8-2.5,0c-1.4-1.7-3.6-4.7-5.6-8.1"/>
</g>
</svg>
