<?xml version="1.0" encoding="utf-8"?>
<!-- Generator: Adobe Illustrator 18.0.0, SVG Export Plug-In . SVG Version: 6.00 Build 0)  -->
<!DOCTYPE svg PUBLIC "-//W3C//DTD SVG 1.1//EN" "http://www.w3.org/Graphics/SVG/1.1/DTD/svg11.dtd">
<svg version="1.1" id="Layer_1" xmlns="http://www.w3.org/2000/svg" xmlns:xlink="http://www.w3.org/1999/xlink" x="0px" y="0px"
	 viewBox="0 0 193.5 196.6" enable-background="new 0 0 193.5 196.6" xml:space="preserve">
<linearGradient id="SVGID_1_" gradientUnits="userSpaceOnUse" x1="-0.6451" y1="-35.4859" x2="-93.1755" y2="-128.0163" gradientTransform="matrix(0.9142 -0.2594 -0.2594 0.9142 118.5115 162.4463)">
	<stop  offset="0" style="stop-color:#000000;stop-opacity:0"/>
	<stop  offset="1" style="stop-color:#000000"/>
</linearGradient>
<polygon opacity="0.11" fill="url(#SVGID_1_)" points="60.7,196.6 0.1,136 132.9,3.2 193.5,63.8 "/>
<g>
	<rect x="11.3" y="134.4" fill="#C5252E" width="16.8" height="10.3"/>
	<rect x="104.4" y="134.4" fill="#C5252E" width="16.8" height="10.3"/>
	<rect x="11.3" y="130" fill="#AA1725" width="16.8" height="10.3"/>
	<rect x="104.4" y="130" fill="#AA1725" width="16.8" height="10.3"/>
	<path fill="#AA1725" d="M115.8,109.8H16.6V35.1c0-13,10.5-23.5,23.5-23.5h52.1c13,0,23.5,10.5,23.5,23.5V109.8z"/>
	<path fill="#C5252E" d="M22.7,136.1H0v-75c0-2.4,1.9-4.3,4.3-4.3h14c2.4,0,4.3,1.9,4.3,4.3V136.1z"/>
	<path fill="#C5252E" d="M131.1,136.1h-22.7v-75c0-2.4,1.9-4.3,4.3-4.3h14c2.4,0,4.3,1.9,4.3,4.3V136.1z"/>
	<rect x="19.4" y="105.6" fill="#C5252E" width="96.9" height="30.5"/>
	<path fill="#F0F0F0" d="M108.5,116.2H23.9c-8.2,0-14.8-6.6-14.8-14.8v0c0-8.2,6.6-14.8,14.8-14.8h84.5c8.2,0,14.8,6.6,14.8,14.8v0
		C123.3,109.6,116.6,116.2,108.5,116.2z"/>
	<circle fill="#F0F0F0" cx="50.7" cy="35.2" r="4.1"/>
	<circle fill="#F0F0F0" cx="67.9" cy="51.2" r="4.1"/>
	<circle fill="#F0F0F0" cx="84.3" cy="35.2" r="4.1"/>
	<circle fill="#F0F0F0" cx="50.7" cy="67.1" r="4.1"/>
	<circle fill="#F0F0F0" cx="84.3" cy="67.1" r="4.1"/>
</g>
<path fill="#C5252E" d="M83,42.7h45.6c4.3,0,7.8-3.5,7.8-7.8V7.8c0-4.3-3.5-7.8-7.8-7.8L83,0L61.6,21.7L83,42.7z M77.5,16.7
	c3,0,5.4,2.4,5.4,5.4c0,3-2.4,5.4-5.4,5.4c-3,0-5.4-2.4-5.4-5.4C72.1,19.1,74.5,16.7,77.5,16.7z"/>
<g>
	<text transform="matrix(1 0 0 1 97.2705 34.9905)" fill="#F0F0F0" font-family="'Calibri-Bold'" font-size="43.0874">?</text>
</g>
</svg>
