<?xml version="1.0" encoding="utf-8"?>
<!-- Generator: Adobe Illustrator 18.0.0, SVG Export Plug-In . SVG Version: 6.00 Build 0)  -->
<!DOCTYPE svg PUBLIC "-//W3C//DTD SVG 1.1//EN" "http://www.w3.org/Graphics/SVG/1.1/DTD/svg11.dtd">
<svg version="1.1" id="Layer_1" xmlns="http://www.w3.org/2000/svg" xmlns:xlink="http://www.w3.org/1999/xlink" x="0px" y="0px"
	 viewBox="0 0 205.8 193.5" enable-background="new 0 0 205.8 193.5" xml:space="preserve">
<linearGradient id="SVGID_1_" gradientUnits="userSpaceOnUse" x1="15.6967" y1="-32.8992" x2="-76.8337" y2="-125.4296" gradientTransform="matrix(0.9001 -0.2453 -0.2453 0.9001 118.843 162.1148)">
	<stop  offset="0" style="stop-color:#000000;stop-opacity:0"/>
	<stop  offset="1" style="stop-color:#000000"/>
</linearGradient>
<polygon opacity="0.11" fill="url(#SVGID_1_)" points="76.2,193.5 15.6,132.9 145.3,3.3 205.8,63.8 "/>
<g>
	<path fill="#C5252E" d="M138.5,133.7H19.9c-4.2,0-7.6-3.4-7.6-7.6V7.6c0-4.2,3.4-7.6,7.6-7.6h118.6c4.2,0,7.6,3.4,7.6,7.6v118.6
		C146.1,130.3,142.7,133.7,138.5,133.7z"/>
</g>
<path fill="#AA1725" d="M124.3,43.6H31.7c-2.4,0-4.3-1.9-4.3-4.3V19.8c0-2.4,1.9-4.3,4.3-4.3h92.6c2.4,0,4.3,1.9,4.3,4.3v19.5
	C128.6,41.7,126.6,43.6,124.3,43.6z"/>
<path fill="#F0F0F0" d="M126.2,45.5H33.6c-2.4,0-4.3-1.9-4.3-4.3V21.7c0-2.4,1.9-4.3,4.3-4.3h92.6c2.4,0,4.3,1.9,4.3,4.3v19.5
	C130.5,43.6,128.6,45.5,126.2,45.5z"/>
<g>
	<g>
		<g>
			<path fill="#BCBCBC" d="M53.3,82.1H33.7c-2.4,0-4.3-1.9-4.3-4.3V58.4c0-2.4,1.9-4.3,4.3-4.3h19.5c2.4,0,4.3,1.9,4.3,4.3v19.5
				C57.5,80.2,55.6,82.1,53.3,82.1z"/>
		</g>
		<g>
			<path fill="#BCBCBC" d="M89.8,82.1H70.3c-2.4,0-4.3-1.9-4.3-4.3V58.4c0-2.4,1.9-4.3,4.3-4.3h19.5c2.4,0,4.3,1.9,4.3,4.3v19.5
				C94.1,80.2,92.2,82.1,89.8,82.1z"/>
		</g>
		<g>
			<path fill="#BCBCBC" d="M126.3,117.8h-19.5c-2.4,0-4.3-1.9-4.3-4.3V58.4c0-2.4,1.9-4.3,4.3-4.3h19.5c2.4,0,4.3,1.9,4.3,4.3v55.2
				C130.6,115.9,128.6,117.8,126.3,117.8z"/>
		</g>
		<g>
			<path fill="#BCBCBC" d="M53.3,117.7H33.7c-2.4,0-4.3-1.9-4.3-4.3V94c0-2.4,1.9-4.3,4.3-4.3h19.5c2.4,0,4.3,1.9,4.3,4.3v19.5
				C57.5,115.8,55.6,117.7,53.3,117.7z"/>
		</g>
		<g>
			<path fill="#BCBCBC" d="M89.8,117.7H70.3c-2.4,0-4.3-1.9-4.3-4.3V94c0-2.4,1.9-4.3,4.3-4.3h19.5c2.4,0,4.3,1.9,4.3,4.3v19.5
				C94.1,115.8,92.2,117.7,89.8,117.7z"/>
		</g>
	</g>
</g>
<g>
	<path fill="#F0F0F0" d="M51.3,80.2H31.8c-2.4,0-4.3-1.9-4.3-4.3V56.5c0-2.4,1.9-4.3,4.3-4.3h19.5c2.4,0,4.3,1.9,4.3,4.3V76
		C55.6,78.3,53.7,80.2,51.3,80.2z"/>
	<path fill="#F0F0F0" d="M87.9,80.2H68.4c-2.4,0-4.3-1.9-4.3-4.3V56.5c0-2.4,1.9-4.3,4.3-4.3h19.5c2.4,0,4.3,1.9,4.3,4.3V76
		C92.2,78.3,90.2,80.2,87.9,80.2z"/>
	<path fill="#F0F0F0" d="M124.4,115.9h-19.5c-2.4,0-4.3-1.9-4.3-4.3V56.5c0-2.4,1.9-4.3,4.3-4.3h19.5c2.4,0,4.3,1.9,4.3,4.3v55.2
		C128.6,114,126.7,115.9,124.4,115.9z"/>
	<path fill="#F0F0F0" d="M51.3,115.8H31.8c-2.4,0-4.3-1.9-4.3-4.3V92.1c0-2.4,1.9-4.3,4.3-4.3h19.5c2.4,0,4.3,1.9,4.3,4.3v19.5
		C55.6,113.9,53.7,115.8,51.3,115.8z"/>
	<path fill="#F0F0F0" d="M87.9,115.8H68.4c-2.4,0-4.3-1.9-4.3-4.3V92.1c0-2.4,1.9-4.3,4.3-4.3h19.5c2.4,0,4.3,1.9,4.3,4.3v19.5
		C92.2,113.9,90.2,115.8,87.9,115.8z"/>
</g>
<g>
	<text transform="matrix(1 0 0 1 88.6338 38.989)" fill="#C5252E" font-family="'Calibri-Bold'" font-size="23.102">799</text>
</g>
<g>
	<text transform="matrix(1 0 0 1 106.9048 93.6428)" fill="#C5252E" font-family="'Calibri-Bold'" font-size="33.1527">=</text>
</g>
<g>
	
		<text transform="matrix(1.5824 0 0 1 70.7788 74.5011)" fill="#C5252E" font-family="'Calibri-Bold'" font-size="32.3517" letter-spacing="-0.6">-</text>
</g>
<g>
	<text transform="matrix(1 0 0 1 34.77 74.7292)" fill="#C5252E" font-family="'Calibri-Bold'" font-size="30.2162">+</text>
</g>
<g>
	<text transform="matrix(1 0 0 1 71.3179 109.7146)" fill="#C5252E" font-family="'Calibri-Bold'" font-size="28.8998">รท</text>
</g>
<g>
	<text transform="matrix(1 0 0 1 35.9941 107.6633)" fill="#C5252E" font-family="'Calibri-Bold'" font-size="24.7542">ั</text>
</g>
</svg>
