<?xml version="1.0" encoding="utf-8"?>
<!-- Generator: Adobe Illustrator 18.0.0, SVG Export Plug-In . SVG Version: 6.00 Build 0)  -->
<!DOCTYPE svg PUBLIC "-//W3C//DTD SVG 1.1//EN" "http://www.w3.org/Graphics/SVG/1.1/DTD/svg11.dtd">
<svg version="1.1" id="Layer_1" xmlns="http://www.w3.org/2000/svg" xmlns:xlink="http://www.w3.org/1999/xlink" x="0px" y="0px"
	 viewBox="0 0 180.6 176.7" enable-background="new 0 0 180.6 176.7" xml:space="preserve">
<linearGradient id="SVGID_1_" gradientUnits="userSpaceOnUse" x1="82.7715" y1="3.993050e-005" x2="82.7715" y2="23.2179">
	<stop  offset="2.153458e-007" style="stop-color:#FFFFFF;stop-opacity:0"/>
	<stop  offset="1" style="stop-color:#FFFFFF"/>
</linearGradient>
<polygon fill="url(#SVGID_1_)" points="106.5,0 59,0 65.4,23.2 99.7,23.2 "/>
<linearGradient id="SVGID_2_" gradientUnits="userSpaceOnUse" x1="82.7715" y1="176.6667" x2="82.7715" y2="64.0602">
	<stop  offset="2.153458e-007" style="stop-color:#FFFFFF;stop-opacity:0"/>
	<stop  offset="1" style="stop-color:#FFFFFF"/>
</linearGradient>
<polygon fill="url(#SVGID_2_)" points="134.6,176.7 30.9,176.7 54.8,64.1 112,64.1 "/>
<path fill="#BC2833" d="M99.7,21.2H66.9c-2.4,0-4.5,1.7-4.9,4.1l-7.2,38.7h57l-7.2-38.7C104.2,22.9,102.1,21.2,99.7,21.2z"/>
<path fill="#AA1725" d="M95.7,176.7H71.3c-1.6,0-2.8-1.3-2.8-2.8V172c0-1.6,1.3-2.8,2.8-2.8h24.4c1.6,0,2.8,1.3,2.8,2.8v1.9
	C98.6,175.4,97.3,176.7,95.7,176.7z"/>
<rect x="79.8" y="63.2" fill="#AA1725" width="7.5" height="108.8"/>
<g>
	<g>
		<path fill="#BC2833" d="M171.3,97.7h-55.5l-23.9,26l23.9,26.2h55.5c5.1,0,9.3-4.2,9.3-9.3V107C180.6,101.9,176.5,97.7,171.3,97.7z
			 M111.3,129.6c-3.5,0-6.3-2.8-6.3-6.3c0-3.5,2.8-6.3,6.3-6.3s6.3,2.8,6.3,6.3C117.6,126.7,114.8,129.6,111.3,129.6z"/>
	</g>
	<path fill="#FFFFFF" d="M160.4,112.5c-0.5-1.4-1.2-2.5-2.2-3.4c-1-0.9-2.1-1.6-3.4-2c-1.3-0.4-2.8-0.7-4.5-0.7h-8.4v0h-5.3v5.4h2.9
		v11.1h-2.9v5.4h2.9v3.4h-2.9v5.4h2.9v4.9h5.8v-4.9h2.9v-5.4h-2.9v-3.4h5.2c1.8,0,3.3-0.3,4.7-0.8c1.3-0.6,2.4-1.3,3.3-2.3
		c0.9-1,1.5-2.1,2-3.5c0.4-1.3,0.7-2.8,0.7-4.3C161.1,115.5,160.9,113.9,160.4,112.5z M154.1,121.3c-0.8,1-2.1,1.5-3.9,1.5h-4.9v-11
		h4.9c1.7,0,3,0.5,3.9,1.4c0.9,0.9,1.3,2.3,1.3,4C155.4,118.9,154.9,120.3,154.1,121.3z"/>
</g>
<g>
	<g>
		<path fill="#BC2833" d="M27.8,109.7h27.8l12-13l-12-13.1H27.8c-2.6,0-4.6,2.1-4.6,4.6V105C23.1,107.6,25.2,109.7,27.8,109.7z
			 M57.8,93.7c1.7,0,3.2,1.4,3.2,3.2c0,1.7-1.4,3.2-3.2,3.2c-1.7,0-3.2-1.4-3.2-3.2C54.7,95.1,56.1,93.7,57.8,93.7z"/>
	</g>
	<path fill="#FFFFFF" d="M45.6,90.9c-0.3-0.7-0.6-1.3-1.1-1.7c-0.5-0.5-1-0.8-1.7-1c-0.7-0.2-1.4-0.3-2.3-0.3h-4.2v0h-2.6v2.7h1.5
		v5.6h-1.5v2.7h1.5v1.7h-1.5v2.7h1.5v2.5h2.9v-2.5h1.4v-2.7h-1.4v-1.7h2.6c0.9,0,1.7-0.1,2.3-0.4c0.7-0.3,1.2-0.7,1.7-1.2
		c0.4-0.5,0.8-1.1,1-1.7c0.2-0.7,0.3-1.4,0.3-2.2C46,92.4,45.9,91.6,45.6,90.9z M42.5,95.3c-0.4,0.5-1.1,0.8-1.9,0.8h-2.5v-5.5h2.4
		c0.9,0,1.5,0.2,1.9,0.7c0.4,0.5,0.6,1.1,0.6,2C43.1,94.2,42.9,94.8,42.5,95.3z"/>
</g>
<g>
	<g>
		<path fill="#BC2833" d="M6.9,157h41l17.6-19.2l-17.6-19.3h-41c-3.8,0-6.9,3.1-6.9,6.9l0,24.8C0,153.9,3.1,157,6.9,157z
			 M51.1,133.5c2.6,0,4.6,2.1,4.6,4.6c0,2.6-2.1,4.6-4.6,4.6c-2.6,0-4.6-2.1-4.6-4.6C46.5,135.6,48.6,133.5,51.1,133.5z"/>
	</g>
	<path fill="#FFFFFF" d="M33.2,129.4c-0.4-1-0.9-1.9-1.6-2.5c-0.7-0.7-1.5-1.2-2.5-1.5c-1-0.3-2.1-0.5-3.3-0.5h-6.2v0h-3.9v4h2.2
		v8.2h-2.2v4h2.2v2.5h-2.2v4h2.2v3.6h4.3v-3.6h2.1v-4h-2.1V141h3.8c1.3,0,2.5-0.2,3.4-0.6c1-0.4,1.8-1,2.4-1.7
		c0.6-0.7,1.1-1.6,1.5-2.6c0.3-1,0.5-2,0.5-3.2C33.8,131.6,33.6,130.4,33.2,129.4z M28.6,135.9c-0.6,0.7-1.6,1.1-2.8,1.1h-3.6v-8.1
		h3.6c1.3,0,2.2,0.3,2.9,1c0.6,0.7,0.9,1.7,0.9,3C29.5,134.1,29.2,135.1,28.6,135.9z"/>
</g>
</svg>
