<?xml version="1.0" encoding="utf-8"?>
<!-- Generator: Adobe Illustrator 18.0.0, SVG Export Plug-In . SVG Version: 6.00 Build 0)  -->
<!DOCTYPE svg PUBLIC "-//W3C//DTD SVG 1.1//EN" "http://www.w3.org/Graphics/SVG/1.1/DTD/svg11.dtd">
<svg version="1.1" id="Layer_1" xmlns="http://www.w3.org/2000/svg" xmlns:xlink="http://www.w3.org/1999/xlink" x="0px" y="0px"
	 viewBox="0 0 171.9 208.1" enable-background="new 0 0 171.9 208.1" xml:space="preserve">
<rect x="2.7" y="67.6" transform="matrix(0.7071 0.7071 -0.7071 0.7071 66.3456 3.9565)" opacity="0.11" width="51.3" height="29"/>
<linearGradient id="SVGID_1_" gradientUnits="userSpaceOnUse" x1="-22.6414" y1="13.5829" x2="-108.4454" y2="-72.2211" gradientTransform="matrix(0.8274 -0.1726 -0.1726 0.8274 140.4789 140.4789)">
	<stop  offset="0" style="stop-color:#000000;stop-opacity:0"/>
	<stop  offset="1" style="stop-color:#000000"/>
</linearGradient>
<polygon opacity="0.11" fill="url(#SVGID_1_)" points="66.9,208.1 10.8,151.9 115.7,47 171.9,103.2 "/>
<g>
	<g>
		<path fill="#C5252E" d="M60.4,58.7l-8.9-5.7c-0.3-0.2-7.5-4.9-14.8-11.3c-10.8-9.6-15.9-18-15.6-25.5c0.2-4,2-9.6,9.7-13.6
			c3.1-1.6,6.1-2.5,9-2.5c4.1,0,7.8,1.6,10.8,4.7c4.9,5,7.9,13.7,9.3,26.6c1,8.9,0.8,16.5,0.8,16.8L60.4,58.7z M39.8,12
			c-0.9,0-2.1,0.4-3.5,1.1c-3.2,1.7-3.3,3.1-3.3,3.6c-0.1,1.3,0.6,6.3,11.6,16.1c1.2,1.1,2.5,2.2,3.7,3.2
			c-0.8-9.4-2.8-19.1-6.3-22.8C41.1,12.1,40.4,12,39.8,12z"/>
	</g>
</g>
<g>
	<g>
		<path fill="#C5252E" d="M56.3,58.7L56,48.1c0-0.3-0.2-7.9,0.8-16.8c1.4-12.9,4.5-21.6,9.3-26.6c3-3.1,6.7-4.7,10.8-4.7
			c2.9,0,5.9,0.8,9,2.5c7.7,4,9.5,9.7,9.7,13.6C96,23.6,90.9,32,80,41.6c-7.2,6.5-14.5,11.1-14.8,11.3L56.3,58.7z M76.9,12
			c-0.6,0-1.3,0.1-2.2,1.1c-3.6,3.7-5.5,13.4-6.3,22.8c1.2-1,2.5-2.1,3.8-3.2c10.9-9.7,11.6-14.7,11.5-16c0-0.5-0.1-1.9-3.3-3.6
			C79.1,12.3,77.9,12,76.9,12z"/>
	</g>
</g>
<path fill="#C5252E" d="M102,153H15.7c-4.3,0-7.9-3.5-7.9-7.9V44.3h95.3c3.7,0,6.8,3,6.8,6.8v94.1C109.9,149.5,106.3,153,102,153z"
	/>
<path fill="#AA1725" d="M109.9,79H7.8V43.9h95.3c3.7,0,6.8,3,6.8,6.8V79z"/>
<path fill="#C5252E" d="M117.7,74.5H0V51.4c0-4.3,3.5-7.9,7.9-7.9h102c4.3,0,7.9,3.5,7.9,7.9V74.5z"/>
<rect x="50.4" y="44.3" fill="#FFFFFF" width="16.8" height="108.7"/>
<rect x="50.4" y="43.9" fill="#BCBCBC" width="16.8" height="35.1"/>
<rect x="49.7" y="42" fill="#FFFFFF" width="18.3" height="32.5"/>
<g>
	<path fill="#FFFFFF" d="M72.2,104.1L99,130.9c2.5,2.5,6.7,2.5,9.2,0l15.9-15.9c2.5-2.5,2.5-6.7,0-9.2L97.3,79l-25.3,0.2L72.2,104.1
		z M84.3,85.6c1.8,1.8,1.8,4.6,0,6.3c-1.8,1.8-4.6,1.8-6.3,0c-1.8-1.8-1.8-4.6,0-6.3C79.7,83.9,82.5,83.9,84.3,85.6z"/>
	<g>
		<path fill="#C5252E" d="M98,113.1c0.7-0.7,1.4-1.2,2.1-1.6c0.7-0.4,1.4-0.6,2.1-0.7c0.7-0.1,1.4,0,2.2,0.3
			c0.7,0.3,1.4,0.8,2.1,1.5c0.7,0.7,1.3,1.5,1.5,2.2c0.3,0.7,0.4,1.4,0.3,2.1c-0.1,0.7-0.3,1.4-0.8,2c-0.4,0.7-1,1.3-1.6,2
			c-0.7,0.7-1.3,1.2-2,1.6c-0.7,0.4-1.4,0.6-2.1,0.7c-0.7,0.1-1.4,0-2.2-0.3c-0.7-0.3-1.4-0.8-2.2-1.5c-0.8-0.8-1.3-1.5-1.6-2.3
			c-0.3-0.7-0.3-1.5-0.2-2.2c0.1-0.7,0.4-1.4,0.8-2C96.9,114.3,97.4,113.7,98,113.1z M114.3,103.9c0.2,0,0.4,0,0.5,0
			c0.1,0,0.3,0.1,0.5,0.1c0.2,0.1,0.3,0.2,0.5,0.4c0.2,0.2,0.4,0.4,0.7,0.6c0.3,0.3,0.5,0.5,0.6,0.7c0.1,0.2,0.2,0.4,0.2,0.5
			c0,0.1,0,0.3-0.2,0.3c-0.1,0.1-0.3,0.1-0.5,0.2l-28.8,4.5c-0.2,0-0.3,0-0.5,0c-0.1,0-0.3-0.1-0.5-0.1c-0.2-0.1-0.4-0.2-0.5-0.4
			c-0.2-0.2-0.4-0.4-0.7-0.6c-0.3-0.3-0.5-0.5-0.6-0.7c-0.1-0.2-0.2-0.4-0.2-0.5c0-0.1,0.1-0.3,0.2-0.3c0.1-0.1,0.3-0.1,0.5-0.2
			L114.3,103.9z M100.7,115.6c-0.5,0.5-0.9,0.9-1.2,1.3c-0.3,0.4-0.5,0.7-0.6,1.1c-0.1,0.3-0.1,0.6,0,0.9c0.1,0.3,0.2,0.5,0.5,0.8
			c0.2,0.2,0.5,0.4,0.7,0.4c0.3,0.1,0.5,0.1,0.9,0c0.3-0.1,0.7-0.3,1-0.6c0.4-0.3,0.8-0.7,1.3-1.1c0.5-0.5,1-1,1.2-1.4
			c0.3-0.4,0.5-0.8,0.6-1.1c0.1-0.3,0.1-0.6,0-0.8c-0.1-0.2-0.2-0.5-0.5-0.7c-0.3-0.3-0.5-0.4-0.8-0.5c-0.3-0.1-0.6,0-0.9,0.1
			c-0.3,0.1-0.7,0.3-1,0.6C101.5,114.8,101.1,115.1,100.7,115.6z M96.2,94.3c0.7-0.7,1.4-1.2,2.1-1.6c0.7-0.4,1.4-0.6,2.1-0.7
			c0.7-0.1,1.4,0,2.2,0.3s1.4,0.8,2.1,1.5c0.7,0.7,1.3,1.5,1.5,2.2c0.3,0.7,0.4,1.4,0.3,2.1c-0.1,0.7-0.3,1.4-0.8,2
			c-0.4,0.7-1,1.3-1.6,2c-0.7,0.7-1.3,1.2-2,1.6c-0.7,0.4-1.4,0.6-2.1,0.7c-0.7,0.1-1.4,0-2.2-0.3c-0.7-0.3-1.4-0.8-2.2-1.5
			c-0.8-0.8-1.3-1.5-1.6-2.3c-0.3-0.7-0.3-1.5-0.2-2.2c0.1-0.7,0.4-1.4,0.8-2C95.1,95.5,95.6,94.9,96.2,94.3z M98.9,96.8
			c-0.5,0.5-0.9,0.9-1.2,1.3c-0.3,0.4-0.5,0.7-0.6,1.1s-0.1,0.6,0,0.9c0.1,0.3,0.2,0.5,0.5,0.8c0.2,0.2,0.5,0.4,0.7,0.4
			c0.3,0.1,0.5,0.1,0.9,0c0.3-0.1,0.7-0.3,1-0.6s0.8-0.7,1.3-1.1c0.5-0.5,1-1,1.2-1.4c0.3-0.4,0.5-0.8,0.6-1.1
			c0.1-0.3,0.1-0.6,0-0.8c-0.1-0.2-0.2-0.5-0.5-0.7c-0.3-0.3-0.5-0.4-0.8-0.5c-0.3-0.1-0.6,0-0.9,0.1c-0.3,0.1-0.7,0.3-1,0.6
			C99.8,96,99.4,96.3,98.9,96.8z"/>
	</g>
</g>
</svg>
