<?xml version="1.0" encoding="utf-8"?>
<!-- Generator: Adobe Illustrator 18.0.0, SVG Export Plug-In . SVG Version: 6.00 Build 0)  -->
<!DOCTYPE svg PUBLIC "-//W3C//DTD SVG 1.1//EN" "http://www.w3.org/Graphics/SVG/1.1/DTD/svg11.dtd">
<svg version="1.1" id="Layer_1" xmlns="http://www.w3.org/2000/svg" xmlns:xlink="http://www.w3.org/1999/xlink" x="0px" y="0px"
	 viewBox="0 0 196.7 166.5" enable-background="new 0 0 196.7 166.5" xml:space="preserve">
<linearGradient id="SVGID_1_" gradientUnits="userSpaceOnUse" x1="-12.0783" y1="-29.8965" x2="-121.8748" y2="-144.8317" gradientTransform="matrix(0.8274 -0.1726 -0.1726 0.8274 140.4789 140.4789)">
	<stop  offset="0" style="stop-color:#000000;stop-opacity:0"/>
	<stop  offset="1" style="stop-color:#000000"/>
</linearGradient>
<polygon opacity="0.11" fill="url(#SVGID_1_)" points="69.8,166.5 3.6,100.9 140.5,2.4 196.7,58.6 "/>
<g>
	<path fill="#C5252E" d="M135,102.2H7.6c-4.2,0-7.6-3.4-7.6-7.6V7.6C0,3.4,3.4,0,7.6,0H135c4.2,0,7.6,3.4,7.6,7.6v87.1
		C142.5,98.8,139.1,102.2,135,102.2z"/>
</g>
<g>
	<text transform="matrix(1 0 0 1 19.9344 40.8115)" fill="#FFFFFF" font-family="'Calibri-Bold'" font-size="46.6006">100%</text>
</g>
<rect x="69.8" y="55.2" fill="#FFFFFF" width="54" height="5.7"/>
<rect x="69.8" y="66.2" fill="#FFFFFF" width="54" height="5.7"/>
<rect x="69.8" y="78.2" fill="#FFFFFF" width="54" height="5.7"/>
<polygon fill="#AA1725" points="50.8,139.5 35.3,127.5 19.8,139.5 19.8,90 50.8,90 "/>
<polygon fill="#AA1725" points="35.4,61.3 39.7,56.7 42.2,62.5 47.8,59.6 48.1,65.9 54.4,65.2 52.5,71.2 58.7,72.6 54.9,77.6 
	60.2,81.1 54.9,84.5 58.7,89.5 52.5,91 54.4,97 48.1,96.2 47.8,102.5 42.2,99.7 39.7,105.4 35.4,100.9 31.1,105.4 28.6,99.7 
	23,102.5 22.7,96.2 16.4,97 18.2,91 12.1,89.5 15.9,84.5 10.6,81.1 15.9,77.6 12.1,72.6 18.2,71.2 16.4,65.2 22.7,65.9 23,59.6 
	28.6,62.5 31.1,56.7 "/>
<polygon fill="#FFFFFF" points="35.4,58.3 39.7,53.7 42.2,59.5 47.8,56.6 48.1,62.9 54.4,62.2 52.5,68.2 58.7,69.6 54.9,74.6 
	60.2,78.1 54.9,81.5 58.7,86.5 52.5,88 54.4,94 48.1,93.2 47.8,99.5 42.2,96.7 39.7,102.4 35.4,97.9 31.1,102.4 28.6,96.7 23,99.5 
	22.7,93.2 16.4,94 18.2,88 12.1,86.5 15.9,81.5 10.6,78.1 15.9,74.6 12.1,69.6 18.2,68.2 16.4,62.2 22.7,62.9 23,56.6 28.6,59.5 
	31.1,53.7 "/>
<g>
	<path fill="#C5252E" d="M35,64.4c7.5,0,13.5,6.1,13.5,13.5S42.5,91.5,35,91.5S21.5,85.4,21.5,78S27.6,64.4,35,64.4 M35,61.4
		c-9.1,0-16.5,7.4-16.5,16.5c0,9.1,7.4,16.5,16.5,16.5c9.1,0,16.5-7.4,16.5-16.5C51.5,68.8,44.1,61.4,35,61.4L35,61.4z"/>
</g>
</svg>
