<?xml version="1.0" encoding="utf-8"?>
<!-- Generator: Adobe Illustrator 18.0.0, SVG Export Plug-In . SVG Version: 6.00 Build 0)  -->
<!DOCTYPE svg PUBLIC "-//W3C//DTD SVG 1.1//EN" "http://www.w3.org/Graphics/SVG/1.1/DTD/svg11.dtd">
<svg version="1.1" id="Layer_1" xmlns="http://www.w3.org/2000/svg" xmlns:xlink="http://www.w3.org/1999/xlink" x="0px" y="0px"
	 viewBox="0 0 48.9 48.9" enable-background="new 0 0 48.9 48.9" xml:space="preserve">
<g>
	<path fill="none" stroke="#B9B7AE" stroke-width="2" stroke-linecap="round" stroke-miterlimit="10" d="M48.8,37.9
		c-0.1-0.4-1-1-2.6-1.8c-0.4-0.3-1.1-0.6-1.9-1c-0.8-0.4-1.5-0.8-2.2-1.2c-0.7-0.4-1.3-0.7-1.9-1.1c-0.1-0.1-0.4-0.3-0.9-0.6
		c-0.5-0.3-0.9-0.6-1.2-0.7c-0.3-0.2-0.7-0.2-1-0.2c-0.5,0-1,0.3-1.7,1c-0.7,0.7-1.3,1.4-1.9,2.2c-0.6,0.8-1.2,1.5-1.8,2.2
		c-0.6,0.7-1.2,1-1.6,1c-0.2,0-0.5-0.1-0.8-0.2c-0.3-0.1-0.5-0.2-0.7-0.3c-0.2-0.1-0.4-0.2-0.8-0.5c-0.4-0.2-0.6-0.4-0.7-0.4
		c-3.2-1.8-5.9-3.8-8.2-6s-4.3-5-6-8.2c0,0-0.2-0.3-0.4-0.7c-0.2-0.4-0.4-0.7-0.5-0.8c-0.1-0.2-0.2-0.4-0.3-0.7
		c-0.1-0.3-0.2-0.6-0.2-0.8c0-0.4,0.3-0.9,1-1.6c0.7-0.6,1.4-1.3,2.2-1.8c0.8-0.6,1.5-1.2,2.2-1.9c0.7-0.7,1-1.3,1-1.7
		c0-0.3-0.1-0.7-0.2-1c-0.2-0.3-0.4-0.7-0.7-1.2c-0.3-0.5-0.5-0.8-0.6-0.9c-0.3-0.6-0.7-1.2-1.1-1.9c-0.4-0.7-0.8-1.4-1.2-2.2
		c-0.4-0.8-0.8-1.4-1-1.9C12,1.1,11.4,0.2,11,0.1C10.9,0,10.6,0,10.3,0C9.7,0,8.8,0.1,7.8,0.3C6.8,0.6,6,0.8,5.5,1.1
		C4.3,1.6,3.1,3,1.8,5.3C0.6,7.5,0,9.6,0,11.8c0,0.6,0,1.2,0.1,1.8c0.1,0.6,0.2,1.3,0.4,2c0.2,0.7,0.4,1.3,0.5,1.6
		c0.1,0.4,0.4,1,0.7,1.9c0.3,0.9,0.6,1.5,0.6,1.7c0.8,2.3,1.8,4.3,2.9,6.1c1.8,3,4.3,6,7.5,9.2c3.2,3.2,6.2,5.7,9.2,7.5
		c1.8,1.1,3.8,2.1,6.1,2.9c0.2,0.1,0.8,0.3,1.7,0.6c0.9,0.3,1.6,0.6,1.9,0.7c0.4,0.1,0.9,0.3,1.7,0.5c0.7,0.2,1.4,0.4,2,0.4
		c0.6,0.1,1.2,0.1,1.8,0.1c2.1,0,4.3-0.6,6.5-1.8c2.3-1.3,3.8-2.5,4.2-3.7c0.3-0.6,0.5-1.4,0.7-2.4c0.2-1,0.3-1.8,0.3-2.4
		C48.9,38.3,48.9,38.1,48.8,37.9L48.8,37.9z M48.8,37.9"/>
</g>
</svg>
