<?xml version="1.0" encoding="utf-8"?>
<!-- Generator: Adobe Illustrator 18.0.0, SVG Export Plug-In . SVG Version: 6.00 Build 0)  -->
<!DOCTYPE svg PUBLIC "-//W3C//DTD SVG 1.1//EN" "http://www.w3.org/Graphics/SVG/1.1/DTD/svg11.dtd">
<svg version="1.1" id="Layer_1" xmlns="http://www.w3.org/2000/svg" xmlns:xlink="http://www.w3.org/1999/xlink" x="0px" y="0px"
	 viewBox="0 0 134 133" enable-background="new 0 0 134 133" xml:space="preserve">
<g>
	<path fill="#FFFFFF" d="M14.7,102.4c-0.1,0.2-0.3,0.4-0.4,0.6c0.3,0.6,0.4,1.3,0.8,1.9c3.4,5.7,11.4,9.3,18,7.9
		c10.5-2.2,21-2.3,31.6-1.3c7.2,0.7,14.4,1.5,21.8,2.3c0.2-0.3,0.5-0.8,0.6-1.3c1.9-7.5,3.2-15,2.5-22.7
		c-0.8-9.4-5.4-16.4-14.5-19.3c-5.4-1.7-11.1-2.7-16.7-3.1c-12.3-0.8-24.6-0.8-36.9-1.7c-7.2-0.5-13.9-3-19-8.5
		c-0.3-0.4-0.9-0.5-1.9-1C0.5,64.4,4,70.5,8.8,76c4.9,5.6,11.3,8.8,18.6,10.2c-4.3,2-8.7,1.6-12.9,0.2c-4.1-1.3-8-3.3-12.2-5.2
		c5.7,15.5,17.2,21.8,33.4,21C28.7,105.4,21.7,105.6,14.7,102.4z M56.7,124.7c0.3,0,0.6,0.1,0.9,0.1c15,0,29.9,0,44.9,0
		c1.4,0,2-0.5,2.4-1.8c1.6-4.5,4.2-8.3,8.6-10.5c6.8-3.5,13.7-0.4,15.7,7c0.3,1.2,0.4,2.5,0.7,3.7c0.2,0.1,0.4,0.1,0.6,0.2
		c0.7-1.4,1.8-2.7,2.2-4.2c1.2-4.2,1.1-8.5,0.2-12.8c-0.4-2.2-1.6-3.9-3.6-4.2c-4.6-0.5-6.7-3.6-8.4-7.3c-0.4-0.9-1.1-1.6-1.7-2.4
		c-1.7-2.3-3.8-3.7-6.7-4.1c-2.9-0.4-5.8-0.9-8.7-1c-3.1-0.2-6.1,0-9.1,0c-0.1,0.4-0.2,0.6-0.2,0.7c0,0.5,0.1,1,0.2,1.4
		c1.3,8.9,0.4,17.5-3,25.9c-0.9,2.3-2.1,3.2-4.7,3.2c-8.9-0.2-17.8-0.1-26.7-0.1c-0.9,0-1.7,0-2.4,0C57.4,120.9,57,122.8,56.7,124.7
		z M46.8,114.8c-5.6,0-11,5.2-11.3,10.8c-0.2,4.3,2.6,7.2,6.8,7.2c4.8,0,10.1-4.5,11-9.3C54.2,118.2,51.6,114.8,46.8,114.8z
		 M108,126c0,4.2,2.7,6.8,6.9,6.7c5.2-0.1,10.6-5.3,11-10.4c0.3-4-1.8-7-5.1-7.4C114.4,113.9,108,119.5,108,126z M25.8,123.8
		c1.6,0.5,3.1,1.1,4.7,1.4c0.4,0.1,1.4-0.5,1.5-1c0.4-1.7,0.6-3.5,0.9-5.2C27.5,117.6,26.5,118.2,25.8,123.8z"/>
	<path fill="#C5252E" d="M14.7,102.4c7,3.2,14,2.9,21-0.2c-16.1,0.7-27.7-5.5-33.4-21c4.3,1.8,8.1,3.8,12.2,5.2
		c4.2,1.3,8.5,1.7,12.9-0.2C20.1,84.8,13.7,81.6,8.8,76C4,70.5,0.5,64.4,0.5,56.3c1,0.5,1.5,0.7,1.9,1c5.2,5.5,11.9,7.9,19,8.5
		c12.3,0.9,24.6,0.9,36.9,1.7c5.6,0.4,11.4,1.4,16.7,3.1c9.1,2.9,13.7,9.9,14.5,19.3c0.7,7.7-0.6,15.3-2.5,22.7
		c-0.1,0.5-0.5,1-0.6,1.3c-7.4-0.8-14.6-1.6-21.8-2.3c-10.6-1-21.2-0.9-31.6,1.3c-6.6,1.4-14.6-2.2-18-7.9c-0.3-0.6-0.5-1.3-0.8-1.9
		C14.4,102.8,14.5,102.6,14.7,102.4z"/>
	<path fill="#C5252E" d="M56.7,124.7c0.3-2,0.7-3.9,1.1-6.1c0.7,0,1.5,0,2.4,0c8.9,0,17.8-0.1,26.7,0.1c2.6,0,3.8-0.9,4.7-3.2
		c3.4-8.4,4.3-17,3-25.9c-0.1-0.5-0.2-1-0.2-1.4c0-0.1,0.1-0.3,0.2-0.7c3,0,6.1-0.1,9.1,0c2.9,0.2,5.8,0.7,8.7,1
		c2.9,0.3,5,1.8,6.7,4.1c0.6,0.8,1.3,1.5,1.7,2.4c1.7,3.7,3.8,6.7,8.4,7.3c2,0.2,3.2,2,3.6,4.2c0.9,4.3,1,8.6-0.2,12.8
		c-0.4,1.5-1.4,2.8-2.2,4.2c-0.2-0.1-0.4-0.1-0.6-0.2c-0.2-1.2-0.4-2.5-0.7-3.7c-1.9-7.4-8.8-10.5-15.7-7c-4.4,2.3-7,6-8.6,10.5
		c-0.5,1.3-1.1,1.8-2.4,1.8c-15,0-29.9,0-44.9,0C57.3,124.8,57,124.8,56.7,124.7z M101.7,91.1c0,3-0.1,5.7,0,8.4
		c0,0.6,0.6,1.5,1,1.6c5.1,0.3,10.2,0.5,15.3,0.5c0.6,0,1.6-1,1.7-1.6c0.3-2.3-4.5-8.7-6.9-8.8C109.2,90.9,105.5,91.1,101.7,91.1z"
		/>
	<path fill="#C5252E" d="M46.8,114.8c4.8,0,7.4,3.5,6.5,8.7c-0.9,4.8-6.1,9.2-11,9.3c-4.2,0-7-2.9-6.8-7.2
		C35.7,119.9,41.2,114.8,46.8,114.8z M45.4,119c-3.4,0.1-6.4,4.3-5.2,7.5c0.2,0.6,1,1.3,1.7,1.5c3.3,1.1,6.4-0.9,7.1-4.7
		C49.6,120.6,48.2,119,45.4,119z"/>
	<path fill="#C5252E" d="M108,126c0-6.5,6.4-12.1,12.8-11.1c3.3,0.5,5.4,3.4,5.1,7.4c-0.3,5.2-5.7,10.3-11,10.4
		C110.6,132.8,108,130.2,108,126z M117.7,119c-3.4,0.1-6.5,4.2-5.3,7.4c0.3,0.7,1.1,1.4,1.8,1.7c3.4,1.1,6.3-0.9,7-4.7
		C121.8,120.4,120.6,119,117.7,119z"/>
	<path fill="#C5252E" d="M25.8,123.8c0.7-5.6,1.6-6.2,7.1-4.8c-0.3,1.7-0.5,3.5-0.9,5.2c-0.1,0.4-1,1.1-1.5,1
		C29,124.9,27.5,124.3,25.8,123.8z"/>
</g>
</svg>
