<?xml version="1.0" encoding="utf-8"?>
<!-- Generator: Adobe Illustrator 18.0.0, SVG Export Plug-In . SVG Version: 6.00 Build 0)  -->
<!DOCTYPE svg PUBLIC "-//W3C//DTD SVG 1.1//EN" "http://www.w3.org/Graphics/SVG/1.1/DTD/svg11.dtd">
<svg version="1.1" id="Layer_1" xmlns="http://www.w3.org/2000/svg" xmlns:xlink="http://www.w3.org/1999/xlink" x="0px" y="0px"
	 viewBox="0 0 595.3 589.6" enable-background="new 0 0 595.3 589.6" xml:space="preserve">
<path fill="#C5252E" d="M581,190.2L303.2,1.7c-3.4-2.3-7.8-2.3-11.1,0L14.3,190.2c-2.7,1.8-4.4,4.9-4.4,8.2v386.9
	c0,5.5,4.4,9.9,9.9,9.9h555.6c5.5,0,9.9-4.4,9.9-9.9V198.4C585.4,195.1,583.7,192.1,581,190.2z"/>
<path fill="#820D24" d="M39.7,585.4V198.4c0-3.3,1.6-6.4,4.4-8.2L312.5,8l-9.3-6.3c-3.4-2.3-7.8-2.3-11.1,0L14.3,190.2
	c-2.7,1.8-4.4,4.9-4.4,8.2v386.9c0,5.5,4.4,9.9,9.9,9.9h29.8C44.1,595.3,39.7,590.8,39.7,585.4z"/>
<path fill="#820D24" d="M476.2,238.1H119.1c-5.5,0-9.9,4.4-9.9,9.9v337.3c0,5.5,4.4,9.9,9.9,9.9h357.2c5.5,0,9.9-4.4,9.9-9.9V248
	C486.1,242.6,481.7,238.1,476.2,238.1z"/>
<path fill="#820D24" d="M117.1,309.3c-4.4,0-7.9,3.6-7.9,7.9v270.1c0,4.4,3.6,7.9,7.9,7.9H133V309.3H117.1z"/>
<path fill="#FFFFFF" d="M496.1,198.4H99.2c-5.5,0-9.9,4.4-9.9,9.9V248c0,5.5,4.4,9.9,9.9,9.9h396.9c5.5,0,9.9-4.4,9.9-9.9v-39.7
	C506,202.9,501.5,198.4,496.1,198.4z"/>
<path fill="#D8D8D8" d="M496.1,238.1H99.2c-5.5,0-9.9-4.4-9.9-9.9V248c0,5.5,4.4,9.9,9.9,9.9h396.9c5.5,0,9.9-4.4,9.9-9.9v-19.8
	C506,233.7,501.5,238.1,496.1,238.1z"/>
<g>
	<path fill="#820D24" d="M337.3,89.3H258c-5.5,0-9.9-4.4-9.9-9.9c0-5.5,4.4-9.9,9.9-9.9h79.4c5.5,0,9.9,4.4,9.9,9.9
		C347.2,84.9,342.8,89.3,337.3,89.3z"/>
	<path fill="#820D24" d="M337.3,129H258c-5.5,0-9.9-4.4-9.9-9.9s4.4-9.9,9.9-9.9h79.4c5.5,0,9.9,4.4,9.9,9.9S342.8,129,337.3,129z"
		/>
	<path fill="#820D24" d="M337.3,168.7H258c-5.5,0-9.9-4.4-9.9-9.9c0-5.5,4.4-9.9,9.9-9.9h79.4c5.5,0,9.9,4.4,9.9,9.9
		C347.2,164.2,342.8,168.7,337.3,168.7z"/>
</g>
<g>
	<path fill="#FFFFFF" d="M212.4,372.9h-95.3c-4.4,0-7.9,3.6-7.9,7.9v95.3c0,4.4,3.6,7.9,7.9,7.9l47.7,7.9l47.7-7.9
		c4.4,0,7.9-3.6,7.9-7.9v-95.3C220.3,376.4,216.8,372.9,212.4,372.9z"/>
	<path fill="#FFFFFF" d="M212.4,484.1h-95.3c-4.4,0-7.9,3.6-7.9,7.9v95.3c0,4.4,3.6,7.9,7.9,7.9h95.3c4.4,0,7.9-3.6,7.9-7.9V492
		C220.3,487.6,216.8,484.1,212.4,484.1z"/>
</g>
<path fill="#D8D8D8" d="M125,587.3V492c0-4.4,3.6-7.9,7.9-7.9h-15.9c-4.4,0-7.9,3.6-7.9,7.9v95.3c0,4.4,3.6,7.9,7.9,7.9H133
	C128.6,595.3,125,591.7,125,587.3z"/>
<path fill="#D8D8D8" d="M180.6,484.1h-31.8v39.7c0,4.4,3.6,7.9,7.9,7.9h15.9c4.4,0,7.9-3.6,7.9-7.9L180.6,484.1L180.6,484.1z"/>
<path fill="#74757B" d="M180.6,579.4h-31.8c-4.4,0-7.9-3.6-7.9-7.9c0-4.4,3.6-7.9,7.9-7.9h31.8c4.4,0,7.9,3.6,7.9,7.9
	C188.6,575.8,185,579.4,180.6,579.4z"/>
<path fill="#D8D8D8" d="M125,476.1v-95.3c0-4.4,3.6-7.9,7.9-7.9h-15.9c-4.4,0-7.9,3.6-7.9,7.9v95.3c0,4.4,3.6,7.9,7.9,7.9H133
	C128.6,484.1,125,480.5,125,476.1z"/>
<path fill="#D8D8D8" d="M180.6,372.9h-31.8v39.7c0,4.4,3.6,7.9,7.9,7.9h15.9c4.4,0,7.9-3.6,7.9-7.9L180.6,372.9L180.6,372.9z"/>
<path fill="#74757B" d="M180.6,468.2h-31.8c-4.4,0-7.9-3.6-7.9-7.9c0-4.4,3.6-7.9,7.9-7.9h31.8c4.4,0,7.9,3.6,7.9,7.9
	C188.6,464.6,185,468.2,180.6,468.2z"/>
<path fill="#FFFFFF" d="M323.6,484.1h-95.3c-4.4,0-7.9,3.6-7.9,7.9v95.3c0,4.4,3.6,7.9,7.9,7.9h95.3c4.4,0,7.9-3.6,7.9-7.9V492
	C331.5,487.6,328,484.1,323.6,484.1z"/>
<path fill="#D8D8D8" d="M236.2,587.3V492c0-4.4,3.6-7.9,7.9-7.9h-15.9c-4.4,0-7.9,3.6-7.9,7.9v95.3c0,4.4,3.6,7.9,7.9,7.9h15.9
	C239.8,595.3,236.2,591.7,236.2,587.3z"/>
<path fill="#D8D8D8" d="M291.8,484.1H260v39.7c0,4.4,3.6,7.9,7.9,7.9h15.9c4.4,0,7.9-3.6,7.9-7.9L291.8,484.1L291.8,484.1z"/>
<path fill="#74757B" d="M291.8,579.4H260c-4.4,0-7.9-3.6-7.9-7.9c0-4.4,3.6-7.9,7.9-7.9h31.8c4.4,0,7.9,3.6,7.9,7.9
	C299.8,575.8,296.2,579.4,291.8,579.4z"/>
<g>
	<path fill="#FFFFFF" d="M360.5,587.4c-0.8,4.8,3.3,9,8.2,8.2c2.9-0.5,5.3-2.8,5.8-5.8c0.8-4.8-3.3-9-8.2-8.2
		C363.3,582.1,361,584.4,360.5,587.4"/>
	<path fill="#FFFFFF" d="M363.3,587.6c-0.7,3.1,2,5.9,5.2,5.2c1.6-0.4,2.9-1.6,3.2-3.2c0.7-3.1-2-5.9-5.2-5.2
		C364.9,584.7,363.6,586,363.3,587.6"/>
	<g>
		<rect x="407.9" y="581.5" fill="#FFFFFF" width="7.1" height="14.1"/>
		<path fill="#FFFFFF" d="M414.7,556.9l3.4,2.6l30.6,12.4c6.7,2.7,11.7,8.3,13.7,15.2l-51.2-20l-2.2-12.5"/>
		<rect x="407.7" y="581.5" fill="#FFFFFF" width="7.1" height="14.1"/>
		<path fill="#FFFFFF" d="M408,556.9l-3.4,2.6l-30.6,12.4c-6.6,2.7-11.7,8.3-13.7,15.2l51.2-20l2.2-12.5"/>
		<polygon fill="#FFFFFF" points="411.9,557 412,555.9 411.4,556.4 410.8,555.9 410.8,557 402.4,564.9 407.7,581.5 411.2,581.5 
			411.6,581.5 415,581.5 420.3,564.9 		"/>
		<polygon fill="#D8D8D8" points="417,543.1 405.7,543.1 404.5,543.1 404.5,562.6 405.7,562.6 417,562.6 418.2,562.6 418.2,543.1 		
			"/>
		<path fill="#FFFFFF" d="M462.2,587.4c0.8,4.8-3.3,9-8.2,8.2c-2.9-0.5-5.3-2.8-5.8-5.8c-0.8-4.8,3.3-9,8.2-8.2
			C459.4,582.1,461.7,584.4,462.2,587.4"/>
		<path fill="#FFFFFF" d="M459.5,587.6c0.7,3.1-2,5.9-5.2,5.2c-1.6-0.4-2.9-1.6-3.2-3.2c-0.7-3.1,2-5.9,5.2-5.2
			C457.8,584.7,459.1,586,459.5,587.6"/>
		<path fill="#D8D8D8" d="M382.9,418.1c3.5-4.5,17.5-4.9,26.7,5.1c17.7,19.2,28.8,16.8,28.8,16.8s-4.8-26.1,3.3-27.9
			c8.1-1.8,18.9,25.8,21,48.9c2.1,23.1-0.6,48.3-13.5,65.7c-12.9,17.4-41.4,27.6-65.1,12.6c-23.7-15-33.9-50.4-20.7-54.9
			c12.3-4.2,16.5,2.3,24.6,6.9c9,5.1,21.6,6.3,25.5-2.7c3.9-9-20.4-28.4-30-47.1C377.5,429.8,379.6,422.3,382.9,418.1z"/>
		<g>
			<path fill="#FFFFFF" d="M406.6,494.6C406.6,494.6,406.5,494.6,406.6,494.6c0.4-0.1,0.7-0.2,1.1-0.4
				C407.3,494.3,407,494.5,406.6,494.6z"/>
			<path fill="#FFFFFF" d="M462.7,461c-2.1-23.1-12.9-50.7-21-48.9c-8.1,1.8-3.3,27.9-3.3,27.9s4.5,22.2,7.8,39.3
				c3.3,17.1,2.4,29.4-10.5,28.8c-12.5-0.6-14.9-17.9-28-13.9c-0.4,0.2-0.8,0.3-1.2,0.4c-14,5.4-14.7,20.2-30.9,19.8
				c-10.1-0.3-14.5-4.9-16.3-7.9c3.6,11.6,12.3,25,24.7,32.8c23.7,15,52.2,4.8,65.1-12.6C462.1,509.3,464.8,484.1,462.7,461z"/>
		</g>
	</g>
</g>
<g>
	<rect x="272" y="419.1" fill="#D8D8D8" width="6.9" height="56.9"/>
	<rect x="252.8" y="475.2" fill="#FFFFFF" width="45.4" height="8.4"/>
	<g>
		<path fill="#FFFFFF" d="M273.9,399.3c-17.4,0-31.5,14.1-31.5,31.5h63C305.4,413.4,291.3,399.3,273.9,399.3z"/>
	</g>
</g>
</svg>
