<?xml version="1.0" encoding="utf-8"?>
<!-- Generator: Adobe Illustrator 18.0.0, SVG Export Plug-In . SVG Version: 6.00 Build 0)  -->
<!DOCTYPE svg PUBLIC "-//W3C//DTD SVG 1.1//EN" "http://www.w3.org/Graphics/SVG/1.1/DTD/svg11.dtd">
<svg version="1.1" id="Layer_1" xmlns="http://www.w3.org/2000/svg" xmlns:xlink="http://www.w3.org/1999/xlink" x="0px" y="0px"
	 viewBox="14 0 595.3 503" enable-background="new 14 0 595.3 503" xml:space="preserve">
<path fill="#820D24" d="M584.4,0.7H38.8C25.1,0.7,14,11.9,14,25.5v369.6c0,13.6,11.2,24.8,24.8,24.8h545.7
	c13.6,0,24.8-11.2,24.8-24.8V25.5C609.2,11.9,598.1,0.7,584.4,0.7z"/>
<rect x="51.2" y="37.9" fill="#FFFFFF" width="520.9" height="343.5"/>
<rect x="197.5" y="419.9" fill="#C5252E" width="227" height="67"/>
<rect x="129.3" y="486.9" fill="#820D24" width="364.6" height="16.1"/>
<rect x="197.5" y="419.9" fill="#AF222F" width="227" height="18.6"/>
<path fill="#FFFFFF" d="M527.4,46.6v315c0,11.2-8.7,19.8-19.8,19.8H114.4c-11.2,0-19.8-8.7-19.8-19.8v-315H527.4z"/>
<g>
	<path fill="#FFFFFF" d="M314.1,134.7v47.1c-1.2,0-1.2,0-2.5,0s-1.2,0-2.5,0v-47.1H314.1z"/>
	<path fill="#FFFFFF" d="M314.1,315.7v47.1h-5v-47.1c1.2,0,1.2,0,2.5,0S312.8,315.7,314.1,315.7z"/>
	<path fill="#FFFFFF" d="M393.5,169.4L360,202.9c-1.2-1.2-2.5-2.5-3.7-3.7l33.5-33.5L393.5,169.4z"/>
	<path fill="#FFFFFF" d="M265.7,298.4l-33.5,33.5l-3.7-3.7l33.5-33.5C263.2,295.9,264.5,297.1,265.7,298.4z"/>
	<path fill="#FFFFFF" d="M425.7,246.3v5h-45.9c0-1.2,0-1.2,0-2.5c0-1.2,0-1.2,0-2.5H425.7L425.7,246.3z"/>
	<path fill="#FFFFFF" d="M244.6,248.8c0,1.2,0,1.2,0,2.5h-45.9v-5h45.9C244.6,246.3,244.6,247.5,244.6,248.8z"/>
	<path fill="#FFFFFF" d="M393.5,326.9l-3.7,3.7l-32.2-32.2c1.2-1.2,2.5-2.5,3.7-3.7L393.5,326.9z"/>
	<path fill="#FFFFFF" d="M265.7,199.1c-1.2,1.2-2.5,2.5-3.7,3.7l-33.5-33.5l3.7-3.7L265.7,199.1z"/>
	<path fill="#FFFFFF" d="M288,185.5c-1.2,0-2.5,1.2-5,2.5l-11.2-26l5-2.5L288,185.5z"/>
	<path fill="#FFFFFF" d="M350,336.8l-5,2.5l-11.2-26c1.2,0,2.5-1.2,5-2.5L350,336.8z"/>
	<path fill="#FFFFFF" d="M250.8,220.2c-1.2,1.2-1.2,2.5-2.5,5l-26-11.2l2.5-5L250.8,220.2z"/>
	<path fill="#FFFFFF" d="M400.9,283.5l-2.5,5l-26-11.2c1.2-1.2,1.2-2.5,2.5-5L400.9,283.5z"/>
	<path fill="#FFFFFF" d="M250.8,276l-26,11.2l-2.5-5l26-11.2C249.6,273.6,249.6,274.8,250.8,276z"/>
	<path fill="#FFFFFF" d="M400.9,214l-26,11.2c0-1.2-1.2-2.5-2.5-5l26-11.2L400.9,214z"/>
	<path fill="#FFFFFF" d="M288,312l-11.2,26l-5-2.5l11.2-26C285.6,310.8,286.8,310.8,288,312z"/>
	<path fill="#FFFFFF" d="M350,160.7l-9.9,26c-1.2-1.2-2.5-1.2-5-2.5l11.2-26L350,160.7z"/>
</g>
<polygon fill="#C5252E" points="435.3,230.2 458.9,314.5 479.9,293.4 499.8,314.5 518.4,295.9 498.5,274.8 518.4,253.7 "/>
<path fill="#E4EAEF" d="M527.4,56.5v58.3c-7.4,6.2-17.4,8.7-27.3,8.7c-26,0-47.1-21.1-47.1-47.1c0,26-21.1,47.1-47.1,47.1
	c-26,0-47.1-21.1-47.1-47.1c0,26-21.1,47.1-47.1,47.1s-47.1-21.1-47.1-47.1c0,26-21.1,47.1-47.1,47.1s-47.1-21.1-47.1-47.1
	c0,26-21.1,47.1-47.1,47.1c-9.9,0-19.8-3.7-27.3-8.7V56.5C95.8,56.5,527.4,56.5,527.4,56.5z"/>
<polygon fill="#C5252E" points="170.2,46.6 76,46.6 95.8,0 181.4,0 "/>
<polygon fill="#FFFFFF" points="264.5,46.6 170.2,46.6 181.4,0 268.2,0 "/>
<polygon fill="#C5252E" points="358.7,46.6 264.5,46.6 268.2,0 355,0 "/>
<polygon fill="#FFFFFF" points="453,46.6 358.7,46.6 355,0 441.8,0 "/>
<polygon fill="#C5252E" points="547.2,46.6 453,46.6 441.8,0 527.4,0 "/>
<g>
	<path fill="#D8D8D8" d="M170.2,67.7c0,26,21.1,47.1,47.1,47.1c26,0,47.1-21.1,47.1-47.1V46.6h-94.3V67.7L170.2,67.7z"/>
	<path fill="#D8D8D8" d="M358.7,46.6v21.1c0,26,21.1,47.1,47.1,47.1S453,93.7,453,67.7V46.6L358.7,46.6z"/>
</g>
<g>
	<path fill="#820D24" d="M76,67.7c0,26,21.1,47.1,47.1,47.1s47.1-21.1,47.1-47.1V46.6H76V67.7z"/>
	<path fill="#820D24" d="M264.5,67.7c0,26,21.1,47.1,47.1,47.1c26,0,47.1-21.1,47.1-47.1V46.6h-94.3L264.5,67.7L264.5,67.7z"/>
	<path fill="#820D24" d="M453,46.6v21.1c0,26,21.1,47.1,47.1,47.1s47.1-21.1,47.1-47.1V46.6L453,46.6z"/>
</g>
<ellipse fill="#C5252E" cx="311.6" cy="248.8" rx="104.4" ry="106.1"/>
<g>
	<path fill="#FFFFFF" d="M293.9,280.6l-3.5-12.4h81.4v-61.9h-97.3l-5.3-23h-28.3v10.6h21.2l24.8,97.3h88.5v-10.6H293.9z
		 M361.1,215.1v40.7h-72.5L278,215.1H361.1z"/>
	<ellipse fill="#FFFFFF" cx="309.8" cy="310.7" rx="12.4" ry="12.4"/>
	<ellipse fill="#FFFFFF" cx="355.8" cy="310.7" rx="12.4" ry="12.4"/>
</g>
</svg>
