<?xml version="1.0" encoding="utf-8"?>
<!-- Generator: Adobe Illustrator 18.0.0, SVG Export Plug-In . SVG Version: 6.00 Build 0)  -->
<!DOCTYPE svg PUBLIC "-//W3C//DTD SVG 1.1//EN" "http://www.w3.org/Graphics/SVG/1.1/DTD/svg11.dtd">
<svg version="1.1" id="Layer_1" xmlns="http://www.w3.org/2000/svg" xmlns:xlink="http://www.w3.org/1999/xlink" x="0px" y="0px"
	 viewBox="0 0 602.6 503" enable-background="new 0 0 602.6 503" xml:space="preserve">
<path fill="#820D24" d="M577.8,0.7H32.2C18.5,0.7,7.4,11.9,7.4,25.5v369.6c0,13.6,11.2,24.8,24.8,24.8h545.7
	c13.6,0,24.8-11.2,24.8-24.8V25.5C602.6,11.9,591.5,0.7,577.8,0.7z"/>
<rect x="44.6" y="37.9" fill="#FFFFFF" width="520.9" height="343.5"/>
<rect x="190.9" y="419.9" fill="#C5252E" width="227" height="67"/>
<rect x="122.7" y="486.9" fill="#820D24" width="364.6" height="16.1"/>
<rect x="190.9" y="419.9" fill="#AF222F" width="227" height="18.6"/>
<path fill="#FFFFFF" d="M520.8,46.6v315c0,11.2-8.7,19.8-19.8,19.8H107.8c-11.2,0-19.8-8.7-19.8-19.8v-315H520.8z"/>
<g>
	<path fill="#FFFFFF" d="M307.5,134.7v47.1c-1.2,0-1.2,0-2.5,0s-1.2,0-2.5,0v-47.1H307.5z"/>
	<path fill="#FFFFFF" d="M307.5,315.7v47.1h-5v-47.1c1.2,0,1.2,0,2.5,0S306.2,315.7,307.5,315.7z"/>
	<path fill="#FFFFFF" d="M386.9,169.4l-33.5,33.5c-1.2-1.2-2.5-2.5-3.7-3.7l33.5-33.5L386.9,169.4z"/>
	<path fill="#FFFFFF" d="M259.1,298.4l-33.5,33.5l-3.7-3.7l33.5-33.5C256.6,295.9,257.9,297.1,259.1,298.4z"/>
	<path fill="#FFFFFF" d="M419.1,246.3v5h-45.9c0-1.2,0-1.2,0-2.5c0-1.2,0-1.2,0-2.5H419.1L419.1,246.3z"/>
	<path fill="#FFFFFF" d="M238,248.8c0,1.2,0,1.2,0,2.5h-45.9v-5H238C238,246.3,238,247.5,238,248.8z"/>
	<path fill="#FFFFFF" d="M386.9,326.9l-3.7,3.7l-32.2-32.2c1.2-1.2,2.5-2.5,3.7-3.7L386.9,326.9z"/>
	<path fill="#FFFFFF" d="M259.1,199.1c-1.2,1.2-2.5,2.5-3.7,3.7l-33.5-33.5l3.7-3.7L259.1,199.1z"/>
	<path fill="#FFFFFF" d="M281.4,185.5c-1.2,0-2.5,1.2-5,2.5l-11.2-26l5-2.5L281.4,185.5z"/>
	<path fill="#FFFFFF" d="M343.4,336.8l-5,2.5l-11.2-26c1.2,0,2.5-1.2,5-2.5L343.4,336.8z"/>
	<path fill="#FFFFFF" d="M244.2,220.2c-1.2,1.2-1.2,2.5-2.5,5l-26-11.2l2.5-5L244.2,220.2z"/>
	<path fill="#FFFFFF" d="M394.3,283.5l-2.5,5l-26-11.2c1.2-1.2,1.2-2.5,2.5-5L394.3,283.5z"/>
	<path fill="#FFFFFF" d="M244.2,276l-26,11.2l-2.5-5l26-11.2C243,273.6,243,274.8,244.2,276z"/>
	<path fill="#FFFFFF" d="M394.3,214l-26,11.2c0-1.2-1.2-2.5-2.5-5l26-11.2L394.3,214z"/>
	<path fill="#FFFFFF" d="M281.4,312l-11.2,26l-5-2.5l11.2-26C279,310.8,280.2,310.8,281.4,312z"/>
	<path fill="#FFFFFF" d="M343.4,160.7l-9.9,26c-1.2-1.2-2.5-1.2-5-2.5l11.2-26L343.4,160.7z"/>
</g>
<polygon fill="#C5252E" points="428.7,230.2 452.3,314.5 473.3,293.4 493.2,314.5 511.8,295.9 491.9,274.8 511.8,253.7 "/>
<path fill="#E4EAEF" d="M520.8,56.5v58.3c-7.4,6.2-17.4,8.7-27.3,8.7c-26,0-47.1-21.1-47.1-47.1c0,26-21.1,47.1-47.1,47.1
	c-26,0-47.1-21.1-47.1-47.1c0,26-21.1,47.1-47.1,47.1s-47.1-21.1-47.1-47.1c0,26-21.1,47.1-47.1,47.1s-47.1-21.1-47.1-47.1
	c0,26-21.1,47.1-47.1,47.1c-9.9,0-19.8-3.7-27.3-8.7V56.5C89.2,56.5,520.8,56.5,520.8,56.5z"/>
<polygon fill="#C5252E" points="163.6,46.6 69.4,46.6 89.2,0 174.8,0 "/>
<polygon fill="#FFFFFF" points="257.9,46.6 163.6,46.6 174.8,0 261.6,0 "/>
<polygon fill="#C5252E" points="352.1,46.6 257.9,46.6 261.6,0 348.4,0 "/>
<polygon fill="#FFFFFF" points="446.4,46.6 352.1,46.6 348.4,0 435.2,0 "/>
<polygon fill="#C5252E" points="540.6,46.6 446.4,46.6 435.2,0 520.8,0 "/>
<g>
	<path fill="#D8D8D8" d="M163.6,67.7c0,26,21.1,47.1,47.1,47.1c26,0,47.1-21.1,47.1-47.1V46.6h-94.3V67.7L163.6,67.7z"/>
	<path fill="#D8D8D8" d="M352.1,46.6v21.1c0,26,21.1,47.1,47.1,47.1s47.1-21.1,47.1-47.1V46.6L352.1,46.6z"/>
</g>
<g>
	<path fill="#820D24" d="M69.4,67.7c0,26,21.1,47.1,47.1,47.1s47.1-21.1,47.1-47.1V46.6H69.4V67.7z"/>
	<path fill="#820D24" d="M257.9,67.7c0,26,21.1,47.1,47.1,47.1c26,0,47.1-21.1,47.1-47.1V46.6h-94.3L257.9,67.7L257.9,67.7z"/>
	<path fill="#820D24" d="M446.4,46.6v21.1c0,26,21.1,47.1,47.1,47.1c26,0,47.1-21.1,47.1-47.1V46.6L446.4,46.6z"/>
</g>
<ellipse fill="#C5252E" cx="305" cy="248.8" rx="104.4" ry="106.1"/>
<g>
	<path fill="#FFFFFF" d="M287.3,280.6l-3.5-12.4h81.4v-61.9h-97.3l-5.3-23h-28.3v10.6h21.2l24.8,97.3h88.5v-10.6H287.3z
		 M354.5,215.1v40.7H282l-10.6-40.7H354.5z"/>
	<ellipse fill="#FFFFFF" cx="303.2" cy="310.7" rx="12.4" ry="12.4"/>
	<ellipse fill="#FFFFFF" cx="349.2" cy="310.7" rx="12.4" ry="12.4"/>
</g>
</svg>
